<svg width="441" height="408" viewBox="0 0 441 408" fill="none" xmlns="http://www.w3.org/2000/svg">
<path d="M419.981 311.447C419.78 311.447 419.587 311.366 419.444 311.224C419.301 311.081 419.221 310.888 419.221 310.686V252.907C419.221 252.705 419.301 252.512 419.444 252.369C419.587 252.226 419.78 252.146 419.981 252.146C420.183 252.146 420.376 252.226 420.519 252.369C420.662 252.512 420.742 252.705 420.742 252.907V310.686C420.742 310.888 420.662 311.081 420.519 311.224C420.376 311.366 420.183 311.447 419.981 311.447Z" fill="#00D5FF"/>
<path d="M312.486 242.516H140.758L140.717 232.177C140.717 232.009 140.717 231.842 140.717 231.67C140.717 196.52 149.121 163.332 164.382 138.208C180.601 111.503 202.709 96.7993 226.627 96.7993C250.544 96.7993 272.648 111.498 288.872 138.208C304.133 163.332 312.536 196.52 312.536 231.67C312.536 231.842 312.536 232.009 312.536 232.177V232.42L312.486 242.516ZM161.209 222.242H292.034C290.717 194.336 283.555 168.517 271.538 148.751C259.136 128.335 243.185 117.093 226.622 117.093C210.058 117.093 194.108 128.335 181.705 148.751C169.688 168.517 162.527 194.336 161.209 222.242Z" fill="#008BC4"/>
<path d="M313.241 243.276H140.003L139.957 232.182C139.957 232.014 139.957 231.842 139.957 231.675C139.957 196.389 148.401 163.059 163.733 137.818C180.099 110.88 202.435 96.0441 226.627 96.0441C250.818 96.0441 273.155 110.88 289.52 137.818C304.852 163.059 313.296 196.389 313.296 231.675C313.296 231.847 313.296 232.019 313.296 232.182V232.425L313.241 243.276ZM141.518 241.756H311.725L311.766 232.172C311.766 232.004 311.766 231.837 311.766 231.665C311.766 196.657 303.398 163.601 288.208 138.599C272.131 112.131 250.256 97.5445 226.617 97.5445C202.978 97.5445 181.102 112.121 165.025 138.599C149.82 163.601 141.467 196.657 141.467 231.665C141.467 231.832 141.467 231.999 141.467 232.172L141.518 241.756ZM292.83 223.003H160.413L160.448 222.207C161.766 194.275 169.065 168.046 181.057 148.34C193.601 127.686 209.784 116.313 226.622 116.313C243.459 116.313 259.643 127.686 272.187 148.34C284.158 168.046 291.477 194.275 292.795 222.207L292.83 223.003ZM162.004 221.482H291.249C289.84 194.113 282.633 168.431 270.899 149.126C258.639 128.948 242.917 117.833 226.632 117.833C210.347 117.833 194.625 128.948 182.364 149.126C170.631 168.431 163.413 194.098 162.004 221.482Z" fill="#00446D"/>
<path d="M181.852 214.133H270.884C292.078 214.133 312.405 222.553 327.391 237.539C342.378 252.526 350.798 272.852 350.798 294.047V383.342C350.798 389.68 348.28 395.758 343.798 400.24C339.317 404.722 333.238 407.24 326.9 407.24H125.836C119.498 407.24 113.42 404.722 108.938 400.24C104.456 395.758 101.939 389.68 101.939 383.342V294.047C101.939 272.852 110.358 252.526 125.345 237.539C140.332 222.553 160.658 214.133 181.852 214.133Z" fill="#008BC4"/>
<path d="M326.9 408H125.836C119.299 407.993 113.031 405.393 108.408 400.77C103.785 396.148 101.185 389.88 101.178 383.342V294.047C101.178 249.561 137.367 213.373 181.852 213.373H270.884C315.37 213.373 351.558 249.561 351.558 294.047V383.342C351.551 389.88 348.951 396.148 344.329 400.77C339.706 405.393 333.438 407.993 326.9 408ZM181.852 214.893C138.208 214.893 102.699 250.403 102.699 294.047V383.342C102.706 389.476 105.146 395.357 109.483 399.695C113.821 404.033 119.702 406.473 125.836 406.479H326.9C333.034 406.473 338.916 404.033 343.254 399.695C347.591 395.357 350.031 389.476 350.037 383.342V294.047C350.037 250.403 314.528 214.893 270.884 214.893H181.852Z" fill="#00446D"/>
<path d="M226.495 344.077C221.26 344.076 216.178 342.319 212.061 339.087C207.944 335.855 205.03 331.335 203.787 326.251C202.543 321.167 203.042 315.812 205.202 311.045C207.363 306.277 211.061 302.373 215.704 299.957H215.739V277.047H236.348V299.511H236.383C241.206 301.759 245.118 305.586 247.471 310.359C249.824 315.132 250.479 320.565 249.326 325.76C248.173 330.956 245.282 335.602 241.131 338.932C236.979 342.261 231.816 344.074 226.495 344.072V344.077Z" fill="#04335E"/>
<path d="M236.287 277.098V299.536L236.358 299.571C241.127 301.797 245.003 305.571 247.355 310.279C249.707 314.987 250.397 320.352 249.313 325.502C248.229 330.652 245.434 335.283 241.383 338.643C237.332 342.003 232.264 343.894 227.002 344.008C221.741 344.122 216.595 342.452 212.403 339.27C208.211 336.088 205.219 331.582 203.913 326.484C202.607 321.385 203.064 315.995 205.211 311.19C207.357 306.385 211.066 302.447 215.734 300.017L215.8 299.982V277.098H236.287ZM236.413 276.971H215.674V299.901C210.98 302.344 207.251 306.302 205.093 311.133C202.935 315.965 202.474 321.384 203.787 326.509C205.099 331.635 208.108 336.166 212.322 339.366C216.537 342.565 221.709 344.244 226.999 344.131C232.29 344.017 237.385 342.117 241.458 338.739C245.531 335.362 248.342 330.706 249.433 325.528C250.524 320.35 249.832 314.956 247.468 310.222C245.104 305.488 241.208 301.693 236.413 299.455V276.981V276.971Z" fill="black"/>
<path d="M226.495 344.898C221.116 344.899 215.89 343.107 211.642 339.806C207.395 336.506 204.368 331.884 203.04 326.672C201.712 321.459 202.158 315.953 204.309 311.023C206.459 306.092 210.19 302.018 214.913 299.444V276.211H237.174V298.978C242.079 301.39 246.022 305.391 248.364 310.33C250.705 315.269 251.305 320.855 250.067 326.178C248.829 331.502 245.826 336.25 241.545 339.649C237.265 343.048 231.96 344.898 226.495 344.898ZM216.434 277.731V300.362L216.028 300.575C211.486 302.938 207.877 306.768 205.788 311.442C203.699 316.116 203.253 321.36 204.523 326.32C205.792 331.28 208.703 335.665 212.781 338.761C216.858 341.857 221.864 343.482 226.982 343.372C232.101 343.262 237.032 341.424 240.973 338.155C244.914 334.887 247.634 330.382 248.69 325.372C249.745 320.362 249.074 315.142 246.787 310.562C244.499 305.981 240.729 302.31 236.089 300.144L235.653 299.941V277.731H216.434Z" fill="#00446D"/>
<path d="M340.407 353.768H340.276C339.471 353.732 338.713 353.379 338.168 352.785C337.624 352.191 337.337 351.405 337.371 350.6C341.203 262.41 315.78 255.958 315.522 255.902H315.597L316.561 249.901C317.443 250.043 325.38 251.68 332.465 265.446C341.457 282.906 345.136 311.644 343.444 350.853C343.411 351.637 343.077 352.378 342.511 352.921C341.945 353.464 341.192 353.767 340.407 353.768Z" fill="white"/>
<path d="M107.514 308.912H107.265C106.462 308.848 105.717 308.466 105.194 307.852C104.671 307.238 104.413 306.442 104.478 305.638C106.921 274.898 117.038 251.761 134.544 236.87C157.458 217.382 184.452 219.349 185.593 219.44C185.992 219.473 186.381 219.585 186.737 219.768C187.094 219.952 187.41 220.204 187.669 220.51C187.928 220.816 188.124 221.169 188.246 221.551C188.368 221.933 188.414 222.335 188.38 222.734C188.347 223.134 188.236 223.522 188.052 223.879C187.868 224.235 187.616 224.552 187.311 224.81C187.005 225.069 186.651 225.265 186.269 225.387C185.887 225.509 185.485 225.555 185.086 225.522C184.807 225.522 167.782 224.31 150.241 233.565C126.733 245.973 113.373 270.393 110.53 306.145C110.462 306.899 110.115 307.6 109.557 308.112C108.999 308.624 108.271 308.909 107.514 308.912Z" fill="white"/>
<path d="M268.644 364.665H184.599C180.287 364.661 176.152 362.946 173.103 359.897C170.054 356.847 168.339 352.713 168.335 348.4V272.972C168.339 268.66 170.054 264.525 173.103 261.476C176.152 258.427 180.287 256.712 184.599 256.708H268.644C272.956 256.712 277.09 258.427 280.14 261.476C283.189 264.525 284.904 268.66 284.908 272.972V348.4C284.904 352.713 283.189 356.847 280.14 359.897C277.09 362.946 272.956 364.661 268.644 364.665ZM184.599 258.735C180.824 258.739 177.206 260.241 174.537 262.91C171.867 265.579 170.366 269.198 170.362 272.972V348.4C170.366 352.175 171.867 355.794 174.537 358.463C177.206 361.132 180.824 362.634 184.599 362.638H268.644C272.418 362.634 276.037 361.132 278.706 358.463C281.375 355.794 282.877 352.175 282.881 348.4V272.972C282.877 269.198 281.375 265.579 278.706 262.91C276.037 260.241 272.418 258.739 268.644 258.735H184.599Z" fill="#00446D"/>
<path d="M315.826 183.216C315.584 183.219 315.349 183.137 315.163 182.982C314.978 182.828 314.853 182.612 314.812 182.374C307.27 138.436 289.931 116.318 276.713 105.502C262.481 93.8446 249.946 92.4965 249.819 92.4864C249.551 92.4595 249.304 92.3268 249.132 92.1177C248.961 91.9085 248.88 91.6401 248.907 91.3713C248.934 91.1024 249.067 90.8553 249.276 90.6842C249.485 90.5132 249.754 90.4322 250.022 90.459C250.529 90.5097 263.292 91.8933 277.995 103.926C286.612 110.961 294.067 120.2 300.205 131.391C307.848 145.34 313.439 162.37 316.809 182.02C316.855 182.285 316.793 182.557 316.638 182.776C316.483 182.996 316.247 183.145 315.983 183.191L315.826 183.216Z" fill="#00D5FF"/>
<path d="M175.937 197.914H175.892C175.759 197.908 175.628 197.876 175.507 197.82C175.387 197.764 175.278 197.684 175.188 197.585C175.098 197.487 175.029 197.372 174.983 197.247C174.938 197.121 174.918 196.988 174.924 196.855C175.983 174.078 183.474 159.653 189.571 151.564C196.221 142.734 202.572 139.374 202.841 139.237C202.959 139.164 203.092 139.117 203.229 139.097C203.367 139.078 203.508 139.087 203.642 139.124C203.776 139.161 203.901 139.225 204.01 139.313C204.118 139.401 204.207 139.51 204.271 139.633C204.335 139.757 204.373 139.892 204.383 140.031C204.393 140.17 204.373 140.31 204.327 140.441C204.28 140.572 204.207 140.692 204.111 140.794C204.016 140.895 203.901 140.976 203.773 141.031C203.697 141.072 197.488 144.392 191.102 152.881C185.208 160.737 177.965 174.762 176.936 196.946C176.924 197.204 176.815 197.448 176.629 197.628C176.443 197.808 176.196 197.911 175.937 197.914Z" fill="#00D5FF"/>
<path d="M133.956 358.583C109.08 353.116 85.9608 341.53 66.6928 324.873C51.072 311.447 37.3874 294.528 26.0139 274.589C6.65762 240.661 0.641202 209.283 0.585449 208.973L2.07578 208.69C2.1366 209.004 8.11727 240.164 27.357 273.88C45.0964 304.944 78.0411 344.599 134.3 357.103L133.956 358.583Z" fill="#00D5FF"/>
<path d="M110.297 376.566C99.3597 376.576 88.4934 374.811 78.122 371.34C65.6994 367.194 53.7481 360.585 42.6078 351.7C23.6519 336.586 13.4493 319.86 13.353 319.693L14.6503 318.912C14.7517 319.075 24.838 335.598 43.5962 350.544C60.8694 364.305 89.2575 379.51 126.404 373.798L126.637 375.319C121.23 376.151 115.767 376.568 110.297 376.566Z" fill="#00D5FF"/>
<path d="M439.495 16.9719C362.962 19.5061 292.551 95.4867 322.059 132.299L311.416 142.74L347.047 189.369L355.815 181.599C355.815 181.599 367.346 196.546 391.213 189.536C428.314 178.644 437.406 159.633 439.52 154.807L439.495 16.9719Z" fill="#76C0E5"/>
<path d="M439.495 16.9721V154.833C437.381 159.673 428.289 178.654 391.188 189.562C387.21 190.769 383.079 191.399 378.922 191.432C363.362 191.432 355.79 181.624 355.79 181.624L347.021 189.394L311.391 142.765L322.034 132.324C292.551 95.4867 362.962 19.5063 439.495 16.9721ZM439.495 15.4515H439.444C426.1 15.9624 412.907 18.4616 400.301 22.8666C387.962 27.1262 376.199 32.901 365.283 40.0586C344.112 53.8903 327.27 72.0302 319.09 89.8305C315.344 97.9805 313.514 105.766 313.671 112.968C313.723 119.872 315.948 126.585 320.032 132.152L310.327 141.655C310.056 141.915 309.891 142.266 309.864 142.64C309.837 143.015 309.95 143.386 310.179 143.682L345.81 190.337C345.938 190.503 346.098 190.641 346.281 190.742C346.464 190.843 346.666 190.905 346.874 190.925H347.021C347.395 190.926 347.756 190.789 348.035 190.54L355.673 183.778C358.344 186.531 365.977 192.962 378.927 192.962C383.221 192.925 387.488 192.274 391.598 191.031C425.273 181.148 436.925 164.498 440.873 155.451C440.955 155.259 440.998 155.052 441 154.843V16.9721C441 16.5688 440.84 16.1822 440.555 15.897C440.27 15.6119 439.883 15.4515 439.479 15.4515H439.495Z" fill="#00446D"/>
<path d="M312.637 141.655L347.021 189.415L355.491 181.305C355.313 165.846 339.46 141.361 322.303 132.466L312.637 141.655Z" fill="#76C0E5"/>
<path d="M379.475 70.454C382.366 70.454 384.71 68.1098 384.71 65.2183C384.71 62.3267 382.366 59.9825 379.475 59.9825C376.583 59.9825 374.239 62.3267 374.239 65.2183C374.239 68.1098 376.583 70.454 379.475 70.454Z" fill="white"/>
<path d="M380.23 172.957C383.122 172.957 385.466 170.613 385.466 167.722C385.466 164.83 383.122 162.486 380.23 162.486C377.338 162.486 374.994 164.83 374.994 167.722C374.994 170.613 377.338 172.957 380.23 172.957Z" fill="white"/>
<path d="M410.27 125.664C413.162 125.664 415.506 123.32 415.506 120.429C415.506 117.537 413.162 115.193 410.27 115.193C407.379 115.193 405.034 117.537 405.034 120.429C405.034 123.32 407.379 125.664 410.27 125.664Z" fill="white"/>
<path d="M338.633 110.611C341.525 110.611 343.869 108.267 343.869 105.375C343.869 102.484 341.525 100.14 338.633 100.14C335.742 100.14 333.398 102.484 333.398 105.375C333.398 108.267 335.742 110.611 338.633 110.611Z" fill="white"/>
<path d="M347.25 188.573C347.25 188.573 351.162 270.048 308.182 243.905L273.57 268.918C273.57 268.918 250.255 261.675 270.529 233.474C270.529 233.474 260.25 221.335 263.433 206.992C263.433 206.992 251.34 200.677 263.971 176.495C276.601 152.314 311.451 143.231 311.451 143.231L347.25 188.573Z" fill="#FFFAF7"/>
<path d="M273.758 270.038L273.251 269.886C272.906 269.779 264.766 267.169 262.06 259.085C259.748 252.172 262.166 243.571 269.247 233.51C267.219 230.849 259.82 220.155 262.283 207.468C259.749 205.664 251.705 197.762 263.058 176.044C275.729 151.716 309.738 142.648 311.208 142.273L311.847 142.106L348.253 188.229V188.553C348.35 190.524 350.356 236.885 331.928 247.853C325.582 251.624 317.61 250.722 308.223 245.167L273.758 270.038ZM311.087 144.392C306.332 145.765 276.226 155.238 264.878 176.962C252.932 199.84 263.464 205.851 263.92 206.095L264.594 206.46L264.432 207.21C261.39 220.894 271.213 232.704 271.314 232.82L271.821 233.424L271.36 234.067C264.34 243.829 261.867 252.02 263.996 258.421C266.023 264.503 271.746 267.129 273.413 267.782L308.132 242.689L308.709 243.038C317.655 248.477 325.121 249.495 330.904 246.079C347.523 236.206 346.403 193.13 346.251 188.963L311.087 144.392Z" fill="#00446D"/>
<path d="M318.486 233.632C318.699 233.55 318.933 233.542 319.151 233.61C319.369 233.677 319.558 233.816 319.687 234.005C319.815 234.193 319.877 234.419 319.862 234.646C319.846 234.874 319.755 235.09 319.601 235.259L308.8 244.65C308.705 244.762 308.587 244.852 308.454 244.913C308.321 244.975 308.177 245.007 308.03 245.007C307.884 245.008 307.739 244.976 307.606 244.915C307.472 244.854 307.354 244.765 307.259 244.653C307.163 244.542 307.093 244.411 307.053 244.27C307.013 244.129 307.004 243.981 307.027 243.836C307.05 243.691 307.103 243.553 307.185 243.431C307.266 243.309 307.373 243.206 307.498 243.13L318.299 233.743C318.356 233.698 318.419 233.661 318.486 233.632Z" fill="#00446D"/>
<path d="M294.168 208.877C295.494 208.157 296.864 207.519 298.269 206.966C298.396 206.886 298.539 206.836 298.689 206.818C298.838 206.801 298.99 206.816 299.133 206.865C299.275 206.913 299.405 206.992 299.513 207.097C299.621 207.202 299.705 207.329 299.757 207.47C299.81 207.611 299.83 207.762 299.817 207.912C299.804 208.062 299.758 208.207 299.682 208.337C299.606 208.467 299.502 208.578 299.378 208.663C299.253 208.748 299.112 208.803 298.963 208.826C298.791 208.892 281.482 215.537 271.781 233.976C271.738 234.12 271.664 234.252 271.564 234.364C271.464 234.475 271.341 234.563 271.203 234.622C271.064 234.68 270.915 234.707 270.765 234.7C270.615 234.694 270.469 234.654 270.336 234.584C270.204 234.514 270.088 234.416 269.998 234.296C269.908 234.176 269.846 234.037 269.816 233.891C269.786 233.744 269.789 233.592 269.825 233.446C269.86 233.301 269.928 233.165 270.022 233.048C275.493 222.773 283.898 214.359 294.168 208.877Z" fill="#00446D"/>
<path d="M284.761 184.863C286.652 183.849 287.919 183.317 288.111 183.236C288.235 183.151 288.377 183.095 288.525 183.072C288.673 183.048 288.825 183.058 288.969 183.1C289.113 183.142 289.246 183.216 289.358 183.316C289.47 183.415 289.559 183.539 289.617 183.677C289.676 183.815 289.703 183.965 289.697 184.115C289.691 184.265 289.651 184.412 289.581 184.545C289.511 184.677 289.413 184.793 289.292 184.883C289.172 184.973 289.034 185.036 288.887 185.066C288.699 185.147 269.814 193.307 264.209 208.249C264.085 208.446 263.896 208.595 263.675 208.67C263.454 208.745 263.214 208.741 262.996 208.659C262.777 208.578 262.594 208.423 262.476 208.222C262.358 208.021 262.313 207.785 262.349 207.554C266.824 195.618 278.826 188 284.761 184.863Z" fill="#00446D"/>
<path d="M286.347 159.035C293.854 155.051 299.753 154.889 300.032 154.884C300.179 154.851 300.331 154.851 300.477 154.884C300.623 154.918 300.761 154.983 300.879 155.075C300.997 155.168 301.093 155.286 301.16 155.42C301.227 155.554 301.263 155.702 301.266 155.852C301.27 156.002 301.239 156.151 301.178 156.288C301.116 156.425 301.025 156.547 300.911 156.644C300.796 156.742 300.662 156.812 300.517 156.852C300.372 156.891 300.22 156.897 300.073 156.87C299.809 156.87 276.033 157.803 264.158 189.607C264.035 189.808 263.846 189.96 263.624 190.037C263.402 190.114 263.16 190.111 262.939 190.029C262.719 189.947 262.533 189.791 262.415 189.587C262.297 189.383 262.254 189.145 262.293 188.913C268.745 171.635 278.618 163.307 285.765 159.364L286.347 159.035Z" fill="white"/>
<path d="M288.147 189.014C288.958 188.583 289.485 188.325 289.617 188.259C289.856 188.148 290.128 188.134 290.377 188.22C290.625 188.306 290.831 188.485 290.95 188.72C291.009 188.837 291.044 188.965 291.053 189.096C291.062 189.227 291.044 189.358 291.001 189.482C290.958 189.606 290.89 189.72 290.802 189.817C290.714 189.914 290.608 189.993 290.489 190.048C290.245 190.17 266.313 201.989 266.992 214.128C267.029 214.273 267.033 214.424 267.004 214.571C266.976 214.718 266.915 214.857 266.826 214.977C266.738 215.098 266.624 215.197 266.492 215.269C266.361 215.34 266.215 215.381 266.066 215.389C265.916 215.398 265.767 215.373 265.629 215.317C265.49 215.261 265.365 215.175 265.264 215.065C265.162 214.955 265.087 214.824 265.042 214.681C264.997 214.539 264.985 214.388 265.005 214.24C264.351 202.532 282.693 191.908 288.147 189.014Z" fill="white"/>
<path d="M296.667 214.61C296.885 214.54 297.119 214.547 297.333 214.628C297.546 214.708 297.726 214.859 297.843 215.055C297.961 215.251 298.009 215.481 297.979 215.707C297.95 215.934 297.844 216.143 297.681 216.302C297.407 216.495 270.139 235.882 269.146 253.074C269.087 253.302 268.952 253.502 268.762 253.641C268.571 253.78 268.339 253.848 268.104 253.835C267.869 253.821 267.646 253.726 267.474 253.566C267.301 253.405 267.19 253.191 267.159 252.957C268.208 234.807 295.38 215.491 296.556 214.675L296.667 214.61Z" fill="white"/>
<path d="M313.544 59.5466C313.469 59.5469 313.393 59.535 313.321 59.5112C313.128 59.4527 312.967 59.32 312.872 59.1422C312.777 58.9645 312.756 58.7563 312.814 58.5634C312.86 58.4215 317.376 44.0222 331.892 29.7343C340.693 21.1728 351.063 14.3905 362.434 9.75963C377.077 3.67754 394.051 0.479363 412.875 0.246216C413.077 0.246216 413.27 0.326372 413.413 0.468949C413.556 0.611525 413.636 0.804843 413.636 1.00648C413.636 1.20811 413.556 1.40143 413.413 1.54401C413.27 1.68658 413.077 1.76674 412.875 1.76674C370.762 2.27358 346.19 17.8185 332.997 30.7581C318.699 44.7774 314.295 58.8674 314.244 59.0093C314.196 59.1597 314.104 59.2919 313.979 59.388C313.853 59.4841 313.702 59.5394 313.544 59.5466Z" fill="#00D5FF"/>
</svg>
