<svg width="486" height="478" viewBox="0 0 486 478" fill="none" xmlns="http://www.w3.org/2000/svg">
<path d="M444.963 178.25H298.394C281.544 178.25 267.884 191.91 267.884 208.76V310.984C267.884 327.834 281.544 341.494 298.394 341.494H444.963C461.814 341.494 475.474 327.834 475.474 310.984V208.76C475.474 191.91 461.814 178.25 444.963 178.25Z" fill="#008BC4"/>
<path d="M444.963 342.384H298.401C290.07 342.384 282.08 339.077 276.187 333.189C270.294 327.301 266.979 319.315 266.971 310.984V208.76C266.971 200.425 270.282 192.43 276.176 186.536C282.071 180.642 290.065 177.331 298.401 177.331H444.963C453.299 177.331 461.293 180.642 467.187 186.536C473.082 192.43 476.393 200.425 476.393 208.76V310.984C476.385 319.315 473.07 327.301 467.177 333.189C461.284 339.077 453.294 342.384 444.963 342.384ZM298.401 179.139C290.537 179.139 282.995 182.263 277.434 187.824C271.874 193.384 268.75 200.926 268.75 208.79V311.014C268.758 318.872 271.885 326.407 277.445 331.961C283.004 337.515 290.542 340.635 298.401 340.635H444.963C452.822 340.635 460.359 337.515 465.919 331.961C471.479 326.407 474.606 318.872 474.614 311.014V208.76C474.614 200.897 471.49 193.355 465.93 187.794C460.369 182.234 452.827 179.11 444.963 179.11L298.401 179.139Z" fill="#00446D"/>
<path d="M415.248 217.258C415.248 217.258 404.117 224.718 398.643 235.517C391.527 249.548 402.124 266.063 417.851 265.334H431.697C444.471 265.334 453.751 252.999 449.986 240.789C447.881 233.969 442.277 227.375 433.222 218.415C433.222 218.415 440.765 211.536 441.055 202.961C441.055 202.961 433.66 198.507 428.335 201.84C423.01 205.173 408.896 196.23 406.987 199.059C406.957 199.065 419.286 209.727 415.248 217.258Z" fill="white"/>
<path d="M408.428 198.501C411.874 198.501 419.832 202.599 425.145 202.599C426.252 202.647 427.351 202.386 428.318 201.846C429.707 201.003 431.307 200.573 432.931 200.606C437.118 200.606 441.038 202.978 441.038 202.978C440.747 211.553 433.204 218.432 433.204 218.432C442.259 227.393 447.864 233.987 449.969 240.807C453.729 253.011 444.454 265.351 431.68 265.351H417.833C417.495 265.351 417.163 265.351 416.831 265.351C401.668 265.351 391.64 249.239 398.626 235.511C404.117 224.712 415.23 217.252 415.23 217.252C419.28 209.721 406.928 199.059 406.928 199.059C407.107 198.85 407.335 198.689 407.592 198.591C407.848 198.492 408.126 198.46 408.398 198.495L408.428 198.501ZM408.398 196.716C406.72 196.716 405.872 197.446 405.433 198.056C405.181 198.419 405.072 198.863 405.129 199.302C405.186 199.74 405.405 200.142 405.742 200.428C408.802 203.073 416.048 210.931 413.801 216.078C411.69 217.566 402.095 224.689 396.983 234.728C395.252 238.122 394.42 241.903 394.566 245.71C394.712 249.517 395.83 253.223 397.816 256.475C399.801 259.727 402.586 262.416 405.905 264.285C409.225 266.155 412.968 267.142 416.777 267.154C417.121 267.154 417.471 267.154 417.815 267.154H431.627C434.907 267.168 438.145 266.405 441.074 264.925C444.002 263.446 446.538 261.294 448.474 258.644C450.411 256.055 451.706 253.042 452.251 249.854C452.796 246.667 452.577 243.395 451.611 240.309C449.47 233.364 443.902 226.717 435.659 218.438C437.966 215.918 442.527 210.077 442.776 203.061C442.786 202.745 442.712 202.431 442.561 202.153C442.41 201.875 442.187 201.642 441.916 201.478C441.738 201.371 437.516 198.863 432.89 198.863C430.933 198.828 429.006 199.351 427.334 200.369C426.648 200.731 425.877 200.899 425.103 200.855C422.447 200.855 418.817 199.669 415.615 198.566C412.715 197.594 410.213 196.758 408.387 196.758L408.398 196.716Z" fill="#00446D"/>
<path d="M425.109 219.589C424.971 219.589 424.835 219.556 424.712 219.495C424.588 219.433 424.48 219.343 424.398 219.233C424.315 219.122 424.258 218.994 424.234 218.858C424.209 218.722 424.216 218.583 424.255 218.45C425.625 213.706 420.104 208.648 420.039 208.6C419.878 208.439 419.785 208.223 419.779 207.995C419.773 207.768 419.854 207.547 420.006 207.378C420.158 207.208 420.369 207.103 420.596 207.085C420.822 207.066 421.047 207.135 421.225 207.278C421.486 207.515 427.635 213.172 425.969 218.942C425.916 219.129 425.803 219.293 425.648 219.41C425.493 219.527 425.304 219.59 425.109 219.589Z" fill="#00446D"/>
<path d="M428.496 219.695C428.274 219.69 428.062 219.601 427.903 219.446C427.736 219.28 427.643 219.053 427.643 218.818C427.643 218.582 427.736 218.356 427.903 218.189C430.553 215.432 429.877 209.11 429.871 209.045C429.858 208.928 429.869 208.81 429.902 208.697C429.935 208.584 429.989 208.479 430.063 208.387C430.136 208.295 430.227 208.219 430.33 208.163C430.433 208.106 430.546 208.07 430.663 208.057C430.78 208.045 430.898 208.055 431.011 208.088C431.124 208.121 431.229 208.175 431.321 208.249C431.412 208.322 431.489 208.413 431.545 208.516C431.602 208.619 431.637 208.732 431.65 208.849C431.68 209.14 432.427 216.06 429.201 219.423C429.111 219.517 429.001 219.591 428.879 219.638C428.757 219.686 428.626 219.705 428.496 219.695Z" fill="#00446D"/>
<path d="M431.383 234.77C429.819 234.823 428.339 235.492 427.265 236.632C426.192 237.771 425.613 239.289 425.655 240.854V241.056C425.573 239.512 424.892 238.061 423.757 237.012C422.622 235.963 421.122 235.399 419.576 235.44C416.315 235.535 413.48 238.281 413.848 241.524C414.53 247.508 422.032 252.685 424.937 254.482C425.271 254.688 425.66 254.785 426.051 254.759C426.442 254.734 426.816 254.587 427.119 254.339C429.948 252.027 437.616 245.32 437.468 240.504C437.416 238.939 436.748 237.457 435.608 236.382C434.468 235.308 432.949 234.728 431.383 234.77Z" fill="#76C0E5"/>
<path d="M425.922 255.656C425.411 255.656 424.909 255.512 424.475 255.241C421.249 253.254 413.682 247.941 412.965 241.601C412.873 240.764 412.958 239.916 413.215 239.113C413.471 238.31 413.893 237.57 414.453 236.94C415.091 236.208 415.873 235.616 416.751 235.2C417.629 234.785 418.583 234.556 419.553 234.527C419.477 235.412 419.728 236.294 420.259 237.006C420.789 237.718 421.562 238.211 422.431 238.391C423.301 238.572 424.207 238.427 424.977 237.985C425.747 237.543 426.327 236.833 426.61 235.992C427.221 235.341 427.954 234.817 428.769 234.45C429.583 234.084 430.461 233.882 431.354 233.857C433.156 233.806 434.904 234.471 436.216 235.707C437.528 236.944 438.296 238.649 438.352 240.451C438.506 245.592 430.939 252.311 427.678 255.004C427.185 255.417 426.565 255.647 425.922 255.656ZM419.755 236.324H419.606C418.885 236.347 418.175 236.517 417.521 236.823C416.866 237.128 416.281 237.564 415.799 238.103C415.402 238.548 415.102 239.071 414.919 239.639C414.735 240.207 414.671 240.806 414.732 241.4C415.378 247.099 423.07 252.258 425.406 253.705C425.583 253.812 425.788 253.862 425.994 253.848C426.199 253.835 426.396 253.757 426.556 253.628C428.928 251.677 436.715 244.982 436.579 240.504C436.538 239.174 435.972 237.914 435.003 237.002C434.035 236.089 432.744 235.597 431.413 235.636C430.082 235.676 428.821 236.243 427.908 237.213C426.995 238.183 426.505 239.476 426.545 240.807V241.008L424.766 241.074C424.692 239.793 424.132 238.589 423.201 237.706C422.27 236.823 421.038 236.329 419.755 236.324Z" fill="#00446D"/>
<path d="M428.253 220.543C421.801 220.543 413.955 217.958 413.516 217.816C413.292 217.741 413.107 217.58 413.001 217.369C412.895 217.158 412.878 216.913 412.953 216.689C413.028 216.465 413.188 216.28 413.399 216.174C413.611 216.068 413.855 216.051 414.079 216.126C414.216 216.173 427.719 220.609 433.097 217.905C433.309 217.799 433.554 217.782 433.778 217.857C434.002 217.932 434.187 218.093 434.292 218.305C434.397 218.516 434.415 218.761 434.34 218.985C434.265 219.209 434.103 219.394 433.892 219.5C432.114 220.265 430.187 220.622 428.253 220.543Z" fill="#00446D"/>
<path d="M414.423 284.654C414.187 284.654 413.961 284.56 413.794 284.394C413.628 284.227 413.534 284.001 413.534 283.765C413.534 283.529 413.628 283.302 413.794 283.136C413.961 282.969 414.187 282.875 414.423 282.875L456.195 282.116C456.312 282.113 456.428 282.133 456.538 282.175C456.647 282.218 456.747 282.281 456.831 282.362C456.916 282.443 456.983 282.54 457.03 282.648C457.076 282.755 457.101 282.871 457.102 282.988C457.105 283.223 457.016 283.45 456.853 283.62C456.689 283.79 456.466 283.889 456.231 283.895L414.459 284.648L414.423 284.654Z" fill="#00446D"/>
<path d="M456.195 308.938H422.132C421.897 308.938 421.67 308.844 421.504 308.677C421.337 308.511 421.243 308.284 421.243 308.048C421.243 307.813 421.337 307.586 421.504 307.42C421.67 307.253 421.897 307.159 422.132 307.159H456.195C456.431 307.159 456.657 307.253 456.824 307.42C456.991 307.586 457.085 307.813 457.085 308.048C457.085 308.284 456.991 308.511 456.824 308.677C456.657 308.844 456.431 308.938 456.195 308.938Z" fill="#00446D"/>
<path d="M485.11 292.257C484.875 292.257 484.648 292.163 484.482 291.996C484.315 291.829 484.221 291.603 484.221 291.367V212.959C484.221 212.723 484.315 212.497 484.482 212.33C484.648 212.163 484.875 212.069 485.11 212.069C485.346 212.069 485.573 212.163 485.739 212.33C485.906 212.497 486 212.723 486 212.959V291.367C486 291.603 485.906 291.829 485.739 291.996C485.573 292.163 485.346 292.257 485.11 292.257Z" fill="#00446D"/>
<path d="M443.338 185.52H371.999C371.606 185.52 371.229 185.364 370.951 185.086C370.673 184.808 370.517 184.431 370.517 184.038C370.517 183.644 370.673 183.267 370.951 182.989C371.229 182.711 371.606 182.555 371.999 182.555H443.338C443.732 182.555 444.109 182.711 444.387 182.989C444.665 183.267 444.821 183.644 444.821 184.038C444.821 184.431 444.665 184.808 444.387 185.086C444.109 185.364 443.732 185.52 443.338 185.52Z" fill="white"/>
<path d="M262.778 291.148C262.514 291.146 262.251 291.126 261.989 291.088L120.817 271.122C119.832 270.984 118.903 270.58 118.131 269.953C117.358 269.326 116.771 268.499 116.434 267.563L85.5386 182.17C83.9343 177.737 83.2258 173.029 83.4544 168.321C83.6829 163.612 84.8439 158.995 86.87 154.738C88.896 150.482 91.7469 146.67 95.2573 143.523C98.7677 140.376 102.868 137.957 107.32 136.407L201.229 103.696C201.802 103.497 202.403 103.393 203.008 103.388C204.156 103.387 205.274 103.747 206.206 104.416C207.138 105.086 207.837 106.031 208.203 107.118L267.92 283.889C268.205 284.712 268.287 285.591 268.159 286.452C268.031 287.314 267.697 288.131 267.184 288.835C266.685 289.541 266.025 290.119 265.259 290.521C264.493 290.923 263.643 291.138 262.778 291.148Z" fill="#151E28"/>
<path d="M203.032 103.335V103.483C204.163 103.482 205.266 103.836 206.186 104.496C207.105 105.156 207.794 106.087 208.155 107.159L267.878 283.931C268.158 284.743 268.238 285.611 268.111 286.46C267.984 287.31 267.654 288.116 267.148 288.811C266.65 289.507 265.995 290.074 265.235 290.467C264.475 290.859 263.633 291.066 262.778 291.071C262.516 291.07 262.254 291.052 261.995 291.017L120.828 271.05C119.856 270.913 118.939 270.513 118.178 269.893C117.416 269.274 116.838 268.458 116.505 267.534L85.6094 182.14C84.0139 177.716 83.3109 173.02 83.5414 168.323C83.7719 163.626 84.9314 159.022 86.9524 154.776C88.9734 150.53 91.816 146.726 95.316 143.586C98.816 140.445 102.904 138.029 107.343 136.478L201.259 103.773C201.83 103.572 202.432 103.47 203.038 103.471V103.323L203.032 103.335ZM203.038 103.323C202.416 103.324 201.799 103.428 201.211 103.631L107.29 136.371C102.829 137.926 98.7212 140.35 95.2042 143.503C91.6872 146.657 88.8311 150.477 86.8013 154.742C84.7714 159.008 83.6083 163.634 83.3793 168.352C83.1503 173.07 83.8598 177.787 85.467 182.229L116.363 267.623C116.705 268.571 117.299 269.408 118.082 270.043C118.865 270.679 119.806 271.088 120.805 271.228L261.977 291.148C262.242 291.187 262.51 291.207 262.778 291.207C263.658 291.203 264.524 290.989 265.306 290.584C266.087 290.18 266.761 289.595 267.272 288.879C267.784 288.162 268.117 287.335 268.246 286.464C268.375 285.594 268.296 284.705 268.014 283.871L208.292 107.112C207.921 106.011 207.213 105.054 206.27 104.377C205.326 103.699 204.194 103.334 203.032 103.335L203.038 103.323Z" fill="black"/>
<path d="M203.032 103.335C204.194 103.335 205.326 103.699 206.27 104.377C207.214 105.054 207.921 106.011 208.292 107.112L268.015 283.883C268.296 284.717 268.376 285.606 268.247 286.476C268.118 287.347 267.784 288.174 267.273 288.891C266.761 289.607 266.087 290.192 265.306 290.596C264.525 291.001 263.658 291.215 262.778 291.219C262.51 291.219 262.243 291.199 261.978 291.16L120.805 271.193C119.806 271.053 118.865 270.643 118.082 270.008C117.3 269.372 116.705 268.536 116.363 267.587L85.4673 182.193C83.8601 177.751 83.1506 173.035 83.3796 168.316C83.6086 163.598 84.7717 158.972 86.8016 154.707C88.8314 150.441 91.6875 146.621 95.2045 143.468C98.7216 140.314 102.829 137.89 107.29 136.336L201.206 103.625C201.793 103.422 202.41 103.318 203.032 103.317V103.335ZM203.032 101.538C202.212 101.537 201.398 101.675 200.624 101.947L106.709 134.658C102.026 136.288 97.712 138.833 94.0191 142.143C90.3261 145.453 87.3271 149.463 85.1957 153.941C83.0643 158.419 81.8427 163.276 81.6023 168.229C81.3618 173.183 82.1071 178.135 83.7948 182.798L114.691 268.192C115.147 269.44 115.933 270.541 116.966 271.377C118 272.212 119.24 272.751 120.556 272.936L261.728 292.927C262.076 292.979 262.427 293.005 262.778 293.004C263.939 292.999 265.082 292.719 266.113 292.186C267.144 291.653 268.034 290.882 268.708 289.938C269.393 288.995 269.839 287.902 270.011 286.749C270.182 285.597 270.073 284.421 269.693 283.32L209.976 106.549C209.486 105.094 208.551 103.831 207.304 102.936C206.057 102.041 204.561 101.56 203.026 101.561L203.032 101.538Z" fill="#00446D"/>
<path d="M84.6903 153.403C82.4858 157.751 81.1956 162.504 80.8988 167.37C80.602 172.236 81.3054 177.111 82.9651 181.695L87.217 193.449C89.5238 182.982 106.697 180.147 106.697 180.147C90.3953 159.588 97.5765 143.191 101.218 137.308C94.0797 140.697 88.2672 146.357 84.6903 153.403Z" fill="#008BC4"/>
<path d="M96.9835 141.839C93.8583 149.862 92.1387 163.187 103.602 179.003C99.3082 180.112 91.2549 182.869 87.3766 188.663L84.6368 181.09C82.1048 174.099 81.9419 166.47 84.1729 159.377C86.4039 152.284 90.9054 146.122 96.9835 141.839ZM101.217 137.308C93.1993 141.111 86.8866 147.766 83.5115 155.974C80.1365 164.181 79.9417 173.352 82.9649 181.695L87.2167 193.449C89.5235 182.982 106.697 180.147 106.697 180.147C90.395 159.588 97.5763 143.191 101.217 137.308Z" fill="#00446D"/>
<path d="M87.1572 383.557C86.4097 383.555 85.6705 383.401 84.9844 383.104C84.2983 382.808 83.6799 382.375 83.1665 381.831L20.9535 315.704C17.7239 312.27 15.2082 308.229 13.5518 303.815C11.8954 299.402 11.131 294.703 11.3037 289.992C11.4763 285.281 12.5821 280.651 14.5571 276.37C16.5322 272.09 19.3373 268.244 22.8095 265.055L96.0588 197.796C96.5912 197.305 97.2152 196.925 97.8957 196.677C98.5762 196.43 99.2996 196.32 100.023 196.354C100.746 196.388 101.455 196.566 102.109 196.877C102.763 197.187 103.349 197.624 103.833 198.163L228.745 336.768C229.372 337.463 229.81 338.306 230.018 339.218C230.227 340.13 230.198 341.08 229.935 341.977C229.672 342.875 229.184 343.69 228.517 344.346C227.85 345.002 227.026 345.475 226.124 345.723L88.6044 383.361C88.1332 383.492 87.6462 383.558 87.1572 383.557Z" fill="#151E28"/>
<path d="M99.7588 196.266V196.414C100.516 196.413 101.266 196.57 101.958 196.877C102.651 197.183 103.271 197.632 103.78 198.193L228.692 336.81C229.308 337.496 229.739 338.328 229.943 339.227C230.147 340.126 230.118 341.063 229.859 341.947C229.599 342.832 229.117 343.636 228.459 344.282C227.802 344.928 226.99 345.396 226.101 345.64L88.5865 383.278C88.1212 383.408 87.6403 383.474 87.1573 383.474C86.4199 383.472 85.6908 383.32 85.014 383.027C84.3371 382.734 83.7267 382.307 83.2199 381.772L21.0068 315.639C17.7829 312.213 15.2716 308.181 13.6179 303.776C11.9642 299.372 11.2011 294.683 11.3732 289.981C11.5453 285.28 12.649 280.659 14.6203 276.388C16.5916 272.116 19.3913 268.278 22.8571 265.097L96.0942 197.849C97.0903 196.933 98.3942 196.425 99.7472 196.426V196.266H99.7588ZM99.7472 196.266C98.3572 196.264 97.0173 196.784 95.9934 197.724L22.7441 264.99C19.2638 268.184 16.4528 272.038 14.4732 276.327C12.4937 280.617 11.3855 285.256 11.2128 289.977C11.0402 294.698 11.8064 299.406 13.4673 303.829C15.1282 308.251 17.6504 312.3 20.8881 315.74L83.1133 381.879C83.6327 382.43 84.2594 382.87 84.9549 383.171C85.6504 383.472 86.3995 383.627 87.1573 383.628C87.6525 383.629 88.1459 383.561 88.6224 383.426L226.142 345.788C227.056 345.538 227.891 345.058 228.568 344.394C229.244 343.73 229.739 342.903 230.005 341.994C230.271 341.084 230.3 340.121 230.089 339.197C229.878 338.273 229.434 337.418 228.799 336.715L103.886 198.104C103.363 197.523 102.722 197.059 102.007 196.743C101.291 196.427 100.517 196.267 99.735 196.272L99.7472 196.266Z" fill="black"/>
<path d="M99.7586 196.266C100.541 196.261 101.315 196.421 102.031 196.737C102.746 197.053 103.386 197.517 103.91 198.098L228.822 336.709C229.457 337.413 229.901 338.267 230.113 339.191C230.324 340.115 230.295 341.078 230.029 341.988C229.762 342.897 229.268 343.724 228.591 344.388C227.915 345.052 227.08 345.532 226.165 345.782L88.646 383.421C88.1695 383.555 87.6761 383.623 87.1809 383.622C86.4231 383.621 85.674 383.466 84.9785 383.165C84.283 382.864 83.6563 382.424 83.1369 381.873L20.9001 315.752C17.6625 312.312 15.1397 308.263 13.4787 303.84C11.8178 299.418 11.0516 294.71 11.2243 289.989C11.3969 285.268 12.5051 280.628 14.4847 276.339C16.4642 272.05 19.2759 268.196 22.7562 265.002L96.0048 197.736C97.0287 196.796 98.3687 196.275 99.7586 196.277V196.266ZM99.7586 194.498C97.9229 194.496 96.1537 195.184 94.8014 196.426L21.5522 263.691C17.8997 267.046 14.9496 271.092 12.8724 275.596C10.7952 280.099 9.63251 284.97 9.45159 289.926C9.27066 294.882 10.0751 299.825 11.8184 304.468C13.5617 309.11 16.2088 313.361 19.6069 316.973L81.82 383.1C82.5051 383.829 83.3322 384.41 84.25 384.808C85.1677 385.205 86.1569 385.411 87.1571 385.413C87.8122 385.412 88.4645 385.324 89.0966 385.152L226.61 347.513C227.817 347.182 228.92 346.548 229.813 345.671C230.705 344.794 231.359 343.702 231.711 342.501C232.063 341.3 232.101 340.028 231.823 338.808C231.544 337.587 230.959 336.459 230.121 335.529L105.209 196.918C104.519 196.157 103.679 195.548 102.74 195.132C101.801 194.715 100.786 194.499 99.7586 194.498Z" fill="#00446D"/>
<path d="M8.76716 289.618C8.46826 294.483 9.16849 299.358 10.8248 303.942C12.481 308.526 15.0584 312.723 18.3978 316.274L26.9606 325.376C24.9266 314.85 39.5679 305.439 39.5679 305.439C16.4404 293.033 16.5475 275.13 17.5616 268.287C12.3507 274.228 9.2577 281.73 8.76716 289.618Z" fill="#008BC4"/>
<path d="M15.4444 274.128C15.7587 282.727 19.4531 295.643 36.2531 305.623C32.7544 308.339 26.4565 314.062 25.1874 320.923L19.6667 315.052C14.5732 309.638 11.4007 302.701 10.6378 295.307C9.8748 287.913 11.5637 280.474 15.4444 274.134V274.128ZM17.5379 268.293C11.6839 274.963 8.52574 283.575 8.68035 292.448C8.83496 301.321 12.2914 309.818 18.3741 316.279L26.9369 325.382C24.9029 314.856 39.5442 305.445 39.5442 305.445C16.4167 293.039 16.5238 275.136 17.5379 268.293Z" fill="#00446D"/>
<path d="M59.1601 295.143L48.4177 304.451C45.7347 306.776 45.4444 310.836 47.7693 313.519L57.0779 324.261C59.4029 326.944 63.4627 327.235 66.1458 324.91L76.8881 315.601C79.5712 313.276 79.8612 309.216 77.5363 306.533L68.2277 295.791C65.9028 293.108 61.8431 292.818 59.1601 295.143Z" fill="#008BC4"/>
<path d="M62.0192 327.63C61.8413 327.63 61.6632 327.63 61.4853 327.63C60.5269 327.562 59.5917 327.306 58.7328 326.875C57.8738 326.445 57.1083 325.849 56.4806 325.121L47.1702 314.382C45.902 312.913 45.2678 311.002 45.4068 309.066C45.5457 307.131 46.4465 305.33 47.9114 304.057L58.6511 294.747C59.3776 294.118 60.2205 293.638 61.1326 293.334C62.0447 293.031 63.008 292.91 63.9668 292.979C64.9256 293.048 65.8611 293.305 66.7205 293.735C67.5799 294.166 68.3459 294.762 68.975 295.488L78.3033 306.21C78.9338 306.936 79.415 307.779 79.7193 308.691C80.0236 309.603 80.1449 310.566 80.0766 311.525C80.0083 312.484 79.7519 313.42 79.3214 314.279C78.8909 315.139 78.2949 315.905 77.5679 316.534L66.8288 325.839C65.4975 327.002 63.787 327.639 62.0192 327.63ZM63.4363 294.723C62.1069 294.723 60.8223 295.203 59.8192 296.076L49.0737 305.38C47.9657 306.344 47.2851 307.708 47.1806 309.173C47.0761 310.638 47.556 312.084 48.516 313.196L57.8207 323.935C58.2963 324.486 58.8762 324.938 59.5267 325.265C60.1773 325.592 60.8855 325.787 61.6115 325.839C62.3376 325.891 63.0671 325.8 63.7577 325.57C64.4484 325.34 65.0867 324.976 65.6364 324.499L76.3761 315.188C76.9291 314.715 77.3834 314.138 77.7127 313.489C78.0419 312.84 78.2396 312.132 78.2947 311.406C78.3498 310.681 78.261 309.951 78.0335 309.26C77.806 308.569 77.4444 307.929 76.9691 307.378L67.6587 296.633C67.1836 296.082 66.6041 295.631 65.9537 295.305C65.3034 294.979 64.5951 294.786 63.8695 294.735L63.4363 294.723Z" fill="#00446D"/>
<path d="M94.8687 223.638L38.324 272.635C35.6731 274.932 35.3863 278.943 37.6834 281.594L37.6872 281.599C39.9843 284.25 43.9954 284.537 46.6463 282.239L103.191 233.242C105.842 230.945 106.129 226.934 103.832 224.283L103.828 224.278C101.531 221.627 97.5196 221.34 94.8687 223.638Z" fill="#008BC4"/>
<path d="M42.5629 284.927C41.0862 284.928 39.6442 284.477 38.4309 283.635C37.2177 282.794 36.2907 281.601 35.7745 280.218C35.2583 278.834 35.1776 277.326 35.5429 275.895C35.9082 274.464 36.7025 273.179 37.8188 272.213L94.3565 223.224C95.8092 221.968 97.7006 221.34 99.6161 221.476C101.531 221.613 103.314 222.504 104.574 223.953C105.831 225.405 106.461 227.297 106.324 229.213C106.187 231.129 105.296 232.912 103.845 234.171L47.3006 283.166C45.9849 284.304 44.3029 284.93 42.5629 284.927ZM99.1006 223.254C97.7928 223.256 96.5295 223.73 95.5426 224.588L38.9984 273.577C38.4313 274.039 37.9629 274.611 37.6207 275.258C37.2786 275.904 37.07 276.613 37.0069 277.342C36.9437 278.071 37.0277 278.806 37.2536 279.502C37.4795 280.198 37.8423 280.841 38.3215 281.395C38.8007 281.948 39.3864 282.399 40.0432 282.721C40.7 283.044 41.4147 283.232 42.1453 283.273C42.8759 283.314 43.6072 283.208 44.2962 282.962C44.9851 282.715 45.6178 282.333 46.1563 281.837L102.694 232.849C103.536 232.121 104.136 231.153 104.413 230.075C104.691 228.997 104.632 227.86 104.245 226.816C103.858 225.773 103.161 224.872 102.248 224.235C101.335 223.599 100.249 223.256 99.136 223.254H99.1006Z" fill="#00446D"/>
<path d="M83.2195 292.992C83.0926 292.993 82.9669 292.966 82.8512 292.914C82.7355 292.862 82.6327 292.785 82.5495 292.69C82.4719 292.602 82.4122 292.499 82.3746 292.388C82.337 292.277 82.3223 292.159 82.3306 292.042C82.3389 291.925 82.3704 291.811 82.4233 291.706C82.4762 291.602 82.5489 291.508 82.6381 291.432L128.739 251.487C128.827 251.409 128.93 251.349 129.041 251.311C129.152 251.273 129.269 251.257 129.387 251.264C129.504 251.271 129.619 251.301 129.724 251.353C129.83 251.404 129.924 251.476 130.002 251.564C130.08 251.652 130.14 251.754 130.178 251.866C130.216 251.977 130.232 252.094 130.225 252.212C130.218 252.329 130.188 252.444 130.136 252.549C130.085 252.655 130.013 252.749 129.925 252.827L83.8184 292.778C83.6518 292.921 83.4387 292.997 83.2195 292.992Z" fill="#00446D"/>
<path d="M110.652 324.659C110.525 324.659 110.399 324.631 110.283 324.578C110.168 324.525 110.065 324.447 109.982 324.351C109.905 324.262 109.847 324.16 109.81 324.049C109.772 323.937 109.757 323.82 109.766 323.703C109.774 323.587 109.805 323.472 109.858 323.368C109.91 323.263 109.983 323.17 110.071 323.093L156.178 283.148C156.357 282.991 156.59 282.911 156.827 282.926C157.065 282.941 157.287 283.049 157.444 283.228C157.601 283.406 157.681 283.64 157.666 283.878C157.651 284.115 157.543 284.337 157.364 284.494L111.257 324.439C111.091 324.588 110.875 324.666 110.652 324.659Z" fill="#00446D"/>
<path d="M189.368 128.668L118.477 152.594C115.153 153.716 113.369 157.32 114.49 160.643L114.492 160.649C115.614 163.972 119.217 165.757 122.541 164.635L193.432 140.709C196.756 139.587 198.541 135.984 197.419 132.66L197.417 132.655C196.295 129.331 192.692 127.546 189.368 128.668Z" fill="#008BC4"/>
<path d="M120.52 165.666C118.805 165.661 117.147 165.049 115.841 163.936C114.535 162.824 113.666 161.285 113.388 159.592C113.111 157.899 113.443 156.163 114.325 154.692C115.208 153.221 116.583 152.11 118.207 151.558L189.096 127.636C190.916 127.022 192.905 127.156 194.626 128.008C196.347 128.861 197.659 130.362 198.273 132.182C198.887 134.001 198.754 135.99 197.901 137.711C197.049 139.432 195.547 140.744 193.727 141.358L122.845 165.287C122.096 165.537 121.311 165.665 120.52 165.666ZM191.415 129.03C190.82 129.029 190.229 129.127 189.666 129.32L118.777 153.242C117.404 153.706 116.271 154.697 115.629 155.996C114.986 157.295 114.885 158.796 115.349 160.169C115.813 161.542 116.804 162.674 118.103 163.317C119.402 163.96 120.903 164.06 122.276 163.596L193.158 139.674C194.406 139.275 195.47 138.44 196.154 137.323C196.838 136.205 197.098 134.879 196.887 133.586C196.676 132.293 196.007 131.118 195.003 130.276C193.998 129.435 192.725 128.982 191.415 129V129.03Z" fill="#00446D"/>
<path d="M125.418 197.262C125.233 197.262 125.052 197.205 124.901 197.099C124.749 196.993 124.633 196.843 124.57 196.669C124.533 196.558 124.518 196.441 124.527 196.324C124.535 196.207 124.566 196.093 124.618 195.989C124.67 195.884 124.743 195.791 124.831 195.714C124.92 195.637 125.022 195.579 125.134 195.542L210.214 166.823C210.437 166.744 210.682 166.757 210.896 166.859C211.109 166.962 211.273 167.145 211.352 167.368C211.431 167.591 211.417 167.837 211.315 168.05C211.213 168.264 211.03 168.428 210.807 168.507L125.721 197.226C125.623 197.255 125.521 197.267 125.418 197.262Z" fill="#00446D"/>
<path d="M130.696 211.21C130.486 211.209 130.282 211.134 130.122 210.997C129.961 210.861 129.855 210.672 129.821 210.464C129.786 210.257 129.827 210.043 129.935 209.863C130.044 209.682 130.213 209.546 130.412 209.478L214.726 181.013C214.95 180.935 215.195 180.948 215.408 181.05C215.622 181.153 215.786 181.336 215.865 181.559C215.943 181.782 215.93 182.028 215.828 182.241C215.725 182.455 215.543 182.619 215.319 182.698L131.005 211.162C130.905 211.195 130.801 211.211 130.696 211.21Z" fill="#00446D"/>
<path d="M181.304 214.198C181.094 214.198 180.89 214.123 180.73 213.986C180.57 213.85 180.462 213.661 180.428 213.453C180.394 213.245 180.435 213.032 180.543 212.852C180.651 212.671 180.82 212.535 181.02 212.467L224.482 197.796C224.592 197.757 224.709 197.74 224.826 197.746C224.943 197.753 225.058 197.782 225.164 197.832C225.269 197.883 225.364 197.954 225.442 198.041C225.521 198.129 225.581 198.23 225.62 198.341C225.659 198.452 225.676 198.569 225.669 198.686C225.663 198.803 225.634 198.918 225.583 199.023C225.532 199.129 225.461 199.224 225.374 199.302C225.287 199.38 225.185 199.441 225.075 199.48L181.618 214.151C181.518 214.187 181.411 214.203 181.304 214.198Z" fill="#00446D"/>
<path d="M55.0278 312.271L65.3818 315.604L63.3717 300.873" fill="#008BC4"/>
<path d="M65.382 316.493C65.2894 316.494 65.1974 316.48 65.1092 316.451L54.7552 313.113C54.5438 313.031 54.372 312.871 54.2746 312.666C54.1772 312.461 54.1614 312.226 54.2311 312.011C54.3008 311.795 54.4504 311.614 54.6493 311.504C54.8481 311.395 55.0811 311.366 55.3008 311.423L64.3147 314.323L62.4881 300.997C62.4578 300.763 62.5209 300.527 62.6642 300.339C62.8075 300.151 63.0193 300.028 63.2532 299.995C63.3689 299.979 63.4868 299.985 63.6 300.014C63.7133 300.044 63.8195 300.095 63.9128 300.166C64.006 300.236 64.0845 300.325 64.1433 300.426C64.2021 300.527 64.2397 300.639 64.255 300.755L66.2657 315.485C66.286 315.634 66.2681 315.785 66.2142 315.925C66.1603 316.065 66.0718 316.189 65.957 316.286C65.7953 316.42 65.592 316.493 65.382 316.493Z" fill="#00446D"/>
<path d="M82.0396 344.264L91.8718 345.1L90.6741 331.769" fill="#008BC4"/>
<path d="M91.8715 345.99H91.8003L81.9623 345.159C81.7264 345.139 81.5083 345.026 81.356 344.844C81.2036 344.663 81.1294 344.429 81.1498 344.193C81.1703 343.957 81.2836 343.739 81.4649 343.586C81.6461 343.434 81.8804 343.36 82.1164 343.38L90.8934 344.122L89.7902 331.846C89.7797 331.729 89.7923 331.612 89.8273 331.5C89.8623 331.388 89.9189 331.284 89.994 331.194C90.1459 331.012 90.3639 330.898 90.5998 330.877C90.8357 330.855 91.0701 330.929 91.2519 331.08C91.4337 331.232 91.548 331.45 91.5692 331.686L92.7553 345.017C92.7659 345.14 92.7511 345.265 92.7113 345.382C92.6714 345.499 92.6072 345.607 92.5236 345.698C92.44 345.79 92.3387 345.863 92.2254 345.913C92.1121 345.963 91.9896 345.989 91.8657 345.99H91.8715Z" fill="#00446D"/>
<path d="M15.3076 322.458C15.0871 322.457 14.8754 322.372 14.7146 322.221C-0.1997 308.321 -0.477883 292.642 1.91789 281.932C3.55778 274.757 6.55474 267.961 10.7476 261.912C10.8884 261.722 11.0984 261.597 11.332 261.562C11.5655 261.528 11.8032 261.587 11.9927 261.728C12.1823 261.869 12.308 262.079 12.3425 262.313C12.377 262.546 12.3177 262.784 12.1769 262.973C8.14339 268.85 5.24842 275.432 3.64307 282.377C0.328128 297.267 4.4614 310.248 15.9243 320.923C16.01 321.002 16.0794 321.098 16.1282 321.204C16.1769 321.31 16.2043 321.425 16.2087 321.541C16.2131 321.658 16.1943 321.775 16.1537 321.884C16.1131 321.994 16.0513 322.094 15.9718 322.18C15.886 322.269 15.7832 322.34 15.669 322.388C15.5547 322.436 15.4315 322.46 15.3076 322.458Z" fill="#00446D"/>
<path d="M147.058 112.301C146.845 112.302 146.639 112.226 146.477 112.089C146.315 111.951 146.207 111.759 146.174 111.549C146.141 111.339 146.185 111.124 146.297 110.943C146.409 110.762 146.582 110.627 146.785 110.563L189.843 96.4257C190.064 96.3626 190.302 96.3877 190.505 96.4958C190.708 96.6038 190.862 96.7865 190.933 97.0053C191.004 97.2241 190.988 97.462 190.888 97.6691C190.788 97.8762 190.61 98.0363 190.394 98.1159L147.336 112.253C147.247 112.287 147.153 112.303 147.058 112.301Z" fill="#00446D"/>
<path d="M357.221 392.909C357.221 392.909 391.118 417.922 416.262 407.989C441.406 398.056 372.645 354.351 357.221 392.909Z" fill="#76C0E5"/>
<path d="M403.121 411.233C380.859 411.233 357.856 394.48 356.694 393.626L356.136 393.217L356.397 392.576C361.23 380.491 371.892 374.869 386.403 376.737C403.114 378.896 421.391 390.916 422.577 400.564C422.897 403.126 422.12 406.631 416.599 408.813C412.3 410.464 407.726 411.285 403.121 411.233ZM358.312 392.594C362.819 395.749 393.3 416.107 415.935 407.158C419.493 405.747 421.154 403.6 420.804 400.784C419.808 392.802 403.304 380.71 386.178 378.504C378.368 377.502 364.527 378.03 358.312 392.594Z" fill="#00446D"/>
<path d="M232.861 198.916C232.861 198.916 229.303 220.959 214.003 214.957C198.703 208.956 166.141 195.815 154.986 218.349C143.831 240.884 145.86 245.782 128.3 243.849C110.741 241.916 76.317 269.129 111.251 304.336C146.186 339.543 261.545 224.303 261.545 224.303L260.359 210.51L232.861 198.916Z" fill="#00446D"/>
<path d="M128.911 311.903H128.822C121.291 311.903 115.183 309.531 110.605 304.947C91.1359 285.33 94.4449 269.538 98.1513 261.871C104.259 249.227 118.717 241.88 128.395 242.959C142.034 244.478 143.114 242.094 149.091 228.863C150.503 225.738 152.104 222.198 154.197 217.976C165.577 194.991 198.11 207.776 213.748 213.92L214.341 214.151C217.798 215.509 220.864 215.438 223.514 213.937C230.038 210.213 231.977 198.904 231.994 198.792L232.172 197.677L261.23 209.917L262.499 224.653L262.209 224.95C246.538 240.266 230.094 254.77 212.941 268.406C176.364 297.25 148.107 311.903 128.911 311.903ZM126.396 244.632C117.412 244.632 105.161 251.445 99.7525 262.647C93.7097 275.154 98.0089 289.73 111.868 303.696C116.084 307.942 121.789 310.106 128.822 310.124H128.905C172.515 310.124 255.033 229.474 260.625 223.983L259.516 211.138L233.524 200.18C232.848 203.287 230.458 212.04 224.386 215.485C221.267 217.264 217.667 217.371 213.712 215.805L213.119 215.574C197.979 209.644 166.466 197.244 155.816 218.764C153.735 222.963 152.145 226.474 150.74 229.593C144.757 242.829 143.149 246.393 128.206 244.727C127.605 244.655 127.001 244.618 126.396 244.614V244.632Z" fill="#00446D"/>
<path d="M288.776 228.288C432.415 275.29 357.221 342.147 368.987 473.796L141.916 477.099C141.916 477.099 109.14 326.728 240.249 232.878" fill="#76C0E5"/>
<path d="M141.205 478L141.05 477.294C140.967 476.915 132.914 438.962 141.05 390.033C145.83 361.289 155.164 334.426 168.809 310.189C185.864 279.892 209.727 253.634 239.746 232.155L240.789 233.625C173.34 281.903 150.289 345.462 142.829 390.282C135.351 435.22 141.614 470.813 142.669 476.227L368.014 472.948C364.551 432.901 369.034 399.278 372.989 369.586C377.479 335.902 381.025 309.3 371.21 286.564C360.613 262.096 335.114 244.383 288.521 229.136L289.072 227.446C336.193 242.865 362.013 260.88 372.848 285.852C382.881 309.021 379.305 335.837 374.781 369.793C370.801 399.634 366.294 433.453 369.894 473.724L369.977 474.673L141.205 478Z" fill="#00446D"/>
<path d="M252.46 230.31C252.46 230.31 177.266 241.234 132.92 275.296C95.6018 303.963 86.3152 318.877 64.7948 357.446C46.8028 389.694 48.3153 440.296 91.8603 448.177C135.405 456.059 171.596 458.46 173.79 434.443L187.068 431.775L185.93 377.443L178.144 377.651" fill="#76C0E5"/>
<path d="M139.206 454.528C124.891 454.528 107.918 451.985 91.6996 449.049C76.1923 446.244 64.6821 437.74 58.408 424.463C49.6255 405.878 51.8849 378.765 64.0179 357.008C85.7162 318.118 95.1216 303.21 132.381 274.579C176.4 240.777 251.576 229.51 252.335 229.415L252.59 231.194C251.837 231.307 177.111 242.461 133.465 276.008C96.4791 304.413 87.1395 319.227 65.5717 357.885C53.7114 379.163 51.4697 405.617 60.0151 423.71C66.0341 436.448 77.0998 444.602 92.0378 447.306C121.374 452.643 153.118 456.675 166.413 446.582C170.321 443.617 172.45 439.614 172.937 434.36L172.996 433.702L186.19 431.051L185.088 378.356L178.197 378.54L178.149 376.761L186.825 376.541L188.011 432.51L174.65 435.19C174.01 440.581 171.608 444.886 167.534 448.005C161.195 452.767 151.12 454.528 139.206 454.528Z" fill="#00446D"/>
<path d="M177.177 378.504C177.177 378.504 161.759 398.934 172.812 432.89L185.859 430.707L184.673 378.451L177.177 378.504Z" fill="#76C0E5"/>
<path d="M208.867 270.149C211.749 270.149 214.086 267.807 214.086 264.919C214.086 262.03 211.749 259.688 208.867 259.688C205.985 259.688 203.649 262.03 203.649 264.919C203.649 267.807 205.985 270.149 208.867 270.149Z" fill="white"/>
<path d="M142.13 326.705C145.012 326.705 147.348 324.363 147.348 321.474C147.348 318.586 145.012 316.244 142.13 316.244C139.247 316.244 136.911 318.586 136.911 321.474C136.911 324.363 139.247 326.705 142.13 326.705Z" fill="white"/>
<path d="M222.981 328.638C225.863 328.638 228.199 326.296 228.199 323.408C228.199 320.519 225.863 318.177 222.981 318.177C220.099 318.177 217.762 320.519 217.762 323.408C217.762 326.296 220.099 328.638 222.981 328.638Z" fill="white"/>
<path d="M287.791 304.212C290.673 304.212 293.01 301.87 293.01 298.981C293.01 296.093 290.673 293.751 287.791 293.751C284.909 293.751 282.573 296.093 282.573 298.981C282.573 301.87 284.909 304.212 287.791 304.212Z" fill="white"/>
<path d="M93.3067 420.537C96.1888 420.537 98.5251 418.195 98.5251 415.307C98.5251 412.418 96.1888 410.076 93.3067 410.076C90.4245 410.076 88.0883 412.418 88.0883 415.307C88.0883 418.195 90.4245 420.537 93.3067 420.537Z" fill="white"/>
<path d="M136.97 385.834C139.852 385.834 142.189 383.492 142.189 380.604C142.189 377.715 139.852 375.373 136.97 375.373C134.088 375.373 131.752 377.715 131.752 380.604C131.752 383.492 134.088 385.834 136.97 385.834Z" fill="white"/>
<path d="M147.2 437.895C150.082 437.895 152.419 435.553 152.419 432.664C152.419 429.776 150.082 427.434 147.2 427.434C144.317 427.434 141.981 429.776 141.981 432.664C141.981 435.553 144.317 437.895 147.2 437.895Z" fill="white"/>
<path d="M348.107 462.955C350.989 462.955 353.325 460.614 353.325 457.725C353.325 454.836 350.989 452.495 348.107 452.495C345.224 452.495 342.888 454.836 342.888 457.725C342.888 460.614 345.224 462.955 348.107 462.955Z" fill="white"/>
<path d="M75.3385 381.594L74.5857 379.981C74.9534 379.809 111.655 362.861 138.512 360.619C165.732 358.354 179.264 377.146 179.401 377.336L177.941 378.362C177.817 378.178 164.824 360.21 138.661 362.392C112.106 364.61 75.7003 381.422 75.3385 381.594Z" fill="#00446D"/>
<path d="M165.055 313.86C165.055 313.86 147.976 337.776 147.2 361.485L165.055 313.86Z" fill="#76C0E5"/>
<path d="M148.083 361.515L146.304 361.455C147.081 337.735 164.154 313.581 164.326 313.344L165.773 314.376C165.613 314.613 148.872 338.352 148.083 361.515Z" fill="#00446D"/>
<path d="M247.312 231.591C247.312 231.591 234.705 248.077 254.381 253.444C268.524 257.304 272.379 247.662 272.379 247.662C272.379 247.662 280.041 257.15 294.872 250.23C304.515 245.735 297.446 232.238 297.446 232.238C276.625 226.972 268.548 226.758 247.312 231.591Z" fill="#D6EFFC"/>
<path d="M260.59 255.241C258.413 255.215 256.249 254.9 254.156 254.304C248.107 252.655 244.359 249.791 243.007 245.794C240.682 238.921 246.37 231.372 246.613 231.052L246.808 230.797L247.122 230.726C268.346 225.887 276.382 225.981 297.665 231.372L298.05 231.473L298.24 231.823C298.406 232.143 302.273 239.644 300.262 245.604C299.856 246.81 299.201 247.917 298.339 248.853C297.476 249.789 296.426 250.533 295.257 251.036C282.839 256.836 275.095 251.422 272.592 249.133C271.3 251.173 267.812 255.241 260.59 255.241ZM247.846 232.386C246.921 233.702 242.888 239.899 244.691 245.231C245.877 248.629 249.186 251.107 254.624 252.59C256.587 253.149 258.615 253.444 260.655 253.468C268.957 253.468 271.436 247.626 271.56 247.33L272.153 245.93L273.102 247.116C273.399 247.478 280.539 255.964 294.528 249.435C295.477 249.03 296.33 248.43 297.032 247.674C297.734 246.918 298.269 246.023 298.602 245.047C300.144 240.469 297.564 234.503 296.858 233.009C276.299 227.832 268.341 227.737 247.846 232.386Z" fill="#00446D"/>
<path d="M253.883 198.045C253.883 198.045 256.557 221.006 248.605 232.232C248.605 232.232 273.672 257.939 292.31 230.945C292.31 230.945 274.425 203.998 277.823 196.165C281.221 188.331 253.883 198.045 253.883 198.045Z" fill="#FFFAF7"/>
<path d="M272.035 244.181C259.161 244.181 248.439 233.341 247.971 232.86L247.449 232.327L247.882 231.734C255.543 220.923 253.029 198.394 252.999 198.163L252.922 197.463L253.586 197.226C257.144 195.957 275.077 189.826 278.386 193.366C278.896 193.911 279.353 194.902 278.641 196.538C276.008 202.599 288.129 223.088 293.051 230.471L293.384 230.975L293.04 231.467C287.673 239.241 281.244 243.499 273.927 244.116C273.292 244.157 272.664 244.181 272.035 244.181ZM249.761 232.119C252.133 234.355 262.475 243.286 273.784 242.331C280.39 241.767 286.237 237.937 291.231 230.939C288.295 226.45 273.671 203.5 276.998 195.815C277.259 195.222 277.283 194.795 277.076 194.569C275.297 192.642 263.217 195.756 254.831 198.655C255.229 202.623 256.634 221.581 249.761 232.119Z" fill="#00446D"/>
<path d="M257.637 138.939C271.363 138.939 282.49 127.793 282.49 114.044C282.49 100.295 271.363 89.1498 257.637 89.1498C243.911 89.1498 232.783 100.295 232.783 114.044C232.783 127.793 243.911 138.939 257.637 138.939Z" fill="#00446D"/>
<path d="M257.589 139.828C251.197 139.81 245.04 137.416 240.314 133.113C235.587 128.809 232.629 122.903 232.013 116.541C231.527 111.474 232.553 106.377 234.963 101.893C237.373 97.4099 241.059 93.7417 245.553 91.3522C250.047 88.9626 255.149 87.9591 260.213 88.4685C265.278 88.9778 270.078 90.9771 274.007 94.2137C277.935 97.4503 280.816 101.779 282.285 106.652C283.754 111.526 283.745 116.726 282.26 121.594C280.774 126.463 277.879 130.782 273.939 134.005C270 137.228 265.194 139.212 260.128 139.704C259.28 139.787 258.431 139.828 257.589 139.828ZM257.679 90.0154C256.896 90.0154 256.107 90.0569 255.306 90.134C250.586 90.604 246.111 92.4611 242.445 95.4711C238.779 98.4812 236.087 102.509 234.707 107.048C233.328 111.586 233.323 116.431 234.693 120.972C236.064 125.513 238.749 129.547 242.408 132.564C244.833 134.571 247.632 136.077 250.643 136.993C253.655 137.909 256.818 138.218 259.949 137.901C266.082 137.305 271.751 134.374 275.782 129.714C279.813 125.054 281.898 119.023 281.605 112.869C281.313 106.714 278.664 100.908 274.209 96.6518C269.754 92.3955 263.833 90.0152 257.672 90.0035L257.679 90.0154Z" fill="#00446D"/>
<path d="M283.356 121.765C271.495 104.734 244.021 111.34 237.777 119.986C222.269 141.394 204.165 133.78 203.174 155.194C202.682 165.945 212.473 169.064 210.089 188.906C208.862 199.142 227.316 212.811 242.603 211.316C257.891 209.822 293.176 220.508 310.439 200.102C318.237 190.881 330.316 163.336 314.186 143.304C297.878 123.034 288.503 129.148 283.356 121.765Z" fill="#00446D"/>
<path d="M275.083 213.576C269.117 213.576 263.223 213.089 258.004 212.657C253.42 212.277 249.483 211.951 246.103 211.951C244.81 211.951 243.689 211.998 242.681 212.099C241.881 212.176 241.056 212.218 240.226 212.218C230.239 212.218 220.288 206.614 214.856 201.063C210.806 196.912 208.826 192.559 209.282 188.782C210.664 177.277 207.895 171.585 205.452 166.526C203.756 163.027 202.149 159.724 202.362 155.128C202.955 142.782 209.081 139.657 216.867 135.701C223.171 132.493 230.322 128.864 237.118 119.476C240.89 114.27 251.137 110.344 260.946 110.344H261.283C271.092 110.439 279.163 114.329 284.026 121.297C285.805 123.894 288.218 124.683 291.516 125.762C297.031 127.583 304.562 130.068 314.821 142.764C331.307 163.223 319.144 191.047 311.061 200.601C303.571 209.454 292.138 213.576 275.083 213.576ZM246.126 210.32C249.578 210.32 253.545 210.652 258.146 211.032C263.312 211.459 269.153 211.945 275.054 211.945C291.658 211.945 302.682 208.001 309.84 199.545C313.789 194.878 318.616 185.657 320.514 175.576C322.127 166.995 322.228 154.518 313.581 143.784C303.654 131.467 296.384 129.065 291.047 127.316C287.584 126.177 284.85 125.276 282.745 122.234C278.196 115.711 270.594 112.064 261.331 111.975H260.952C250.71 111.975 241.471 116.28 238.459 120.437C231.426 130.139 223.776 134.029 217.626 137.154C210.024 141.015 204.533 143.808 203.987 155.2C203.791 159.38 205.238 162.363 206.91 165.814C209.454 171.057 212.33 176.999 210.895 188.978C210.498 192.257 212.319 196.141 216.019 199.925C221.208 205.232 230.702 210.599 240.19 210.599C240.967 210.6 241.742 210.563 242.515 210.486C243.582 210.373 244.756 210.32 246.126 210.32Z" fill="#151E28"/>
<path d="M260.952 110.421H261.29C271.069 110.51 279.128 114.388 283.973 121.338C285.799 123.96 288.189 124.748 291.498 125.834C297.007 127.648 304.544 130.133 314.768 142.806C331.224 163.235 319.079 191.012 311.014 200.553C303.536 209.389 292.12 213.505 275.089 213.505C269.123 213.505 263.229 213.018 257.992 212.585C253.432 212.206 249.494 211.88 246.132 211.88C244.839 211.88 243.713 211.927 242.705 212.028C241.904 212.105 241.08 212.141 240.255 212.141C230.287 212.141 220.36 206.554 214.94 201.01C210.907 196.888 208.933 192.547 209.383 188.794C210.765 177.265 207.996 171.543 205.547 166.496C203.857 163.004 202.255 159.706 202.469 155.128C203.062 142.829 209.164 139.71 216.932 135.766C223.242 132.558 230.4 128.917 237.207 119.524C240.967 114.335 251.185 110.421 260.975 110.421H260.952ZM240.22 210.64C241.009 210.64 241.792 210.599 242.557 210.528C243.739 210.417 244.927 210.365 246.115 210.373C249.56 210.373 253.533 210.7 258.135 211.085C263.294 211.512 269.135 211.992 275.041 211.992C291.646 211.992 302.711 208.049 309.887 199.569C313.836 194.896 318.675 185.663 320.561 175.564C322.168 166.971 322.275 154.47 313.605 143.713C303.666 131.378 296.36 128.977 291.029 127.221C287.578 126.089 284.856 125.187 282.727 122.163C278.161 115.64 270.535 111.963 261.248 111.88H260.952C250.687 111.88 241.424 116.197 238.417 120.366C231.396 130.056 223.752 133.94 217.608 137.065C209.988 140.938 204.479 143.737 203.969 155.176C203.779 159.374 205.226 162.363 206.934 165.85C209.472 171.08 212.343 177.011 210.907 188.978C210.516 192.281 212.342 196.189 216.055 199.984C221.255 205.321 230.767 210.658 240.279 210.658L240.22 210.64ZM260.952 110.279C251.096 110.279 240.872 114.187 237.065 119.441C230.275 128.81 223.135 132.44 216.838 135.642C209.034 139.609 202.866 142.758 202.297 155.128C202.083 159.742 203.69 163.057 205.386 166.568C207.829 171.596 210.593 177.295 209.211 188.782C208.755 192.583 210.747 196.965 214.81 201.122C220.283 206.715 230.299 212.295 240.231 212.295C241.056 212.295 241.874 212.259 242.693 212.182C243.828 212.076 244.968 212.026 246.108 212.034C249.489 212.034 253.521 212.366 257.998 212.74C263.252 213.173 269.117 213.659 275.089 213.659C288.343 213.659 302.142 211.287 311.127 200.654C319.215 191.089 331.396 163.217 314.88 142.723C304.639 130.008 297.09 127.518 291.545 125.703C288.26 124.618 285.888 123.841 284.091 121.261C279.216 114.27 271.122 110.368 261.296 110.279H260.952ZM240.196 210.498C230.797 210.498 221.285 205.161 216.078 199.824C212.396 196.058 210.581 192.192 210.972 188.936C212.413 176.933 209.532 170.986 206.982 165.737C205.315 162.292 203.874 159.321 204.064 155.158C204.592 143.808 210.065 141.021 217.638 137.172C223.799 134.041 231.461 130.145 238.5 120.431C241.524 116.28 250.704 112.004 260.934 112.004H261.272C270.505 112.087 278.09 115.717 282.62 122.228C284.755 125.294 287.501 126.195 290.976 127.34C296.313 129.119 303.571 131.491 313.51 143.784C322.139 154.494 322.038 166.953 320.431 175.516C318.539 185.597 313.718 194.789 309.756 199.45C301.223 209.531 287.892 211.82 275.024 211.82C269.13 211.82 263.33 211.34 258.129 210.913C253.616 210.539 249.554 210.201 246.097 210.201C244.816 210.201 243.618 210.249 242.539 210.356C241.768 210.433 240.997 210.468 240.22 210.468L240.196 210.498Z" fill="black"/>
<path d="M271.626 164.729C259.232 168.103 242.016 163.543 239.366 168.186C236.715 172.83 239.253 178.724 246.132 179.833C253.011 180.942 259.741 180.355 273.488 178.493C287.234 176.631 300.553 173.784 298.566 166.484C296.579 159.185 289.861 159.76 271.626 164.729Z" fill="#D6EFFC"/>
<path d="M260.797 129.083C257.832 149.174 238.951 160.092 228.288 162.126C226.509 168.341 228.502 176.293 229.184 183.32C231.692 209.134 247.567 226.438 272.136 222.334C296.117 218.332 307.456 203.257 304.408 174.852C303.69 168.145 303.305 161.462 300.583 155.875C280.064 157.815 260.797 129.083 260.797 129.083Z" fill="#FFFAF7"/>
<path d="M265.168 223.817C257.394 223.817 250.343 221.54 244.567 217.086C235.512 210.142 229.742 198.181 228.301 183.409C228.129 181.666 227.873 179.815 227.624 178.03C226.847 172.468 226.047 166.722 227.429 161.883L227.583 161.355L228.122 161.254C239.656 159.054 257.18 147.573 259.92 128.953L260.258 126.675L261.539 128.585C261.723 128.858 279.56 155.105 298.62 155.105C299.213 155.105 299.871 155.075 300.5 155.016L301.093 154.956L301.366 155.508C303.833 160.548 304.414 166.283 305.03 172.355C305.108 173.156 305.191 173.956 305.274 174.757C306.798 188.942 304.728 200.209 299.118 208.25C293.639 216.12 284.601 221.154 272.266 223.212C269.921 223.607 267.547 223.81 265.168 223.817ZM228.994 162.891C227.909 167.273 228.65 172.61 229.374 177.781C229.623 179.59 229.884 181.458 230.056 183.237C231.444 197.517 236.976 209.039 245.634 215.675C252.75 221.142 261.877 223.141 271.976 221.457C296.123 217.424 306.436 202.213 303.512 174.947L303.263 172.539C302.67 166.852 302.143 161.468 300.032 156.836C299.545 156.836 299.053 156.884 298.573 156.884C281.34 156.884 265.743 137.415 261.29 131.331C257.394 150.23 239.882 160.584 229.006 162.891H228.994Z" fill="#00446D"/>
<path d="M269.253 166.514C254.511 170.665 233.922 165.441 230.808 171.015C227.695 176.589 230.808 183.587 239.016 184.826C247.223 186.066 255.258 185.295 271.631 182.911C288.004 180.527 303.862 176.981 301.413 168.293C298.964 159.605 290.91 160.376 269.253 166.514Z" fill="#D6EFFC"/>
<path d="M266.911 189.914C266.69 189.915 266.476 189.833 266.313 189.683C266.149 189.534 266.047 189.329 266.028 189.108L264.053 168.839C264.042 168.722 264.054 168.604 264.088 168.492C264.122 168.38 264.178 168.275 264.253 168.185C264.327 168.094 264.419 168.019 264.523 167.964C264.627 167.909 264.74 167.874 264.857 167.863C264.973 167.852 265.091 167.864 265.204 167.898C265.316 167.932 265.42 167.988 265.511 168.063C265.602 168.138 265.677 168.229 265.732 168.333C265.787 168.436 265.821 168.55 265.832 168.667L267.801 188.936C267.812 189.052 267.801 189.17 267.767 189.282C267.733 189.394 267.677 189.498 267.602 189.588C267.528 189.679 267.437 189.753 267.334 189.808C267.23 189.863 267.117 189.897 267.001 189.908L266.911 189.914Z" fill="#00446D"/>
<path d="M239.787 109.045C239.628 109.045 239.47 109.021 239.318 108.974C238.946 108.85 238.638 108.582 238.462 108.231C238.287 107.88 238.258 107.473 238.382 107.1C238.536 106.62 242.444 95.299 256.302 93.0159C256.498 92.9758 256.699 92.9757 256.895 93.0154C257.091 93.0551 257.277 93.1338 257.441 93.247C257.605 93.3602 257.745 93.5054 257.852 93.674C257.959 93.8425 258.031 94.0309 258.063 94.2279C258.095 94.4249 258.088 94.6264 258.04 94.8203C257.993 95.0142 257.907 95.1966 257.787 95.3564C257.668 95.5163 257.517 95.6503 257.344 95.7505C257.172 95.8507 256.981 95.915 256.783 95.9396C244.738 97.9262 241.329 107.628 241.192 108.037C241.092 108.33 240.903 108.585 240.651 108.766C240.399 108.947 240.097 109.044 239.787 109.045Z" fill="white"/>
<path d="M239.081 167.066C238.896 167.066 238.715 167.008 238.565 166.9C238.47 166.832 238.388 166.747 238.326 166.648C238.264 166.549 238.222 166.438 238.203 166.323C238.183 166.208 238.187 166.09 238.214 165.976C238.24 165.862 238.29 165.755 238.358 165.66C238.678 165.215 246.263 154.855 256.326 157.21C256.556 157.264 256.754 157.407 256.878 157.608C257.002 157.809 257.042 158.051 256.987 158.28C256.933 158.51 256.79 158.708 256.589 158.832C256.388 158.956 256.146 158.996 255.917 158.941C247.021 156.86 239.876 166.603 239.805 166.698C239.722 166.813 239.614 166.906 239.488 166.97C239.362 167.034 239.223 167.067 239.081 167.066Z" fill="#00446D"/>
<path d="M285.597 158.348C285.394 158.348 285.198 158.279 285.04 158.153C277.099 151.718 270.001 155.781 269.704 155.976C269.501 156.097 269.259 156.133 269.029 156.075C268.8 156.017 268.604 155.871 268.483 155.668C268.362 155.465 268.326 155.222 268.384 154.993C268.442 154.764 268.588 154.567 268.791 154.446C268.874 154.399 277.229 149.536 286.16 156.771C286.304 156.889 286.408 157.049 286.456 157.228C286.504 157.408 286.495 157.598 286.43 157.772C286.364 157.946 286.246 158.096 286.091 158.199C285.937 158.302 285.753 158.354 285.567 158.348H285.597Z" fill="#00446D"/>
<path d="M259.854 180.746C259.729 180.747 259.605 180.721 259.49 180.67C259.376 180.619 259.273 180.544 259.19 180.45C254.588 175.279 245.604 180.331 245.515 180.379C245.311 180.497 245.068 180.529 244.84 180.467C244.612 180.406 244.417 180.257 244.299 180.052C244.181 179.848 244.15 179.605 244.211 179.377C244.272 179.149 244.421 178.955 244.625 178.837C245.047 178.6 254.956 173.014 260.518 179.264C260.596 179.351 260.655 179.453 260.694 179.564C260.732 179.675 260.748 179.792 260.741 179.908C260.733 180.025 260.703 180.139 260.652 180.245C260.601 180.35 260.529 180.444 260.441 180.521C260.281 180.668 260.072 180.748 259.854 180.746Z" fill="#00446D"/>
<path d="M272.385 178.475C272.149 178.474 271.923 178.381 271.756 178.214C271.673 178.132 271.607 178.034 271.562 177.926C271.517 177.818 271.494 177.703 271.494 177.586C271.494 177.469 271.517 177.353 271.562 177.245C271.607 177.137 271.673 177.039 271.756 176.957C271.833 176.88 279.359 169.509 288.799 173.553C289.016 173.646 289.188 173.821 289.275 174.04C289.363 174.259 289.361 174.504 289.268 174.721C289.175 174.938 289 175.11 288.781 175.197C288.562 175.285 288.317 175.283 288.1 175.19C279.798 171.632 273.274 177.941 273.013 178.214C272.846 178.381 272.621 178.474 272.385 178.475Z" fill="#00446D"/>
<path d="M345.106 387.916C332.902 364.266 313.232 325.857 316.126 306.311C319.02 286.765 333.056 285.229 333.056 285.229L332.267 270.268L382.549 256.397L385.271 266.128C385.271 266.128 418.005 264.503 422.423 310.871C426.9 357.915 457.381 420.484 390.401 429.231C370.452 431.84 351.38 400.072 345.106 387.916Z" fill="#76C0E5"/>
<path d="M388.094 430.268C367.072 430.268 348.036 395.53 344.318 388.325C332.333 365.102 312.295 326.236 315.26 306.181C317.81 288.983 328.982 285.223 332.137 284.5L331.39 270.315C331.38 270.113 331.439 269.914 331.558 269.75C331.677 269.586 331.847 269.467 332.042 269.414L382.324 255.537C382.551 255.475 382.793 255.506 382.998 255.623C383.202 255.74 383.352 255.933 383.415 256.16L385.959 265.233C391.882 265.446 397.645 267.213 402.67 270.357C410.812 275.379 421.006 286.469 423.319 310.788C424.25 320.573 426.355 331.259 428.395 341.589C433.566 367.842 438.921 394.961 426.432 412.365C419.464 422.061 407.723 427.867 390.543 430.114C389.731 430.219 388.913 430.271 388.094 430.268ZM345.901 387.506C349.666 394.8 369.515 431.063 390.3 428.347C406.969 426.171 418.308 420.602 424.973 411.328C437.011 394.581 431.739 367.818 426.633 341.945C424.593 331.573 422.483 320.84 421.534 310.966C419.755 292.345 412.941 278.849 401.81 271.934C396.867 268.813 391.158 267.116 385.312 267.03C385.112 267.039 384.915 266.98 384.752 266.862C384.59 266.745 384.472 266.576 384.417 266.383L381.932 257.488L333.193 270.938L333.94 285.17C333.955 285.397 333.881 285.621 333.734 285.795C333.586 285.969 333.378 286.078 333.151 286.101C332.605 286.166 319.761 287.845 317.009 306.43C314.121 325.928 334.011 364.474 345.901 387.506Z" fill="#00446D"/>
<path d="M334.194 286.03C334.194 286.03 366.745 292.624 384.417 266.81L382.003 257.15L333.56 271.033L334.194 286.03Z" fill="#76C0E5"/>
<path d="M387.215 410.841C389.972 409.977 391.508 407.048 390.646 404.297C389.784 401.547 386.851 400.018 384.094 400.882C381.338 401.746 379.802 404.675 380.664 407.425C381.526 410.176 384.459 411.705 387.215 410.841Z" fill="white"/>
<path d="M402.818 359.546C405.574 358.682 407.11 355.752 406.248 353.002C405.386 350.252 402.453 348.722 399.697 349.586C396.94 350.45 395.404 353.38 396.266 356.13C397.128 358.88 400.061 360.41 402.818 359.546Z" fill="white"/>
<path d="M396.035 306.798C398.792 305.934 400.328 303.005 399.466 300.254C398.604 297.504 395.671 295.975 392.914 296.839C390.158 297.703 388.622 300.632 389.484 303.383C390.345 306.133 393.279 307.662 396.035 306.798Z" fill="white"/>
<path d="M346.033 322.787C348.789 321.923 350.325 318.993 349.463 316.243C348.602 313.493 345.668 311.963 342.912 312.827C340.155 313.691 338.62 316.621 339.482 319.371C340.343 322.121 343.276 323.651 346.033 322.787Z" fill="white"/>
<path d="M271.329 205.961C269.345 205.971 267.379 205.567 265.559 204.775C265.36 204.663 265.212 204.479 265.146 204.261C265.079 204.042 265.099 203.807 265.201 203.603C265.303 203.398 265.479 203.241 265.694 203.164C265.909 203.086 266.145 203.094 266.354 203.186C266.757 203.382 275.972 207.776 281.891 197.125C281.943 197.016 282.017 196.918 282.108 196.838C282.2 196.758 282.307 196.698 282.422 196.661C282.538 196.624 282.66 196.611 282.781 196.623C282.902 196.635 283.019 196.671 283.125 196.73C283.231 196.789 283.324 196.869 283.398 196.965C283.472 197.061 283.526 197.171 283.556 197.288C283.586 197.406 283.592 197.529 283.572 197.648C283.553 197.768 283.51 197.883 283.444 197.985C279.851 204.437 275.054 205.961 271.329 205.961Z" fill="#00446D"/>
<path d="M375.895 257.802C375.895 257.802 372.112 251.392 373.404 247.65C374.697 243.908 384.298 229.539 386.599 219.138C388.835 209.021 381.262 205.564 370.463 218.586C370.463 218.586 373.76 202.978 363.228 204.354C363.228 204.354 362.19 196.461 355.27 187.999C349.34 180.734 341.903 187.999 345.556 195.53C348.616 201.822 349.838 204.336 350.188 206.969C350.188 206.969 340.154 208.748 346.464 215.936C346.464 215.936 348.243 222.838 343.001 223.532C337.759 224.226 343.665 208.274 340.338 203.37C337.011 198.465 328.478 201.365 326.052 216.855C323.627 232.344 321.433 239.336 326.325 249.399C329.978 256.907 334.111 270.517 334.111 270.517L375.895 257.802Z" fill="#FFFAF7"/>
<path d="M334.112 271.406C333.966 271.406 333.821 271.371 333.691 271.305C333.588 271.25 333.496 271.175 333.422 271.085C333.347 270.994 333.292 270.89 333.258 270.778C333.216 270.641 329.107 257.138 325.549 249.785C321.19 240.836 322.275 234.367 324.232 222.601C324.541 220.775 324.861 218.83 325.193 216.719C326.871 205.985 331.431 201.3 335.15 200.44C336.268 200.182 337.439 200.277 338.502 200.712C339.564 201.148 340.465 201.902 341.08 202.872C342.788 205.398 342.349 210.059 341.928 214.56C341.619 217.869 341.269 221.617 342.2 222.512C342.266 222.578 342.426 222.726 342.883 222.666C343.335 222.635 343.774 222.504 344.169 222.281C344.564 222.058 344.905 221.75 345.165 221.38C346.156 219.897 345.883 217.424 345.646 216.369C343.743 214.127 343.09 212.087 343.725 210.296C344.59 207.835 347.65 206.738 349.168 206.305C348.7 204.034 347.425 201.419 344.757 195.933C342.468 191.225 344.163 186.807 346.95 185.028C349.18 183.599 352.72 183.486 355.964 187.447C361.722 194.498 363.496 201.087 363.964 203.405C366.271 203.275 368.115 203.945 369.449 205.392C371.905 208.049 372.005 212.722 371.744 215.782C376.821 210.391 381.624 208.138 384.88 209.727C387.543 211.032 388.509 214.619 387.471 219.328C385.882 226.509 380.835 235.624 377.49 241.655C376.287 243.686 375.203 245.785 374.241 247.941C373.292 250.692 375.664 255.65 376.661 257.352C376.729 257.468 376.771 257.598 376.782 257.733C376.793 257.867 376.774 258.003 376.726 258.129C376.675 258.257 376.595 258.371 376.492 258.463C376.389 258.554 376.266 258.621 376.133 258.656L334.343 271.371C334.268 271.392 334.19 271.404 334.112 271.406ZM336.419 202.077C336.115 202.076 335.813 202.11 335.517 202.178C332.552 202.848 328.472 207.129 326.93 217.003C326.604 219.12 326.278 221.077 325.97 222.933C324.072 234.331 323.004 240.611 327.156 249.026C330.316 255.513 333.756 266.306 334.729 269.426L374.62 257.292C373.577 255.264 371.489 250.574 372.592 247.377C373.031 246.102 374.324 243.766 375.967 240.807C379.258 234.877 384.227 225.892 385.763 218.96C386.599 215.165 385.977 212.247 384.127 211.346C382.004 210.302 377.337 211.731 371.175 219.174C371.048 219.326 370.874 219.432 370.679 219.474C370.485 219.516 370.283 219.491 370.104 219.405C369.925 219.318 369.781 219.174 369.693 218.996C369.606 218.817 369.58 218.615 369.621 218.421C369.621 218.338 371.341 210.035 368.174 206.619C367.071 205.433 365.5 204.989 363.377 205.267C363.261 205.283 363.143 205.276 363.031 205.246C362.918 205.216 362.812 205.164 362.72 205.093C362.627 205.022 362.549 204.933 362.491 204.831C362.433 204.73 362.395 204.618 362.381 204.502C362.381 204.425 361.272 196.734 354.613 188.592C352.49 185.995 349.993 185.23 347.941 186.546C345.889 187.863 344.549 191.391 346.387 195.168C349.459 201.49 350.734 204.105 351.101 206.88C351.131 207.108 351.072 207.338 350.936 207.522C350.8 207.707 350.598 207.831 350.372 207.871C349.222 208.078 346.091 209.027 345.432 210.907C345.017 212.093 345.598 213.593 347.164 215.384C347.255 215.488 347.32 215.612 347.354 215.746C347.395 215.906 348.391 219.826 346.672 222.388C346.273 222.969 345.75 223.455 345.141 223.811C344.532 224.167 343.852 224.384 343.15 224.446C342.766 224.515 342.372 224.494 341.998 224.384C341.624 224.273 341.281 224.077 340.997 223.811C339.449 222.322 339.811 218.658 340.19 214.412C340.564 210.415 340.985 205.884 339.633 203.886C339.295 203.336 338.823 202.88 338.261 202.564C337.698 202.247 337.064 202.08 336.419 202.077Z" fill="#00446D"/>
<path d="M346.938 216.333C346.938 216.333 351.03 220.253 363.08 216.879L346.938 216.333Z" fill="#FFFAF7"/>
<path d="M354.292 219.138C348.688 219.138 346.47 217.098 346.339 216.973C346.168 216.811 346.068 216.587 346.062 216.35C346.056 216.114 346.144 215.885 346.306 215.713C346.469 215.542 346.694 215.442 346.93 215.436C347.166 215.43 347.395 215.518 347.566 215.681C347.644 215.752 351.623 219.168 362.855 216.025C363.082 215.961 363.325 215.99 363.531 216.106C363.737 216.221 363.888 216.414 363.952 216.642C364.016 216.869 363.986 217.112 363.87 217.318C363.755 217.524 363.562 217.675 363.335 217.739C360.398 218.613 357.356 219.084 354.292 219.138Z" fill="#00446D"/>
<path d="M350.188 206.981C354.478 205.835 358.835 204.961 363.235 204.366L350.188 206.981Z" fill="#FFFAF7"/>
<path d="M350.188 207.871C349.952 207.902 349.713 207.839 349.524 207.694C349.335 207.549 349.211 207.336 349.18 207.1C349.148 206.864 349.212 206.625 349.357 206.436C349.501 206.247 349.715 206.123 349.951 206.092C354.28 204.938 358.677 204.057 363.116 203.453C363.352 203.422 363.59 203.486 363.778 203.631C363.967 203.777 364.09 203.991 364.121 204.227C364.151 204.463 364.087 204.701 363.942 204.889C363.797 205.078 363.583 205.201 363.347 205.232C358.99 205.825 354.675 206.688 350.425 207.817C350.349 207.847 350.269 207.865 350.188 207.871Z" fill="#00446D"/>
<path d="M370.463 218.587C368.939 220.573 368.091 220.686 364.486 227.411L370.463 218.587Z" fill="#FFFAF7"/>
<path d="M364.486 228.288C364.339 228.287 364.194 228.251 364.065 228.182C363.862 228.07 363.711 227.884 363.642 227.663C363.574 227.441 363.593 227.202 363.697 226.996C366.461 221.813 367.676 220.472 368.756 219.239C369.088 218.859 369.408 218.509 369.758 218.053C369.906 217.879 370.114 217.768 370.341 217.744C370.567 217.719 370.795 217.783 370.977 217.922C371.158 218.06 371.279 218.263 371.315 218.488C371.351 218.714 371.299 218.944 371.169 219.132C370.778 219.642 370.422 220.039 370.084 220.419C369.023 221.605 367.925 222.838 365.269 227.832C365.191 227.971 365.078 228.087 364.94 228.167C364.802 228.247 364.645 228.289 364.486 228.288Z" fill="#00446D"/>
<path d="M349.506 236.519H349.376C349.142 236.482 348.932 236.356 348.791 236.166C348.651 235.976 348.59 235.739 348.622 235.505C349.476 229.753 341.21 224.084 341.127 224.024C340.933 223.891 340.8 223.687 340.756 223.456C340.711 223.225 340.759 222.986 340.889 222.791C340.954 222.694 341.038 222.611 341.136 222.546C341.233 222.482 341.342 222.437 341.457 222.415C341.572 222.393 341.69 222.394 341.804 222.418C341.918 222.441 342.027 222.488 342.123 222.554C342.503 222.809 351.398 228.923 350.383 235.766C350.352 235.976 350.246 236.168 350.085 236.306C349.924 236.444 349.719 236.52 349.506 236.519Z" fill="#00446D"/>
<path d="M358.319 217.875C357.175 219.482 356.351 221.294 355.893 223.212L358.319 217.875Z" fill="#FFFAF7"/>
<path d="M355.899 224.078C355.842 224.084 355.784 224.084 355.727 224.078C355.495 224.032 355.291 223.896 355.159 223.701C355.027 223.506 354.977 223.266 355.021 223.034C355.503 220.994 356.379 219.068 357.601 217.365C357.741 217.175 357.95 217.048 358.184 217.012C358.418 216.977 358.656 217.035 358.846 217.175C359.036 217.315 359.163 217.525 359.199 217.758C359.234 217.992 359.176 218.23 359.036 218.421C357.973 219.912 357.204 221.593 356.77 223.372C356.727 223.571 356.617 223.75 356.459 223.878C356.3 224.007 356.103 224.077 355.899 224.078Z" fill="#00446D"/>
<path d="M350.01 211.47C349.617 211.503 349.227 211.379 348.925 211.124C348.624 210.869 348.436 210.506 348.403 210.112C348.37 209.719 348.495 209.329 348.749 209.028C349.004 208.726 349.368 208.538 349.761 208.505L364.45 205.955C364.838 205.888 365.237 205.977 365.559 206.203C365.881 206.429 366.099 206.774 366.167 207.162C366.234 207.55 366.145 207.948 365.919 208.27C365.693 208.592 365.348 208.811 364.96 208.879L350.265 211.429C350.181 211.449 350.096 211.462 350.01 211.47Z" fill="white"/>
<path d="M110.427 301.822C110.138 301.82 109.856 301.734 109.615 301.574C109.374 301.415 109.185 301.188 109.071 300.923C108.957 300.657 108.922 300.365 108.971 300.08C109.02 299.795 109.151 299.531 109.348 299.319C142.651 264.094 191.131 248.913 191.617 248.789C191.805 248.726 192.003 248.7 192.201 248.715C192.399 248.73 192.591 248.785 192.767 248.875C192.944 248.966 193.1 249.091 193.227 249.243C193.354 249.395 193.45 249.571 193.508 249.761C193.565 249.95 193.585 250.15 193.564 250.347C193.544 250.544 193.484 250.735 193.388 250.909C193.293 251.082 193.163 251.235 193.008 251.358C192.852 251.48 192.674 251.571 192.483 251.623C192.008 251.772 144.259 266.716 111.507 301.359C111.367 301.505 111.2 301.622 111.014 301.701C110.829 301.781 110.629 301.822 110.427 301.822Z" fill="white"/>
<path d="M418.278 318.746C417.898 318.745 417.533 318.598 417.258 318.336C416.983 318.073 416.819 317.715 416.801 317.335C415.876 298.323 410.278 287.815 405.718 282.347C400.844 276.476 396.117 275.018 396.07 275C395.692 274.89 395.374 274.634 395.185 274.289C394.996 273.945 394.952 273.539 395.062 273.162C395.172 272.784 395.427 272.466 395.772 272.277C396.117 272.088 396.523 272.043 396.9 272.153C397.76 272.402 417.893 278.677 419.761 317.223C419.77 317.417 419.741 317.612 419.675 317.795C419.61 317.979 419.508 318.148 419.377 318.292C419.246 318.436 419.088 318.553 418.912 318.636C418.735 318.72 418.544 318.767 418.349 318.776L418.278 318.746Z" fill="white"/>
<path d="M105.286 375.112C104.95 375.112 104.624 374.998 104.362 374.789C104.099 374.58 103.916 374.288 103.841 373.961C103.766 373.634 103.803 373.292 103.948 372.989C104.094 372.686 104.337 372.442 104.639 372.295C106.086 371.596 140.321 355.413 165.761 369.111C166.107 369.298 166.365 369.615 166.477 369.992C166.59 370.369 166.547 370.775 166.36 371.121C166.173 371.467 165.856 371.725 165.479 371.837C165.102 371.949 164.696 371.908 164.35 371.72C140.232 358.733 106.27 374.798 105.926 374.964C105.727 375.061 105.508 375.112 105.286 375.112Z" fill="white"/>
<path d="M66.7221 448.427C66.5616 448.426 66.4044 448.383 66.2658 448.302C49.3471 438.15 44.3777 421.617 43.1858 409.549C42.3938 401.545 42.89 393.467 44.6561 385.621C44.6781 385.501 44.7248 385.387 44.7928 385.285C44.8608 385.184 44.9484 385.098 45.0511 385.032C45.1538 384.966 45.2689 384.922 45.3893 384.903C45.5097 384.883 45.6331 384.889 45.7512 384.919C45.8694 384.949 45.9803 385.003 46.0767 385.078C46.1731 385.153 46.2526 385.246 46.3112 385.353C46.3698 385.46 46.4061 385.578 46.4172 385.7C46.4283 385.821 46.4143 385.944 46.3761 386.059C44.6902 393.726 44.2116 401.61 44.9584 409.424C46.6485 426.373 54.1268 438.939 67.179 446.784C67.28 446.843 67.3681 446.921 67.4385 447.014C67.5088 447.108 67.5597 447.214 67.5885 447.327C67.6172 447.44 67.6232 447.558 67.6058 447.674C67.5884 447.789 67.5479 447.9 67.4871 448C67.4073 448.131 67.2951 448.239 67.1611 448.314C67.027 448.389 66.8756 448.428 66.7221 448.427Z" fill="#00446D"/>
<path d="M382.816 240.955C382.652 240.953 382.491 240.905 382.352 240.818C382.213 240.731 382.1 240.607 382.027 240.46C381.953 240.313 381.921 240.149 381.935 239.985C381.949 239.821 382.007 239.664 382.104 239.532C392.541 225.4 390.922 213.587 390.904 213.469C390.887 213.352 390.893 213.233 390.921 213.118C390.95 213.004 391 212.896 391.071 212.801C391.141 212.706 391.229 212.625 391.331 212.565C391.432 212.504 391.544 212.463 391.661 212.446C391.778 212.428 391.896 212.434 392.011 212.462C392.126 212.491 392.234 212.542 392.329 212.612C392.424 212.682 392.504 212.77 392.565 212.872C392.626 212.973 392.666 213.085 392.683 213.202C392.761 213.712 394.463 225.821 383.557 240.593C383.472 240.709 383.36 240.803 383.231 240.866C383.102 240.929 382.96 240.959 382.816 240.955Z" fill="#00446D"/>
<path d="M422.648 426.871C422.49 426.869 422.335 426.827 422.199 426.747C422.062 426.666 421.95 426.552 421.872 426.414C421.765 426.21 421.741 425.972 421.807 425.75C421.872 425.529 422.021 425.342 422.221 425.228C436.614 417.246 443.273 402.421 441.998 381.173C441.273 370.978 439.142 360.932 435.665 351.321C435.615 351.211 435.588 351.092 435.585 350.971C435.582 350.85 435.604 350.729 435.65 350.617C435.695 350.505 435.763 350.403 435.849 350.318C435.935 350.233 436.038 350.167 436.15 350.123C436.263 350.079 436.384 350.058 436.505 350.063C436.626 350.067 436.744 350.095 436.854 350.147C436.963 350.199 437.061 350.272 437.141 350.363C437.221 350.453 437.282 350.559 437.319 350.674C440.866 360.458 443.038 370.686 443.771 381.066C445.07 402.747 437.919 418.557 423.081 426.782C422.947 426.848 422.798 426.879 422.648 426.871Z" fill="#00446D"/>
<path d="M96.2898 477.994C96.0539 477.994 95.8277 477.9 95.6609 477.734C95.4941 477.567 95.4003 477.341 95.4003 477.105C95.4003 476.869 95.4941 476.643 95.6609 476.476C95.8277 476.309 96.0539 476.215 96.2898 476.215L411.85 473.001C412.086 473.001 412.312 473.095 412.479 473.261C412.645 473.428 412.739 473.655 412.739 473.891C412.739 474.127 412.645 474.353 412.479 474.52C412.312 474.686 412.086 474.78 411.85 474.78L96.2898 477.994Z" fill="#00446D"/>
<path d="M286.522 112.301C286.286 112.301 286.06 112.207 285.893 112.04C285.726 111.874 285.633 111.647 285.633 111.411C285.633 89.3039 269.657 85.4375 268.975 85.2834C268.855 85.2643 268.739 85.2208 268.637 85.1555C268.534 85.0903 268.446 85.0045 268.378 84.9038C268.31 84.803 268.263 84.6895 268.24 84.5699C268.218 84.4503 268.22 84.3274 268.246 84.2087C268.273 84.09 268.324 83.9781 268.396 83.8799C268.468 83.7816 268.559 83.6991 268.664 83.6375C268.769 83.5759 268.885 83.5366 269.006 83.5218C269.127 83.5071 269.25 83.5172 269.366 83.5517C269.544 83.5873 287.412 87.8332 287.412 111.423C287.409 111.657 287.313 111.88 287.147 112.045C286.981 112.209 286.756 112.301 286.522 112.301Z" fill="#00446D"/>
<path d="M346.939 196.444C346.697 196.445 346.458 196.386 346.245 196.272C345.901 196.083 345.646 195.767 345.535 195.392C345.424 195.016 345.466 194.612 345.652 194.267C351.173 183.842 351.262 175.759 351.262 175.676C351.265 175.285 351.422 174.91 351.699 174.633C351.977 174.357 352.352 174.201 352.744 174.2C352.939 174.2 353.131 174.238 353.311 174.313C353.49 174.387 353.653 174.496 353.791 174.634C353.928 174.772 354.036 174.935 354.11 175.115C354.184 175.295 354.222 175.488 354.221 175.682C354.221 176.038 354.156 184.53 348.291 195.655C348.161 195.899 347.966 196.103 347.727 196.242C347.488 196.381 347.215 196.451 346.939 196.444Z" fill="white"/>
<path d="M257.631 459.101C260.513 459.101 262.849 456.759 262.849 453.87C262.849 450.982 260.513 448.64 257.631 448.64C254.749 448.64 252.412 450.982 252.412 453.87C252.412 456.759 254.749 459.101 257.631 459.101Z" fill="white"/>
<path d="M321.801 395.476C324.683 395.476 327.019 393.135 327.019 390.246C327.019 387.357 324.683 385.016 321.801 385.016C318.919 385.016 316.582 387.357 316.582 390.246C316.582 393.135 318.919 395.476 321.801 395.476Z" fill="white"/>
<path d="M323.882 463.928H191.872C191.836 463.927 191.801 463.913 191.774 463.89C191.747 463.866 191.729 463.833 191.723 463.797C185.627 426.734 184.655 391.639 191.723 359.646C191.731 359.613 191.75 359.583 191.777 359.562C191.804 359.54 191.837 359.528 191.872 359.528H323.9C323.932 359.528 323.963 359.538 323.989 359.557C324.015 359.577 324.033 359.604 324.042 359.635C332.499 389.59 332.499 424.315 324.042 463.809C324.034 463.845 324.014 463.876 323.984 463.898C323.955 463.92 323.919 463.93 323.882 463.928Z" fill="#008BC4"/>
<path d="M323.882 464.817H191.871C191.624 464.818 191.386 464.73 191.198 464.57C191.01 464.411 190.885 464.189 190.846 463.946C184.222 423.662 184.222 389.487 190.846 359.451C190.898 359.221 191.026 359.015 191.21 358.867C191.395 358.72 191.624 358.639 191.86 358.638H323.888C324.114 358.639 324.333 358.713 324.514 358.849C324.694 358.985 324.826 359.175 324.89 359.392C333.341 389.345 333.347 424.54 324.89 463.993C324.839 464.224 324.712 464.431 324.529 464.58C324.346 464.73 324.118 464.813 323.882 464.817ZM192.5 463.038H323.289C331.502 424.338 331.514 389.819 323.331 360.447H192.458C186.042 389.932 186.054 423.514 192.5 463.038Z" fill="#00446D"/>
<path d="M192.162 359.457L208.595 343.143C208.625 343.118 208.662 343.103 208.701 343.101H307.367C307.406 343.103 307.444 343.118 307.474 343.143L323.906 359.457C323.927 359.478 323.941 359.505 323.946 359.535C323.952 359.564 323.949 359.594 323.938 359.622C323.926 359.65 323.907 359.673 323.882 359.69C323.858 359.707 323.83 359.717 323.8 359.718H192.269C192.239 359.717 192.21 359.707 192.186 359.69C192.161 359.673 192.142 359.65 192.131 359.622C192.12 359.594 192.116 359.564 192.122 359.535C192.127 359.505 192.142 359.478 192.162 359.457Z" fill="#008BC4"/>
<path d="M323.776 360.607H192.245C192.039 360.606 191.839 360.544 191.668 360.43C191.497 360.315 191.364 360.152 191.286 359.962C191.207 359.772 191.186 359.563 191.226 359.362C191.266 359.16 191.365 358.974 191.51 358.828L207.942 342.515C208.039 342.418 208.153 342.341 208.279 342.29C208.406 342.238 208.541 342.211 208.677 342.212H307.343C307.48 342.211 307.615 342.238 307.741 342.29C307.867 342.341 307.982 342.418 308.078 342.515L324.511 358.828C324.655 358.974 324.754 359.16 324.794 359.362C324.834 359.563 324.813 359.772 324.735 359.962C324.656 360.152 324.523 360.315 324.352 360.43C324.182 360.544 323.981 360.606 323.776 360.607ZM194.036 358.828H321.984L307.04 344.003H208.98L194.036 358.828Z" fill="#00446D"/>
<path d="M270.44 389.695C267.202 389.695 264.096 390.981 261.806 393.271C259.516 395.561 258.23 398.666 258.23 401.905C258.23 402.035 258.23 402.178 258.23 402.314C258.169 399.118 256.858 396.074 254.577 393.835C252.296 391.597 249.227 390.342 246.031 390.341C239.283 390.341 233.258 395.832 233.816 402.551C234.853 414.957 250.022 426.112 255.917 430.008C256.592 430.452 257.389 430.675 258.197 430.646C259.005 430.616 259.784 430.335 260.424 429.842C266.419 425.246 282.662 411.867 282.662 401.905C282.662 400.3 282.346 398.711 281.731 397.229C281.117 395.747 280.216 394.401 279.081 393.267C277.946 392.133 276.599 391.234 275.116 390.621C273.633 390.008 272.044 389.693 270.44 389.695Z" fill="#D6EFFC"/>
<path d="M258.058 431.538C257.126 431.538 256.214 431.264 255.437 430.749C249.02 426.515 233.993 415.331 232.938 402.622C232.813 401.017 233.027 399.404 233.564 397.886C234.102 396.368 234.95 394.98 236.057 393.81C237.33 392.435 238.874 391.338 240.592 390.588C242.309 389.838 244.163 389.451 246.037 389.451C247.05 391.896 248.781 393.977 251 395.418C253.22 396.859 255.824 397.593 258.47 397.523C261.115 397.453 263.677 396.582 265.817 395.026C267.958 393.469 269.576 391.3 270.458 388.805C273.931 388.81 277.26 390.191 279.716 392.647C282.171 395.103 283.553 398.432 283.557 401.905C283.557 412.122 267.765 425.34 260.975 430.547C260.139 431.189 259.113 431.538 258.058 431.538ZM246.037 391.213C244.411 391.221 242.803 391.56 241.312 392.21C239.822 392.861 238.48 393.809 237.368 394.996C236.429 395.985 235.707 397.16 235.25 398.445C234.792 399.73 234.608 401.096 234.711 402.456C235.701 414.364 250.218 425.157 256.415 429.248C256.936 429.589 257.551 429.76 258.174 429.737C258.796 429.713 259.396 429.497 259.89 429.118C265.026 425.181 281.778 411.577 281.778 401.887C281.778 398.885 280.585 396.005 278.462 393.882C276.339 391.759 273.46 390.566 270.458 390.566C267.455 390.566 264.576 391.759 262.453 393.882C260.33 396.005 259.137 398.885 259.137 401.887C259.137 402 259.137 402.112 259.137 402.231V402.326H257.358C257.286 399.367 256.063 396.553 253.949 394.481C251.835 392.41 248.997 391.244 246.037 391.231V391.213Z" fill="#00446D"/>
<path d="M282.668 353.307H235.749C235.513 353.307 235.286 353.214 235.12 353.047C234.953 352.88 234.859 352.654 234.859 352.418C234.859 352.182 234.953 351.955 235.12 351.789C235.286 351.622 235.513 351.528 235.749 351.528H282.668C282.904 351.528 283.13 351.622 283.297 351.789C283.464 351.955 283.557 352.182 283.557 352.418C283.557 352.654 283.464 352.88 283.297 353.047C283.13 353.214 282.904 353.307 282.668 353.307Z" fill="#00446D"/>
<path d="M280.106 352.418C280.183 352.323 280.266 352.228 280.337 352.127C281.272 350.824 281.94 349.349 282.305 347.787C282.669 346.225 282.722 344.606 282.461 343.024C282.2 341.441 281.63 339.925 280.783 338.563C279.936 337.201 278.83 336.018 277.526 335.084C276.223 334.149 274.748 333.481 273.186 333.116C271.624 332.752 270.005 332.699 268.423 332.96C266.84 333.221 265.324 333.791 263.962 334.638C262.599 335.485 261.417 336.591 260.483 337.895L260.234 338.221C262.045 335.585 262.749 332.344 262.194 329.194C261.64 326.044 259.871 323.238 257.269 321.38C251.789 317.454 243.689 318.415 240.231 324.202C235.487 332.155 237.504 344.098 239.888 352.406L280.106 352.418Z" fill="#D6EFFC"/>
<path d="M280.521 353.307H239.217L239.034 352.667C236.543 343.985 234.592 331.912 239.473 323.758C240.306 322.381 241.419 321.195 242.74 320.276C244.061 319.356 245.56 318.724 247.14 318.421C248.979 318.039 250.877 318.042 252.714 318.431C254.551 318.82 256.288 319.586 257.814 320.68C257.048 321.362 256.425 322.19 255.981 323.115C255.537 324.041 255.282 325.045 255.229 326.07C255.177 327.095 255.329 328.12 255.676 329.086C256.024 330.052 256.56 330.939 257.253 331.696C257.946 332.452 258.782 333.064 259.714 333.495C260.646 333.925 261.653 334.167 262.679 334.204C263.705 334.242 264.727 334.075 265.688 333.714C266.649 333.353 267.528 332.805 268.275 332.101C270.831 331.68 273.455 332.026 275.814 333.095C278.174 334.164 280.164 335.908 281.533 338.108C282.901 340.307 283.587 342.863 283.505 345.452C283.422 348.041 282.573 350.548 281.066 352.655C281.013 352.732 280.948 352.809 280.889 352.886L280.521 353.307ZM240.558 351.528H279.655C281.373 349.079 282.05 346.049 281.541 343.101C281.031 340.153 279.376 337.527 276.936 335.796C274.496 334.065 271.47 333.371 268.519 333.864C265.569 334.357 262.933 335.998 261.189 338.429L260.981 338.701L260.922 338.778L259.487 337.729C261.152 335.282 261.798 332.283 261.288 329.367C260.778 326.452 259.151 323.85 256.753 322.115C255.425 321.177 253.92 320.519 252.33 320.181C250.739 319.844 249.097 319.834 247.502 320.152C246.159 320.406 244.884 320.939 243.76 321.718C242.636 322.496 241.689 323.502 240.979 324.671C236.585 332.066 238.274 343.244 240.575 351.528H240.558Z" fill="#00446D"/>
<path d="M318.017 455.448C317.786 455.45 317.557 455.397 317.35 455.294C317.143 455.191 316.963 455.041 316.825 454.856C316.686 454.67 316.593 454.455 316.553 454.228C316.513 454 316.527 453.766 316.594 453.544C327.914 415.171 317.958 368.625 317.851 368.151C317.767 367.766 317.839 367.364 318.051 367.032C318.264 366.701 318.599 366.468 318.984 366.383C319.368 366.299 319.77 366.371 320.102 366.584C320.433 366.796 320.667 367.131 320.751 367.516C320.852 367.99 330.98 415.254 319.44 454.375C319.351 454.683 319.163 454.955 318.907 455.148C318.65 455.341 318.339 455.447 318.017 455.448Z" fill="white"/>
<path d="M188.474 378.143C188.474 378.143 171.733 375.45 165.631 392.31C159.528 409.169 159.143 426.705 168.566 436.863C177.989 447.021 188.835 447.353 195.845 443.807C202.854 440.261 203.85 432.481 197.671 424.659C197.671 424.659 208.446 416.232 196.764 403.115C196.764 403.115 207.895 384.381 188.373 385.158L188.474 378.143Z" fill="#FFFAF7"/>
<path d="M161.325 418.201C160.792 410.16 162.423 401.146 165.619 392.31C171.721 375.45 188.462 378.143 188.462 378.143L188.331 385.158C196.954 384.814 199.599 388.283 199.86 392.274C200.192 397.297 196.723 403.132 196.723 403.132C200.5 407.372 201.929 411.12 202.137 414.251C202.57 420.816 197.63 424.676 197.63 424.676C200.168 427.891 201.49 431.099 201.686 434.005C201.958 438.156 199.907 441.714 195.803 443.825C188.823 447.383 178.013 447.057 168.524 436.881C164.041 432.036 161.776 425.53 161.296 418.218L161.325 418.201ZM159.908 418.313C160.442 426.39 162.998 432.949 167.51 437.818C172.023 442.686 177.307 445.812 182.804 446.861C187.409 447.78 192.189 447.154 196.402 445.082C200.933 442.781 203.352 438.719 203.038 433.939C202.842 430.974 201.615 427.879 199.48 424.86C200.86 423.461 201.932 421.788 202.626 419.95C203.321 418.112 203.622 416.148 203.512 414.186C203.269 410.498 201.549 406.732 198.4 402.978C199.391 401.075 201.52 396.455 201.241 392.209C200.986 388.354 198.745 383.877 189.737 383.788L189.843 378.214C189.846 378.174 189.846 378.135 189.843 378.095C189.822 377.779 189.693 377.48 189.477 377.248C189.261 377.015 188.971 376.865 188.657 376.82C185.391 376.425 182.079 376.695 178.92 377.615C174.093 379.015 167.653 382.62 164.29 391.883C160.904 401.241 159.392 410.385 159.914 418.337L159.908 418.313Z" fill="#00446D"/>
<path d="M188.651 427.381C182.339 427.356 176.242 425.083 171.454 420.97C171.289 420.803 171.196 420.577 171.196 420.341C171.196 420.106 171.289 419.88 171.454 419.713C171.536 419.63 171.634 419.564 171.742 419.519C171.85 419.473 171.966 419.45 172.082 419.45C172.199 419.45 172.316 419.473 172.424 419.519C172.531 419.564 172.629 419.63 172.711 419.713C173.15 420.128 183.522 429.919 198.928 423.455C199.146 423.364 199.392 423.363 199.61 423.452C199.829 423.542 200.002 423.714 200.094 423.932C200.185 424.15 200.186 424.395 200.097 424.614C200.007 424.832 199.834 425.006 199.616 425.097C196.152 426.586 192.423 427.363 188.651 427.381Z" fill="#00446D"/>
<path d="M187.649 406.281C183.365 406.237 179.102 405.674 174.953 404.603C174.837 404.575 174.728 404.523 174.633 404.452C174.537 404.381 174.457 404.292 174.397 404.189C174.337 404.086 174.298 403.972 174.282 403.854C174.267 403.736 174.276 403.616 174.307 403.502C174.339 403.387 174.393 403.28 174.467 403.187C174.541 403.093 174.633 403.016 174.738 402.959C174.842 402.902 174.957 402.866 175.075 402.854C175.194 402.842 175.314 402.854 175.427 402.889C175.564 402.925 189.28 406.619 197.612 402.64C197.718 402.59 197.832 402.561 197.949 402.555C198.065 402.549 198.182 402.566 198.292 402.605C198.402 402.644 198.503 402.705 198.59 402.783C198.677 402.861 198.748 402.956 198.798 403.061C198.848 403.167 198.877 403.281 198.883 403.398C198.889 403.515 198.872 403.631 198.833 403.741C198.794 403.852 198.733 403.953 198.655 404.04C198.577 404.127 198.483 404.197 198.377 404.247C195.163 405.783 191.302 406.281 187.649 406.281Z" fill="#00446D"/>
<path d="M176.595 386.51C176.404 386.51 176.218 386.449 176.065 386.335C175.911 386.221 175.799 386.061 175.744 385.878C175.688 385.695 175.693 385.499 175.758 385.319C175.823 385.139 175.944 384.985 176.103 384.879C181.316 381.428 189.742 383.61 190.122 383.693C190.235 383.723 190.341 383.775 190.434 383.846C190.527 383.917 190.605 384.006 190.663 384.107C190.722 384.208 190.76 384.319 190.776 384.435C190.791 384.551 190.784 384.669 190.754 384.782C190.724 384.894 190.672 385 190.601 385.093C190.53 385.186 190.441 385.264 190.34 385.323C190.239 385.381 190.128 385.42 190.012 385.435C189.896 385.451 189.778 385.443 189.665 385.413C189.588 385.413 181.63 383.343 177.082 386.35C176.94 386.451 176.77 386.507 176.595 386.51Z" fill="#00446D"/>
<path d="M196.544 391.824C196.34 391.822 196.138 391.78 195.951 391.699C186.35 387.495 177.266 391.035 177.177 391.07C176.814 391.207 176.411 391.196 176.056 391.04C175.701 390.884 175.422 390.595 175.277 390.235C175.133 389.875 175.136 389.473 175.284 389.115C175.433 388.756 175.717 388.471 176.074 388.319C176.489 388.153 186.416 384.286 197.144 388.983C197.455 389.12 197.71 389.359 197.866 389.662C198.022 389.964 198.07 390.311 198 390.644C197.931 390.977 197.748 391.276 197.484 391.491C197.22 391.706 196.891 391.823 196.551 391.824H196.544Z" fill="white"/>
<path d="M186.748 411.121C182.575 411.069 178.46 410.133 174.674 408.375C174.499 408.289 174.342 408.168 174.213 408.021C174.084 407.874 173.985 407.703 173.923 407.517C173.861 407.332 173.836 407.136 173.849 406.941C173.863 406.746 173.915 406.555 174.003 406.38C174.091 406.205 174.212 406.049 174.36 405.922C174.508 405.794 174.68 405.697 174.866 405.636C175.052 405.575 175.248 405.551 175.443 405.566C175.638 405.581 175.828 405.635 176.003 405.724C176.133 405.789 186.985 411.061 195.786 405.777C195.953 405.677 196.137 405.611 196.33 405.583C196.523 405.554 196.719 405.564 196.908 405.611C197.097 405.658 197.275 405.743 197.431 405.859C197.587 405.975 197.72 406.12 197.82 406.288C197.92 406.455 197.986 406.64 198.014 406.832C198.043 407.025 198.033 407.221 197.986 407.41C197.938 407.599 197.855 407.777 197.739 407.933C197.622 408.089 197.476 408.221 197.309 408.321C194.111 410.203 190.458 411.172 186.748 411.121Z" fill="white"/>
<path d="M356.682 171.276C355.472 168.271 353.119 165.87 350.139 164.6C347.159 163.331 343.797 163.297 340.792 164.507C337.787 165.716 335.386 168.07 334.117 171.05C332.847 174.029 332.813 177.392 334.023 180.396C334.076 180.515 334.118 180.651 334.165 180.782C332.912 177.844 330.556 175.516 327.604 174.296C324.653 173.077 321.341 173.063 318.379 174.259C312.123 176.779 308.582 184.12 311.613 190.146C315.123 197.137 323.633 201.579 331.182 204.271C334.533 200.31 338.524 200.375 340.564 203.388C341.229 204.549 341.585 205.862 341.596 207.201L342.361 207.361C343.154 207.522 343.977 207.431 344.715 207.102C345.454 206.772 346.072 206.22 346.482 205.522C350.331 198.987 360.4 180.515 356.682 171.276Z" fill="#008BC4"/>
<path d="M343.137 208.298C342.819 208.298 342.501 208.266 342.189 208.203L341.418 208.043C341.228 208.002 341.056 207.901 340.929 207.754C340.802 207.608 340.726 207.424 340.712 207.23C340.706 206.05 340.404 204.89 339.834 203.856C339.517 203.345 339.083 202.917 338.567 202.607C338.052 202.298 337.469 202.116 336.869 202.077C335.22 201.988 333.447 202.96 331.876 204.823C331.758 204.96 331.602 205.058 331.427 205.105C331.252 205.151 331.068 205.144 330.898 205.084C320.591 201.419 313.836 196.52 310.824 190.519C310.107 189.078 309.702 187.502 309.633 185.894C309.565 184.286 309.835 182.682 310.427 181.185C311.091 179.432 312.112 177.837 313.425 176.498C314.737 175.16 316.313 174.109 318.053 173.411C318.23 174.412 318.604 175.369 319.151 176.226C319.698 177.083 320.409 177.825 321.243 178.407C322.076 178.99 323.017 179.402 324.01 179.622C325.003 179.841 326.029 179.862 327.031 179.685C328.032 179.507 328.989 179.134 329.847 178.587C330.704 178.04 331.445 177.329 332.028 176.495C332.61 175.661 333.023 174.721 333.242 173.728C333.461 172.735 333.483 171.708 333.305 170.707C334.32 168.322 336.02 166.292 338.189 164.874C340.358 163.455 342.898 162.712 345.49 162.738C348.081 162.764 350.607 163.558 352.747 165.02C354.887 166.482 356.545 168.545 357.512 170.95C361.325 180.438 351.612 198.584 347.259 205.938C346.837 206.656 346.234 207.251 345.512 207.665C344.789 208.079 343.97 208.297 343.137 208.298ZM342.432 206.436H342.544C343.156 206.559 343.791 206.489 344.36 206.235C344.93 205.981 345.406 205.556 345.723 205.018C349.014 199.444 359.475 180.568 355.858 171.584C354.736 168.799 352.554 166.573 349.792 165.396C347.029 164.22 343.913 164.189 341.127 165.31C338.342 166.432 336.116 168.613 334.939 171.376C333.763 174.138 333.732 177.255 334.853 180.041L334.978 180.379V180.456C335.057 180.674 335.048 180.914 334.953 181.125C334.858 181.337 334.684 181.503 334.468 181.588C334.252 181.673 334.012 181.671 333.798 181.581C333.584 181.491 333.414 181.322 333.323 181.108C332.155 178.389 329.972 176.233 327.239 175.098C324.506 173.963 321.438 173.939 318.688 175.03C317.182 175.645 315.817 176.56 314.677 177.721C313.537 178.881 312.646 180.262 312.057 181.778C311.556 183.047 311.325 184.407 311.382 185.771C311.438 187.135 311.78 188.471 312.384 189.695C315.776 196.443 324.208 200.725 330.903 203.174C332.748 201.187 334.883 200.162 336.934 200.268C337.81 200.323 338.66 200.584 339.416 201.031C340.171 201.477 340.811 202.096 341.281 202.836C341.952 203.924 342.347 205.16 342.432 206.436Z" fill="#00446D"/>
<path d="M360.91 170.173C360.734 170.174 360.563 170.123 360.417 170.026C360.272 169.928 360.158 169.79 360.091 169.628C357.684 163.828 354.328 160.317 350.123 159.185C343.007 157.275 335.63 162.826 335.553 162.885C335.365 163.014 335.134 163.066 334.909 163.03C334.684 162.994 334.481 162.873 334.342 162.692C334.204 162.511 334.14 162.283 334.164 162.057C334.189 161.83 334.3 161.621 334.474 161.474C334.8 161.219 342.592 155.33 350.574 157.465C355.347 158.74 359.101 162.606 361.734 168.946C361.782 169.055 361.807 169.173 361.808 169.292C361.81 169.411 361.788 169.529 361.744 169.64C361.699 169.75 361.632 169.85 361.548 169.935C361.464 170.019 361.364 170.086 361.254 170.132C361.143 170.168 361.026 170.182 360.91 170.173Z" fill="#00446D"/>
<path d="M433.352 64.7055C430.808 63.3113 428.015 62.4321 425.131 62.1177C422.247 61.8034 419.329 62.0601 416.544 62.8735C413.759 63.6868 411.162 65.0407 408.9 66.8579C406.639 68.6751 404.758 70.92 403.364 73.4643C403.251 73.6659 403.12 73.8854 402.99 74.0989C405.673 68.9764 406.24 63.0057 404.567 57.47C402.895 51.9344 399.118 47.2759 394.048 44.4957C383.374 38.6367 369.016 42.1237 364.065 53.2545C354.921 73.838 369.289 104.722 375.261 116.019C375.944 117.313 377.014 118.361 378.322 119.017C379.63 119.673 381.109 119.904 382.555 119.678C396.058 117.59 433.453 110.486 442.111 94.6883C444.925 89.5507 445.583 83.5059 443.94 77.8832C442.298 72.2606 438.489 67.5205 433.352 64.7055Z" fill="#008BC4"/>
<path d="M381.476 120.65C380.036 120.65 378.622 120.257 377.388 119.514C376.155 118.772 375.146 117.707 374.472 116.434C368.032 104.242 354.031 73.6423 363.252 52.8928C364.41 50.3293 366.092 48.0369 368.19 46.1636C370.288 44.2903 372.755 42.8777 375.433 42.0168C378.552 40.9719 381.855 40.5837 385.132 40.8766C388.409 41.1695 391.59 42.1372 394.475 43.7189C393.483 48.6212 394.12 53.7132 396.287 58.2206C398.455 62.728 402.035 66.4044 406.483 68.691C410.931 70.9775 416.005 71.7491 420.931 70.8884C425.858 70.0278 430.37 67.582 433.78 63.9229C439.119 66.8562 443.076 71.7878 444.784 77.6356C446.492 83.4833 445.81 89.7696 442.888 95.1152C434.165 111.038 397.884 118.243 382.691 120.556C382.289 120.62 381.883 120.651 381.476 120.65ZM382.94 42.5863C380.583 42.5801 378.239 42.9566 376.002 43.7011C373.558 44.4856 371.306 45.7731 369.39 47.4808C367.474 49.1885 365.937 51.2785 364.877 53.6162C355.982 73.6541 369.722 103.643 376.05 115.604C376.647 116.733 377.582 117.647 378.723 118.22C379.865 118.793 381.157 118.996 382.419 118.8C394.071 117.021 432.754 109.905 441.328 94.2613C442.713 91.8169 443.599 89.1215 443.933 86.332C444.267 83.5424 444.043 80.7144 443.274 78.0121C442.506 75.3098 441.208 72.7872 439.456 70.5909C437.704 68.3946 435.532 66.5685 433.069 65.2186C430.605 63.8688 427.897 63.0221 425.103 62.7279C422.309 62.4336 419.484 62.6976 416.793 63.5046C414.102 64.3115 411.598 65.6454 409.427 67.4285C407.256 69.2116 405.461 71.4084 404.146 73.8913C404.052 74.0573 403.951 74.2353 403.844 74.4073L403.755 74.5555L402.202 73.6898C404.749 68.7685 405.278 63.0479 403.676 57.743C402.073 52.4381 398.466 47.9667 393.62 45.2784C390.341 43.5046 386.669 42.5792 382.94 42.5863Z" fill="#00446D"/>
<path d="M388.295 60.7324C388.133 60.7334 387.974 60.6897 387.834 60.606C387.695 60.5223 387.582 60.4019 387.507 60.258C365.565 18.2074 325.632 7.47987 325.24 7.39684C325.127 7.36764 325.021 7.31647 324.927 7.24613C324.834 7.17579 324.755 7.0876 324.695 6.98683C324.636 6.88606 324.597 6.77462 324.58 6.65876C324.564 6.5429 324.571 6.42489 324.6 6.31158C324.629 6.19827 324.68 6.09194 324.75 5.99843C324.821 5.90492 324.909 5.82611 325.01 5.76664C325.111 5.70717 325.222 5.66806 325.338 5.65168C325.454 5.6353 325.572 5.64202 325.685 5.67123C326.106 5.7839 336.081 8.40502 348.955 16.3455C365.965 26.837 379.831 41.7199 389.096 59.4278C389.2 59.6358 389.219 59.8765 389.148 60.0983C389.078 60.32 388.922 60.5051 388.716 60.6138C388.589 60.6892 388.444 60.7301 388.295 60.7324Z" fill="#00446D"/>
<path d="M376.21 62.47C376.062 62.4699 375.916 62.433 375.786 62.3626C375.655 62.2922 375.544 62.1906 375.462 62.0668C358.508 36.1462 337.723 36.8519 337.51 36.8638C337.393 36.87 337.276 36.8532 337.166 36.8143C337.055 36.7753 336.954 36.715 336.867 36.6368C336.78 36.5586 336.709 36.464 336.659 36.3585C336.608 36.253 336.579 36.1386 336.573 36.0217C336.566 35.9049 336.583 35.7881 336.622 35.6778C336.661 35.5674 336.721 35.4658 336.8 35.3788C336.878 35.2918 336.973 35.2211 337.078 35.1706C337.184 35.1201 337.298 35.091 337.415 35.0847C338.305 35.0432 359.398 34.2605 376.945 61.0943C377.032 61.2283 377.082 61.3833 377.089 61.5432C377.096 61.703 377.059 61.8617 376.983 62.0025C376.907 62.1434 376.795 62.2611 376.658 62.3434C376.52 62.4256 376.364 62.4694 376.204 62.47H376.21Z" fill="#00446D"/>
<path d="M428.407 101.022C428.152 101.02 427.903 100.954 427.681 100.83C427.459 100.705 427.272 100.527 427.138 100.31C427.036 100.144 426.968 99.9601 426.938 99.768C426.908 99.5759 426.916 99.3798 426.961 99.1908C427.007 99.0018 427.09 98.8238 427.205 98.6668C427.319 98.5098 427.464 98.377 427.63 98.2761C433.768 94.5045 437.077 90.1815 437.474 85.4196C438.144 77.3783 430.305 70.4578 430.228 70.3866C430.08 70.2589 429.96 70.1035 429.873 69.9291C429.785 69.7548 429.733 69.5651 429.72 69.3707C429.706 69.1763 429.73 68.9811 429.792 68.7962C429.854 68.6114 429.952 68.4405 430.079 68.2933C430.207 68.1461 430.362 68.0255 430.537 67.9384C430.711 67.8513 430.901 67.7995 431.095 67.7857C431.289 67.7719 431.485 67.7966 431.67 67.8582C431.854 67.9199 432.026 68.0173 432.173 68.145C432.54 68.4653 441.21 76.1033 440.427 85.6448C439.959 91.4089 436.176 96.503 429.16 100.802C428.934 100.942 428.673 101.018 428.407 101.022Z" fill="white"/>
<path d="M104.989 49.1568C103.749 49.816 102.652 50.7135 101.759 51.7977C100.866 52.882 100.197 54.1318 99.7878 55.4754C99.379 56.819 99.239 58.2301 99.3766 59.6278C99.5142 61.0255 99.9264 62.3824 100.589 63.6205C100.643 63.7213 100.696 63.834 100.749 63.9467C99.3885 61.4985 97.1201 59.683 94.4333 58.892C91.7464 58.1011 88.8565 58.3979 86.3865 59.7184C81.1739 62.4997 78.7841 69.2066 81.9864 74.1879C87.9165 83.344 104.218 85.7102 110.38 86.2914C111.085 86.3559 111.793 86.1993 112.405 85.8433C113.017 85.4873 113.503 84.9495 113.795 84.3047C116.529 78.2797 123.563 61.2485 119.459 53.5571C118.8 52.3162 117.902 51.2176 116.817 50.3245C115.732 49.4313 114.482 48.7611 113.138 48.3523C111.794 47.9435 110.382 47.8041 108.984 47.9422C107.585 48.0802 106.228 48.493 104.989 49.1568Z" fill="#008BC4"/>
<path d="M110.67 87.1927H110.273C103.56 86.5641 87.2879 84.0912 81.2155 74.686C80.4499 73.4848 79.9448 72.1365 79.7324 70.7279C79.5199 69.3194 79.6048 67.882 79.982 66.5084C80.3974 64.9088 81.1385 63.4121 82.1589 62.1122C83.1793 60.8122 84.457 59.7368 85.9121 58.9534C87.718 60.3648 89.9021 61.208 92.188 61.3761C94.4738 61.5442 96.7581 61.0296 98.7511 59.8975C100.744 58.7654 102.356 57.0669 103.382 55.0174C104.408 52.968 104.803 50.6598 104.515 48.3859C107.224 46.942 110.394 46.6306 113.331 47.5198C116.269 48.409 118.735 50.4264 120.188 53.13C124.422 61.0645 117.656 77.8231 114.549 84.6665C114.211 85.4141 113.667 86.0492 112.979 86.4969C112.292 86.9446 111.491 87.1861 110.67 87.1927ZM91.35 59.3625C89.7566 59.3599 88.1874 59.7533 86.7837 60.5071C85.5433 61.1759 84.4528 62.091 83.5788 63.1964C82.7049 64.3018 82.0664 65.5741 81.7019 66.9353C81.3874 68.0719 81.3146 69.2618 81.4882 70.4282C81.6619 71.5947 82.0777 72.7119 82.7096 73.7076C88.3551 82.4546 103.981 84.7969 110.439 85.4018C110.96 85.4506 111.482 85.3356 111.934 85.073C112.386 84.8104 112.744 84.4134 112.96 83.9371C115.296 78.7838 122.62 61.4026 118.647 53.9721C117.421 51.6807 115.337 49.969 112.851 49.213C110.365 48.4569 107.68 48.7183 105.387 49.9396C103.094 51.165 101.38 53.25 100.623 55.7371C99.8662 58.2242 100.127 60.9102 101.348 63.2054C101.396 63.2884 101.437 63.3773 101.484 63.4722L101.526 63.5492L99.9487 64.3795C99.0902 62.855 97.841 61.5865 96.3298 60.7048C94.8185 59.823 93.0997 59.3597 91.35 59.3625Z" fill="#00446D"/>
<path d="M110.427 55.7213C110.281 55.7205 110.137 55.6839 110.008 55.6145C109.879 55.5451 109.769 55.4452 109.688 55.3235C109.606 55.2018 109.556 55.0619 109.541 54.9162C109.526 54.7706 109.548 54.6234 109.603 54.4878C109.763 54.1024 113.636 44.9048 123.041 35.1735C131.729 26.1894 146.945 15.1355 170.132 13.4514C170.248 13.4428 170.366 13.4573 170.477 13.4941C170.588 13.5309 170.692 13.5892 170.78 13.6658C170.869 13.7423 170.941 13.8356 170.994 13.9403C171.046 14.0449 171.078 14.1589 171.087 14.2757C171.095 14.3925 171.08 14.5098 171.044 14.621C171.007 14.7322 170.949 14.8351 170.872 14.9238C170.796 15.0124 170.702 15.0851 170.598 15.1377C170.493 15.1904 170.379 15.2218 170.262 15.2304C147.669 16.8671 132.837 27.6185 124.375 36.3536C115.178 45.8418 111.287 55.0809 111.245 55.1699C111.18 55.3333 111.067 55.4732 110.921 55.5715C110.775 55.6698 110.603 55.7221 110.427 55.7213Z" fill="#00446D"/>
<path d="M105.926 31.9654C105.761 31.9633 105.599 31.9161 105.458 31.829C105.358 31.7678 105.272 31.6875 105.204 31.5929C105.136 31.4982 105.088 31.3911 105.061 31.2776C105.035 31.164 105.031 31.0463 105.05 30.9313C105.069 30.8162 105.111 30.7062 105.173 30.6074C105.309 30.388 119.091 8.39916 141.608 0.0317471C141.824 -0.0277558 142.055 -0.00302102 142.255 0.100951C142.454 0.204924 142.606 0.38039 142.681 0.592185C142.757 0.80398 142.749 1.03628 142.659 1.24253C142.57 1.44878 142.407 1.61363 142.201 1.70394C120.259 9.85194 106.786 31.3546 106.655 31.5444C106.577 31.6687 106.47 31.772 106.343 31.8454C106.216 31.9188 106.073 31.9599 105.926 31.9654Z" fill="#00446D"/>
<path d="M111.708 81.399C111.456 81.3996 111.208 81.3354 110.987 81.2128C110.767 81.0901 110.581 80.9131 110.448 80.6984C110.316 80.4837 110.24 80.2385 110.229 79.9864C110.218 79.7342 110.272 79.4835 110.386 79.2581C116.5 67.0361 115.397 58.3604 115.385 58.2715C115.338 57.8857 115.443 57.4966 115.679 57.1879C115.916 56.8793 116.264 56.6759 116.649 56.6214C117.034 56.567 117.424 56.6659 117.737 56.8969C118.05 57.1279 118.26 57.4725 118.321 57.8564C118.38 58.2418 119.596 67.4631 113.037 80.5805C112.914 80.8274 112.724 81.0348 112.49 81.1795C112.255 81.3241 111.984 81.4002 111.708 81.399Z" fill="white"/>
</svg>
