<svg width="267" height="45" viewBox="0 0 267 45" fill="none" xmlns="http://www.w3.org/2000/svg">
<path d="M35.6008 19.8001H28.1008L33.4008 14.5001C34.3008 13.6001 34.3008 12.0001 33.4008 11.1001C32.5008 10.2001 30.9008 10.2001 30.0008 11.1001L24.7008 16.4001V9.0001C24.7008 7.7001 23.6008 6.6001 22.3008 6.6001C21.0008 6.6001 19.9008 7.7001 19.9008 9.0001V16.5001L14.6008 11.2001C13.7008 10.3001 12.1008 10.3001 11.2008 11.2001C10.3008 12.1001 10.3008 13.7001 11.2008 14.6001L16.5008 19.9001H9.00077C7.70077 19.9001 6.60077 21.0001 6.60077 22.3001C6.60077 23.6001 7.70077 24.7001 9.00077 24.7001H16.5008L11.2008 30.0001C10.3008 30.9001 10.3008 32.5001 11.2008 33.4001C12.1008 34.3001 13.7008 34.3001 14.6008 33.4001L19.9008 28.1001V35.6001C19.9008 36.9001 21.0008 38.0001 22.3008 38.0001C23.6008 38.0001 24.7008 36.9001 24.7008 35.6001V28.1001L30.0008 33.4001C30.9008 34.3001 32.5008 34.3001 33.4008 33.4001C34.3008 32.5001 34.3008 30.9001 33.4008 30.0001L28.1008 24.7001H35.6008C36.9008 24.7001 38.0008 23.6001 38.0008 22.3001C38.0008 21.0001 36.9008 19.8001 35.6008 19.8001Z" fill="#3C3C3B"/>
<path d="M21.2007 25.6001L18.9007 23.3001C18.3007 22.7001 18.3007 21.7001 18.9007 21.1001L21.2007 18.8001C21.8007 18.2001 22.8007 18.2001 23.4007 18.8001L25.7007 21.1001C26.3007 21.7001 26.3007 22.7001 25.7007 23.3001L23.4007 25.6001C22.7007 26.2001 21.8007 26.2001 21.2007 25.6001Z" fill="white"/>
<path d="M38.4008 32.8L37.2008 29.8C36.9008 29 37.3008 28.1 38.0008 27.8L41.0008 26.6C41.8008 26.3 42.7008 26.7 43.0008 27.4L44.2008 30.4C44.5008 31.2 44.1008 32.1 43.4008 32.4L40.4008 33.6C39.6008 33.9 38.7008 33.6 38.4008 32.8Z" fill="#575756"/>
<path d="M26.2008 41.1001L27.5008 38.1001C27.8008 37.3001 28.7008 37.0001 29.5008 37.3001L32.5008 38.6001C33.3008 38.9001 33.6008 39.8001 33.3008 40.6001L32.0008 43.6001C31.7008 44.4001 30.8008 44.7002 30.0008 44.4002L27.0008 43.1001C26.3008 42.8001 25.9008 41.9001 26.2008 41.1001Z" fill="#575756"/>
<path d="M11.7008 38.4001L14.7008 37.2001C15.5008 36.9001 16.4008 37.3001 16.7008 38.0001L17.9008 41.0001C18.2008 41.8001 17.8008 42.7001 17.1008 43.0001L14.1008 44.2001C13.3008 44.5001 12.4008 44.1001 12.1008 43.4001L10.9008 40.4001C10.6008 39.6001 11.0008 38.7001 11.7008 38.4001Z" fill="#575756"/>
<path d="M3.40075 26.2001L6.40075 27.5001C7.20075 27.8001 7.50075 28.7001 7.20075 29.5001L5.90075 32.5001C5.60075 33.3001 4.70075 33.6001 3.90075 33.3001L0.900747 32.0001C0.100747 31.7001 -0.199253 30.8001 0.100747 30.0001L1.40075 27.0001C1.70075 26.3001 2.60075 25.9001 3.40075 26.2001Z" fill="#575756"/>
<path d="M6.10073 11.7001L7.30073 14.7001C7.60073 15.5001 7.20073 16.4001 6.50073 16.7001L3.50073 17.9001C2.70073 18.2001 1.80073 17.8001 1.50073 17.1001L0.300729 14.1001C0.000728831 13.3001 0.400729 12.4001 1.10073 12.1001L4.10073 10.9001C4.90073 10.6001 5.80073 11.0001 6.10073 11.7001Z" fill="#575756"/>
<path d="M18.3007 3.40005L17.0007 6.40005C16.7007 7.20005 15.8007 7.50005 15.0007 7.20005L12.0007 6.00005C11.2007 5.70005 10.9007 4.80005 11.2007 4.00005L12.5007 1.00005C12.8007 0.200051 13.7007 -0.099949 14.5007 0.200051L17.5007 1.50005C18.2007 1.70005 18.6007 2.60005 18.3007 3.40005Z" fill="#575756"/>
<path d="M32.8007 6.1L29.8007 7.3C29.0007 7.6 28.1007 7.2 27.8007 6.5L26.6007 3.5C26.3007 2.7 26.7007 1.8 27.4007 1.5L30.4007 0.299996C31.2007 -3.59118e-06 32.1007 0.399996 32.4007 1.1L33.6007 4.1C33.9007 4.9 33.6007 5.8 32.8007 6.1Z" fill="#575756"/>
<path d="M41.1008 18.3001L38.1008 17.0001C37.3008 16.7001 37.0008 15.8001 37.3008 15.0001L38.6008 12.0001C38.9008 11.2001 39.8008 10.9001 40.6008 11.2001L43.6008 12.5001C44.4008 12.8001 44.7008 13.7001 44.4008 14.5001L43.1008 17.5001C42.8008 18.2001 41.9008 18.6001 41.1008 18.3001Z" fill="#575756"/>
<path d="M56.5008 34.5V12.5H49.1008C48.4008 12.5 47.9008 12.1 47.9008 11.4V10.8C47.9008 10.1 48.3008 9.69995 49.1008 9.69995H67.1008C67.9008 9.69995 68.3008 10.1 68.3008 10.8V11.4C68.3008 12.1 67.9008 12.5 67.1008 12.5H59.7008V34.5C59.7008 35.2 59.3008 35.7 58.6008 35.7H57.6008C56.9008 35.7 56.5008 35.2 56.5008 34.5Z" fill="#575756"/>
<path d="M78.0008 33.4C79.8008 33.4 82.0008 32.9 84.2008 31.1C84.9008 30.5 85.4008 30.6 85.9008 31.1L86.3008 31.5C86.9008 32.1 86.6008 32.6999 86.2008 33.0999C83.8008 35.3999 80.4008 36.2 78.0008 36.2C72.5008 36.2 67.4008 32.4 67.4008 25.8C67.4008 19.8 71.7008 15.2 77.5008 15.2C80.3008 15.2 82.7008 16.2 84.5008 17.9C86.5008 19.8 87.5008 22.5 87.5008 25.3C87.5008 26.1 86.9008 26.6 86.1008 26.6H70.6008C71.0008 31 74.4008 33.4 78.0008 33.4ZM70.7008 23.9H84.2008C84.0008 22.3 83.3008 20.9 82.4008 19.9C81.2008 18.6 79.6008 17.9 77.5008 17.9C73.8008 18 71.2008 20.3 70.7008 23.9Z" fill="#575756"/>
<path d="M90.6008 25.7C90.6008 19.8 95.1008 15.2 101.201 15.2C103.601 15.2 106.501 15.8 109.001 18.2C109.401 18.6 109.701 19.2 109.101 19.8L108.701 20.2C108.201 20.6 107.701 20.8 107.001 20.2C104.701 18.1 102.801 18 101.401 18C97.0008 18 93.9008 21.2 93.9008 25.7C93.9008 30 96.8008 33.2999 101.401 33.2999C102.801 33.2999 104.701 33.2 107.001 31.1C107.701 30.5 108.201 30.6 108.701 31.1L109.101 31.5C109.701 32.1 109.401 32.6999 109.001 33.0999C106.501 35.4999 103.701 36.0999 101.201 36.0999C95.1008 36.1999 90.6008 31.6 90.6008 25.7Z" fill="#575756"/>
<path d="M131.601 23.5V34.5C131.601 35.2 131.201 35.7 130.501 35.7H129.501C128.801 35.7 128.401 35.2 128.401 34.5V23.8C128.401 20.3 126.201 18 122.801 18C119.401 18 116.901 20.3 116.901 23.8V34.5C116.901 35.2 116.501 35.7 115.801 35.7H114.801C114.101 35.7 113.701 35.2 113.701 34.5V8.50003C113.701 7.90003 114.101 7.50003 114.801 7.30003L115.601 7.10003C116.501 6.90003 116.801 7.30003 116.801 8.20003V18C118.201 16.2 120.401 15.2 123.201 15.2C128.401 15.2 131.601 18.7 131.601 23.5Z" fill="#575756"/>
<path d="M153.601 16.6L143.901 38.5C142.301 42 141.001 43.3 138.301 43.3C137.201 43.3 136.201 43 135.501 42.6C135.101 42.3 134.601 42 134.901 41.2L135.101 40.8C135.301 40.1 136.001 39.9 136.801 40.3C137.201 40.5 137.801 40.7 138.301 40.7C139.501 40.7 140.201 40.3 141.101 38.2L142.701 34.6L134.901 16.6C134.701 16 135.001 15.5 135.701 15.5H137.101C137.801 15.5 138.201 15.9 138.501 16.6L144.501 31L150.501 16.6C150.801 15.9 151.101 15.5 151.901 15.5H153.101C153.501 15.5 153.801 16 153.601 16.6Z" fill="#575756"/>
<path d="M178.001 25.7C178.001 31.6 173.801 36.2 168.001 36.2C163.601 36.2 160.201 33.6 158.801 29.7V42.5C158.801 42.7 158.701 42.9 158.401 42.9H158.301C158.101 42.9 157.901 42.7 157.901 42.5V16.1C157.901 15.9 158.101 15.7 158.301 15.7H158.401C158.601 15.7 158.801 15.9 158.801 16.1V21.7C160.201 17.8 163.601 15.2 168.001 15.2C173.801 15.2 178.001 19.8 178.001 25.7ZM177.101 25.7C177.101 20.3 173.301 16 167.901 16C162.501 16 158.701 20.2 158.701 25.7C158.701 31.2 162.501 35.4 167.901 35.4C173.301 35.4 177.101 31.2 177.101 25.7Z" fill="#575756"/>
<path d="M191.901 35.4001C195.101 35.4001 198.301 33.6 199.901 31.3C200.001 31.1 200.301 31.1 200.401 31.2L200.501 31.3C200.701 31.4 200.701 31.7 200.501 31.8C198.701 34.3 195.401 36.2001 191.901 36.2001C186.301 36.2001 181.901 32 181.901 25.7C181.901 19.8 185.701 15.3 191.701 15.3C195.401 15.3 198.201 17.1 199.701 19.9C200.601 21.6 201.101 23.6 201.101 25.3C201.101 25.8 201.101 26.1 200.601 26.1H182.801C182.901 31.6 186.801 35.4001 191.901 35.4001ZM182.701 25.3H200.201C200.101 23.5 199.801 21.9 199.001 20.5C197.601 17.8 195.201 16 191.601 16C186.501 16 182.801 20 182.701 25.3Z" fill="#575756"/>
<path d="M214.801 35.4001C218.001 35.4001 221.201 33.6 222.801 31.3C222.901 31.1 223.201 31.1 223.301 31.2L223.401 31.3C223.601 31.4 223.601 31.7 223.401 31.8C221.601 34.3 218.301 36.2001 214.801 36.2001C209.201 36.2001 204.801 32 204.801 25.7C204.801 19.8 208.601 15.3 214.601 15.3C218.301 15.3 221.101 17.1 222.601 19.9C223.501 21.6 224.001 23.6 224.001 25.3C224.001 25.8 224.001 26.1 223.501 26.1H205.701C205.801 31.6 209.701 35.4001 214.801 35.4001ZM205.601 25.3H223.101C223.001 23.5 222.701 21.9 221.901 20.5C220.501 17.8 218.101 16 214.501 16C209.401 16 205.701 20 205.601 25.3Z" fill="#575756"/>
<path d="M249.301 25.7C249.301 31.6 245.101 36.2 239.301 36.2C234.901 36.2 231.501 33.6 230.101 29.7V42.5C230.101 42.7 230.001 42.9 229.701 42.9H229.601C229.401 42.9 229.201 42.7 229.201 42.5V16.1C229.201 15.9 229.401 15.7 229.601 15.7H229.701C229.901 15.7 230.101 15.9 230.101 16.1V21.7C231.501 17.8 234.901 15.2 239.301 15.2C245.201 15.2 249.301 19.8 249.301 25.7ZM248.501 25.7C248.501 20.3 244.701 16 239.301 16C233.901 16 230.101 20.2 230.101 25.7C230.101 31.2 233.901 35.4 239.301 35.4C244.701 35.4 248.501 31.2 248.501 25.7Z" fill="#575756"/>
<path d="M252.701 32.4C252.601 32.2 252.601 32 252.801 31.9L253.001 31.7999C253.201 31.6999 253.401 31.7999 253.501 32C254.801 34.4 256.801 35.4 259.801 35.4C263.301 35.4 265.501 33.6 265.501 30.8C265.501 27.2 261.701 26.2 258.401 24.8C256.201 23.9 254.001 22.6 254.001 20C254.001 17 256.601 15.2 259.801 15.2C262.301 15.2 264.501 16.2 265.801 18.3C265.901 18.5 266.001 18.7 265.801 18.8L265.701 18.9C265.501 19 265.301 19 265.201 18.8C264.001 16.8 262.201 16 259.901 16C257.101 16 254.901 17.6 254.901 20C254.901 22.4 256.901 23.5 259.001 24.3C262.601 25.7 266.401 26.7 266.401 30.9C266.401 34.1 263.901 36.2 259.901 36.2C256.401 36.2 253.901 34.9 252.701 32.4Z" fill="#575756"/>
</svg>
