<svg width="267" height="45" viewBox="0 0 267 45" fill="none" xmlns="http://www.w3.org/2000/svg">
<g clip-path="url(#clip0_23_1113)">
<path d="M35.6 19.8001H28.1L33.4 14.5001C34.3 13.6001 34.3 12.0001 33.4 11.1001C32.5 10.2001 30.9 10.2001 30 11.1001L24.7 16.4001V9.0001C24.7 7.7001 23.6 6.6001 22.3 6.6001C21 6.6001 19.9 7.7001 19.9 9.0001V16.5001L14.6 11.2001C13.7 10.3001 12.1 10.3001 11.2 11.2001C10.3 12.1001 10.3 13.7001 11.2 14.6001L16.5 19.9001H8.99998C7.69998 19.9001 6.59998 21.0001 6.59998 22.3001C6.59998 23.6001 7.69998 24.7001 8.99998 24.7001H16.5L11.2 30.0001C10.3 30.9001 10.3 32.5001 11.2 33.4001C12.1 34.3001 13.7 34.3001 14.6 33.4001L19.9 28.1001V35.6001C19.9 36.9001 21 38.0001 22.3 38.0001C23.6 38.0001 24.7 36.9001 24.7 35.6001V28.1001L30 33.4001C30.9 34.3001 32.5 34.3001 33.4 33.4001C34.3 32.5001 34.3 30.9001 33.4 30.0001L28.1 24.7001H35.6C36.9 24.7001 38 23.6001 38 22.3001C38 21.0001 36.9 19.8001 35.6 19.8001Z" fill="#00D5FF"/>
<path d="M21.2 25.6001L18.9 23.3001C18.3 22.7001 18.3 21.7001 18.9 21.1001L21.2 18.8001C21.8 18.2001 22.8 18.2001 23.4 18.8001L25.7 21.1001C26.3 21.7001 26.3 22.7001 25.7 23.3001L23.4 25.6001C22.7 26.2001 21.8 26.2001 21.2 25.6001Z" fill="white"/>
<path d="M38.3999 32.8L37.1999 29.8C36.8999 29 37.2999 28.1 37.9999 27.8L40.9999 26.6C41.7999 26.3 42.6999 26.7 42.9999 27.4L44.1999 30.4C44.4999 31.2 44.0999 32.1 43.3999 32.4L40.3999 33.6C39.5999 33.9 38.6999 33.6 38.3999 32.8Z" fill="white"/>
<path d="M26.1999 41.1001L27.4999 38.1001C27.7999 37.3001 28.6999 37.0001 29.4999 37.3001L32.4999 38.6001C33.2999 38.9001 33.5999 39.8001 33.2999 40.6001L31.9999 43.6001C31.6999 44.4001 30.7999 44.7002 29.9999 44.4002L26.9999 43.1001C26.2999 42.8001 25.8999 41.9001 26.1999 41.1001Z" fill="white"/>
<path d="M11.7 38.4001L14.7 37.2001C15.5 36.9001 16.4 37.3001 16.7 38.0001L17.9 41.0001C18.2 41.8001 17.8 42.7001 17.1 43.0001L14.1 44.2001C13.3 44.5001 12.4 44.1001 12.1 43.4001L10.9 40.4001C10.6 39.6001 11 38.7001 11.7 38.4001Z" fill="white"/>
<path d="M3.39995 26.2001L6.39995 27.5001C7.19995 27.8001 7.49995 28.7001 7.19995 29.5001L5.89995 32.5001C5.59995 33.3001 4.69995 33.6001 3.89995 33.3001L0.899953 32.0001C0.0999533 31.7001 -0.200047 30.8001 0.0999533 30.0001L1.39995 27.0001C1.69995 26.3001 2.59995 25.9001 3.39995 26.2001Z" fill="white"/>
<path d="M6.1 11.7001L7.3 14.7001C7.6 15.5001 7.2 16.4001 6.5 16.7001L3.5 17.9001C2.7 18.2001 1.8 17.8001 1.5 17.1001L0.299996 14.1001C-3.59118e-06 13.3001 0.399996 12.4001 1.1 12.1001L4.1 10.9001C4.9 10.6001 5.8 11.0001 6.1 11.7001Z" fill="white"/>
<path d="M18.2999 3.40005L16.9999 6.40005C16.6999 7.20005 15.7999 7.50005 14.9999 7.20005L11.9999 6.00005C11.1999 5.70005 10.8999 4.80005 11.1999 4.00005L12.4999 1.00005C12.7999 0.200051 13.6999 -0.099949 14.4999 0.200051L17.4999 1.50005C18.1999 1.70005 18.5999 2.60005 18.2999 3.40005Z" fill="white"/>
<path d="M32.7999 6.1L29.7999 7.3C28.9999 7.6 28.0999 7.2 27.7999 6.5L26.5999 3.5C26.2999 2.7 26.6999 1.8 27.3999 1.5L30.3999 0.299996C31.1999 -3.59118e-06 32.0999 0.399996 32.3999 1.1L33.5999 4.1C33.8999 4.9 33.5999 5.8 32.7999 6.1Z" fill="white"/>
<path d="M41.0999 18.3001L38.0999 17.0001C37.2999 16.7001 36.9999 15.8001 37.2999 15.0001L38.5999 12.0001C38.8999 11.2001 39.7999 10.9001 40.5999 11.2001L43.5999 12.5001C44.3999 12.8001 44.6999 13.7001 44.3999 14.5001L43.0999 17.5001C42.7999 18.2001 41.8999 18.6001 41.0999 18.3001Z" fill="white"/>
<path d="M56.4999 34.5V12.5H49.0999C48.3999 12.5 47.8999 12.1 47.8999 11.4V10.8C47.8999 10.1 48.2999 9.69995 49.0999 9.69995H67.0999C67.8999 9.69995 68.2999 10.1 68.2999 10.8V11.4C68.2999 12.1 67.8999 12.5 67.0999 12.5H59.6999V34.5C59.6999 35.2 59.2999 35.7 58.5999 35.7H57.5999C56.8999 35.7 56.4999 35.2 56.4999 34.5Z" fill="white"/>
<path d="M77.9999 33.4C79.7999 33.4 81.9999 32.9 84.1999 31.1C84.8999 30.5 85.3999 30.6 85.8999 31.1L86.2999 31.5C86.8999 32.1 86.5999 32.6999 86.1999 33.0999C83.7999 35.3999 80.3999 36.2 77.9999 36.2C72.4999 36.2 67.3999 32.4 67.3999 25.8C67.3999 19.8 71.6999 15.2 77.4999 15.2C80.2999 15.2 82.6999 16.2 84.4999 17.9C86.4999 19.8 87.4999 22.5 87.4999 25.3C87.4999 26.1 86.8999 26.6 86.0999 26.6H70.5999C70.9999 31 74.3999 33.4 77.9999 33.4ZM70.6999 23.9H84.1999C83.9999 22.3 83.2999 20.9 82.3999 19.9C81.1999 18.6 79.5999 17.9 77.4999 17.9C73.7999 18 71.1999 20.3 70.6999 23.9Z" fill="white"/>
<path d="M90.5999 25.7C90.5999 19.8 95.0999 15.2 101.2 15.2C103.6 15.2 106.5 15.8 109 18.2C109.4 18.6 109.7 19.2 109.1 19.8L108.7 20.2C108.2 20.6 107.7 20.8 107 20.2C104.7 18.1 102.8 18 101.4 18C96.9999 18 93.8999 21.2 93.8999 25.7C93.8999 30 96.7999 33.2999 101.4 33.2999C102.8 33.2999 104.7 33.2 107 31.1C107.7 30.5 108.2 30.6 108.7 31.1L109.1 31.5C109.7 32.1 109.4 32.6999 109 33.0999C106.5 35.4999 103.7 36.0999 101.2 36.0999C95.0999 36.1999 90.5999 31.6 90.5999 25.7Z" fill="white"/>
<path d="M131.6 23.5V34.5C131.6 35.2 131.2 35.7 130.5 35.7H129.5C128.8 35.7 128.4 35.2 128.4 34.5V23.8C128.4 20.3 126.2 18 122.8 18C119.4 18 116.9 20.3 116.9 23.8V34.5C116.9 35.2 116.5 35.7 115.8 35.7H114.8C114.1 35.7 113.7 35.2 113.7 34.5V8.50003C113.7 7.90003 114.1 7.50003 114.8 7.30003L115.6 7.10003C116.5 6.90003 116.8 7.30003 116.8 8.20003V18C118.2 16.2 120.4 15.2 123.2 15.2C128.4 15.2 131.6 18.7 131.6 23.5Z" fill="white"/>
<path d="M153.6 16.6L143.9 38.5C142.3 42 141 43.3 138.3 43.3C137.2 43.3 136.2 43 135.5 42.6C135.1 42.3 134.6 42 134.9 41.2L135.1 40.8C135.3 40.1 136 39.9 136.8 40.3C137.2 40.5 137.8 40.7 138.3 40.7C139.5 40.7 140.2 40.3 141.1 38.2L142.7 34.6L134.9 16.6C134.7 16 135 15.5 135.7 15.5H137.1C137.8 15.5 138.2 15.9 138.5 16.6L144.5 31L150.5 16.6C150.8 15.9 151.1 15.5 151.9 15.5H153.1C153.5 15.5 153.8 16 153.6 16.6Z" fill="white"/>
<path d="M178 25.7C178 31.6 173.8 36.2 168 36.2C163.6 36.2 160.2 33.6 158.8 29.7V42.5C158.8 42.7 158.7 42.9 158.4 42.9H158.3C158.1 42.9 157.9 42.7 157.9 42.5V16.1C157.9 15.9 158.1 15.7 158.3 15.7H158.4C158.6 15.7 158.8 15.9 158.8 16.1V21.7C160.2 17.8 163.6 15.2 168 15.2C173.8 15.2 178 19.8 178 25.7ZM177.1 25.7C177.1 20.3 173.3 16 167.9 16C162.5 16 158.7 20.2 158.7 25.7C158.7 31.2 162.5 35.4 167.9 35.4C173.3 35.4 177.1 31.2 177.1 25.7Z" fill="white"/>
<path d="M191.9 35.4001C195.1 35.4001 198.3 33.6 199.9 31.3C200 31.1 200.3 31.1 200.4 31.2L200.5 31.3C200.7 31.4 200.7 31.7 200.5 31.8C198.7 34.3 195.4 36.2001 191.9 36.2001C186.3 36.2001 181.9 32 181.9 25.7C181.9 19.8 185.7 15.3 191.7 15.3C195.4 15.3 198.2 17.1 199.7 19.9C200.6 21.6 201.1 23.6 201.1 25.3C201.1 25.8 201.1 26.1 200.6 26.1H182.8C182.9 31.6 186.8 35.4001 191.9 35.4001ZM182.7 25.3H200.2C200.1 23.5 199.8 21.9 199 20.5C197.6 17.8 195.2 16 191.6 16C186.5 16 182.8 20 182.7 25.3Z" fill="white"/>
<path d="M214.8 35.4001C218 35.4001 221.2 33.6 222.8 31.3C222.9 31.1 223.2 31.1 223.3 31.2L223.4 31.3C223.6 31.4 223.6 31.7 223.4 31.8C221.6 34.3 218.3 36.2001 214.8 36.2001C209.2 36.2001 204.8 32 204.8 25.7C204.8 19.8 208.6 15.3 214.6 15.3C218.3 15.3 221.1 17.1 222.6 19.9C223.5 21.6 224 23.6 224 25.3C224 25.8 224 26.1 223.5 26.1H205.7C205.8 31.6 209.7 35.4001 214.8 35.4001ZM205.6 25.3H223.1C223 23.5 222.7 21.9 221.9 20.5C220.5 17.8 218.1 16 214.5 16C209.4 16 205.7 20 205.6 25.3Z" fill="white"/>
<path d="M249.3 25.7C249.3 31.6 245.1 36.2 239.3 36.2C234.9 36.2 231.5 33.6 230.1 29.7V42.5C230.1 42.7 230 42.9 229.7 42.9H229.6C229.4 42.9 229.2 42.7 229.2 42.5V16.1C229.2 15.9 229.4 15.7 229.6 15.7H229.7C229.9 15.7 230.1 15.9 230.1 16.1V21.7C231.5 17.8 234.9 15.2 239.3 15.2C245.2 15.2 249.3 19.8 249.3 25.7ZM248.5 25.7C248.5 20.3 244.7 16 239.3 16C233.9 16 230.1 20.2 230.1 25.7C230.1 31.2 233.9 35.4 239.3 35.4C244.7 35.4 248.5 31.2 248.5 25.7Z" fill="white"/>
<path d="M252.7 32.4C252.6 32.2 252.6 32 252.8 31.9L253 31.7999C253.2 31.6999 253.4 31.7999 253.5 32C254.8 34.4 256.8 35.4 259.8 35.4C263.3 35.4 265.5 33.6 265.5 30.8C265.5 27.2 261.7 26.2 258.4 24.8C256.2 23.9 254 22.6 254 20C254 17 256.6 15.2 259.8 15.2C262.3 15.2 264.5 16.2 265.8 18.3C265.9 18.5 266 18.7 265.8 18.8L265.7 18.9C265.5 19 265.3 19 265.2 18.8C264 16.8 262.2 16 259.9 16C257.1 16 254.9 17.6 254.9 20C254.9 22.4 256.9 23.5 259 24.3C262.6 25.7 266.4 26.7 266.4 30.9C266.4 34.1 263.9 36.2 259.9 36.2C256.4 36.2 253.9 34.9 252.7 32.4Z" fill="white"/>
</g>
<defs>
<clipPath id="clip0_23_1113">
<rect width="266.2" height="44.5" fill="white"/>
</clipPath>
</defs>
</svg>
