<svg width="593" height="494" viewBox="0 0 593 494" fill="none" xmlns="http://www.w3.org/2000/svg">
<path d="M591.799 2.21127C587.551 109.241 480.616 207.062 429.397 165.415L414.694 180.25L349.762 129.977L360.712 117.78C360.712 117.78 339.908 101.492 349.931 68.1958C365.511 16.4005 392.16 3.85271 398.957 0.939697L591.799 2.21127Z" fill="#008BC4"/>
<path d="M414.775 181.503L348.371 130.102L359.353 117.867C355.738 114.456 352.801 110.392 350.695 105.889C347.024 98.2279 343.748 85.4231 349.01 67.9263C363.011 21.3744 386.071 5.43739 398.569 0.0749421L398.744 0H398.945L592.757 1.25291L592.72 2.22379C591.348 36.6788 578.938 73.226 557.813 105.125C538.393 134.431 513.041 157.66 488.277 168.854C465.361 179.21 444.519 178.414 429.466 166.656L414.775 181.503ZM351.14 129.851L414.612 178.997L429.334 164.15L429.96 164.688C444.482 176.485 464.911 177.368 487.482 167.194C534.679 145.895 587.413 77.204 590.784 3.16959L399.089 1.91668C386.854 7.22275 364.484 22.9092 350.777 68.5025C341.067 100.777 361.032 116.921 361.232 117.078L362.021 117.704L351.14 129.851Z" fill="#00446D"/>
<path d="M416.254 178.546L349.762 130.008L361.157 118.237C382.782 118.625 416.912 141.027 429.178 165.108L416.254 178.546Z" fill="#76C0E5"/>
<path d="M523.753 93.0407C527.798 93.0407 531.077 89.762 531.077 85.7175C531.077 81.673 527.798 78.3943 523.753 78.3943C519.709 78.3943 516.43 81.673 516.43 85.7175C516.43 89.762 519.709 93.0407 523.753 93.0407Z" fill="#76C0E5"/>
<path d="M380.383 91.0424C384.428 91.0424 387.706 87.7637 387.706 83.7192C387.706 79.6746 384.428 76.3959 380.383 76.3959C376.339 76.3959 373.06 79.6746 373.06 83.7192C373.06 87.7637 376.339 91.0424 380.383 91.0424Z" fill="#76C0E5"/>
<path d="M446.812 49.4648C450.857 49.4648 454.135 46.1858 454.135 42.1413C454.135 38.0967 450.857 34.8181 446.812 34.8181C442.768 34.8181 439.489 38.0967 439.489 42.1413C439.489 46.1858 442.768 49.4648 446.812 49.4648Z" fill="#76C0E5"/>
<path d="M467.21 149.804C471.254 149.804 474.533 146.525 474.533 142.481C474.533 138.436 471.254 135.158 467.21 135.158C463.165 135.158 459.887 138.436 459.887 142.481C459.887 146.525 463.165 149.804 467.21 149.804Z" fill="#76C0E5"/>
<path d="M350.915 129.632C350.915 129.632 236.982 123.411 273.153 183.777L237.846 231.963C237.846 231.963 244.843 251.114 268.617 245.977C268.617 245.977 263.781 283.326 293.807 275.646C293.807 275.646 311.41 289.472 349.561 264.996C381.686 244.386 414.005 180.118 414.005 180.118L350.915 129.632Z" fill="#FFFAF7"/>
<path d="M309.086 280.845C300.222 280.845 295.141 278.045 293.556 276.999C285.525 278.935 279.148 277.876 274.619 273.867C266.556 266.725 266.838 252.48 267.208 247.556C243.979 251.628 236.743 232.615 236.668 232.415L236.436 231.788L271.655 183.726C263.956 170.571 262.748 159.426 268.06 150.618C283.496 125.028 348.246 128.26 350.983 128.411H351.385L351.698 128.661L415.596 179.786L415.139 180.688C413.81 183.325 382.294 245.501 350.25 266.055C332.064 277.707 318.458 280.845 309.086 280.845ZM294.095 274.28L294.584 274.663C294.622 274.663 298.925 277.933 307.677 278.258C315.82 278.553 329.603 276.316 348.885 263.944C378.291 245.075 408.354 188.318 412.426 180.463L350.445 130.866C344.932 130.628 284.266 128.573 270.209 151.884C265.316 160.028 266.669 170.514 274.23 183.131L274.656 183.845L239.274 232.133C240.671 235.296 248.045 249.141 268.354 244.749L270.089 244.373L269.864 246.134C269.864 246.316 267.628 264.301 276.285 271.988C280.27 275.515 286.058 276.335 293.494 274.431L294.095 274.28Z" fill="#00446D"/>
<path d="M287.624 169.487C287.785 169.186 287.831 168.837 287.752 168.505C287.672 168.173 287.474 167.882 287.194 167.687C286.914 167.492 286.571 167.407 286.233 167.448C285.894 167.488 285.582 167.652 285.356 167.908L272.119 182.943C271.989 183.079 271.887 183.239 271.821 183.415C271.754 183.59 271.723 183.778 271.731 183.965C271.739 184.153 271.785 184.337 271.866 184.507C271.947 184.676 272.061 184.828 272.202 184.952C272.343 185.076 272.508 185.17 272.687 185.229C272.865 185.288 273.054 185.31 273.241 185.293C273.428 185.277 273.61 185.223 273.776 185.135C273.942 185.046 274.088 184.925 274.205 184.779L287.442 169.744C287.51 169.664 287.571 169.578 287.624 169.487Z" fill="#00446D"/>
<path d="M1.87933 345.182C56.3809 375.879 182.599 364.452 182.342 298.455L203.116 296.313L204.719 214.216L188.356 215.08C188.356 215.08 188.744 188.682 156.513 175.57C106.397 155.198 9.03344 161.299 2.50579 164.763L1.87933 345.182Z" fill="#76C0E5"/>
<path d="M53.4364 161.136C86.6886 161.136 128.824 164.313 156.513 175.545C188.744 188.657 188.356 215.055 188.356 215.055L204.719 214.191L203.116 296.288L182.342 298.43C182.511 341.555 128.686 361.376 76.1454 361.376C48.2807 361.376 20.767 355.795 1.87937 345.157L2.50582 164.739C5.4251 163.191 26.524 161.111 53.4364 161.111V161.136ZM53.4364 159.232C26.7871 159.232 5.13057 161.224 1.62242 163.079C1.32233 163.238 1.07104 163.476 0.895636 163.768C0.720229 164.059 0.627364 164.392 0.626457 164.732L2.44038e-06 345.151C-0.000535484 345.485 0.0878652 345.814 0.256335 346.102C0.424805 346.39 0.667425 346.629 0.958649 346.792C19.533 357.254 46.9341 363.256 76.1332 363.256C116.139 363.256 150.944 352.286 169.243 333.912C178.803 324.315 183.827 312.958 184.184 300.128L203.297 298.161C203.753 298.113 204.177 297.901 204.487 297.562C204.798 297.224 204.974 296.784 204.982 296.325L206.586 214.222C206.59 213.965 206.543 213.709 206.445 213.471C206.347 213.233 206.201 213.017 206.016 212.838C205.666 212.501 205.199 212.312 204.713 212.311H204.613L190.117 213.082C189.613 208.332 188.291 203.705 186.207 199.406C182.449 191.595 174.418 180.807 157.209 173.81C126.036 161.124 78.8019 159.232 53.4242 159.232H53.4364Z" fill="#00446D"/>
<path d="M200.785 296.438L204.719 214.21L188.431 215.701C175.163 232.778 171.204 273.391 182.236 298.067L200.785 296.438Z" fill="#76C0E5"/>
<path d="M61.0732 329.227C65.1177 329.227 68.3961 325.948 68.3961 321.903C68.3961 317.859 65.1177 314.58 61.0732 314.58C57.0286 314.58 53.7496 317.859 53.7496 321.903C53.7496 325.948 57.0286 329.227 61.0732 329.227Z" fill="white"/>
<path d="M149.491 216.346C153.535 216.346 156.814 213.067 156.814 209.023C156.814 204.978 153.535 201.699 149.491 201.699C145.446 201.699 142.168 204.978 142.168 209.023C142.168 213.067 145.446 216.346 149.491 216.346Z" fill="white"/>
<path d="M75.4315 241.974C79.476 241.974 82.7544 238.695 82.7544 234.651C82.7544 230.606 79.476 227.328 75.4315 227.328C71.387 227.328 68.108 230.606 68.108 234.651C68.108 238.695 71.387 241.974 75.4315 241.974Z" fill="white"/>
<path d="M140.752 320.826C144.796 320.826 148.075 317.547 148.075 313.503C148.075 309.458 144.796 306.18 140.752 306.18C136.707 306.18 133.429 309.458 133.429 313.503C133.429 317.547 136.707 320.826 140.752 320.826Z" fill="white"/>
<path d="M203.735 214.88C203.735 214.88 270.391 122.271 294.684 188.319L354.36 191.062C354.36 191.062 364.885 208.534 345.959 223.82C345.959 223.82 356.171 241.035 331.35 259.59C331.35 259.59 327.385 286.265 284.366 300.611C248.163 312.682 203.422 295.687 203.422 295.687L203.735 214.88Z" fill="#FFFAF7"/>
<path d="M255.28 306.167C227.892 306.167 203.334 296.996 203.002 296.87L202.188 296.563L202.482 214.498L202.72 214.172C204.324 211.942 242.431 159.501 272.044 163.554C282.236 164.945 290.148 172.876 295.567 187.128L355.08 189.872L355.425 190.442C355.532 190.624 366 208.534 347.519 224.176C348.963 227.547 349.542 231.225 349.204 234.876C348.684 241.141 345.358 250.538 332.485 260.329C332.115 262.108 330.524 268.141 324.967 275.502C319.053 283.364 307.276 294.296 284.761 301.813C275.245 304.989 265.078 306.167 255.28 306.167ZM204.7 294.822C210.902 297.008 251.283 310.346 283.991 299.433C305.798 292.16 317.193 281.66 322.881 274.13C329.045 265.986 330.098 259.484 330.11 259.421L330.186 258.913L330.599 258.6C354.154 240.991 345.27 225.135 344.875 224.465L344.337 223.537L345.17 222.855C361.327 209.806 355.194 195.372 353.596 192.296L293.795 189.54L293.506 188.763C288.432 174.981 281.096 167.307 271.706 166.023C244.724 162.345 208.265 210.858 204.988 215.306L204.7 294.822Z" fill="#00446D"/>
<path d="M274.481 190.624C274.146 190.561 273.845 190.377 273.636 190.107C273.428 189.837 273.325 189.5 273.349 189.159C273.373 188.819 273.521 188.499 273.766 188.261C274.01 188.023 274.334 187.882 274.675 187.867L294.677 186.997C294.865 186.979 295.055 186.999 295.235 187.057C295.414 187.115 295.58 187.209 295.722 187.333C295.865 187.457 295.98 187.608 296.062 187.778C296.144 187.948 296.19 188.133 296.198 188.322C296.206 188.51 296.176 188.698 296.109 188.875C296.042 189.051 295.94 189.212 295.809 189.348C295.678 189.483 295.521 189.591 295.347 189.664C295.173 189.737 294.985 189.773 294.797 189.772L274.794 190.649C274.689 190.653 274.584 190.645 274.481 190.624Z" fill="#00446D"/>
<path d="M288.37 237.244C283.69 237.031 280.796 236.618 280.408 236.555C279.449 236.411 278.803 235.678 278.966 234.926C279.107 234.524 279.392 234.188 279.765 233.983C280.139 233.779 280.575 233.719 280.99 233.818C281.316 233.868 313.659 238.479 344.794 223.45C345.196 223.258 345.649 223.2 346.086 223.286C346.522 223.372 346.92 223.596 347.219 223.926C347.333 224.08 347.411 224.259 347.445 224.448C347.479 224.637 347.469 224.831 347.417 225.015C347.364 225.2 347.27 225.37 347.141 225.512C347.012 225.655 346.852 225.766 346.674 225.837C323.513 237.013 300.216 237.783 288.37 237.244Z" fill="#00446D"/>
<path d="M273.666 272.132C268.987 271.919 266.092 271.505 265.704 271.449C264.745 271.305 264.107 270.572 264.263 269.82C264.404 269.418 264.688 269.082 265.062 268.877C265.436 268.672 265.872 268.613 266.287 268.711C266.613 268.761 298.962 273.372 330.097 258.343C330.498 258.152 330.95 258.095 331.386 258.18C331.821 258.266 332.218 258.49 332.516 258.82C332.624 258.973 332.696 259.149 332.727 259.334C332.758 259.52 332.747 259.71 332.695 259.89C332.642 260.071 332.55 260.237 332.425 260.377C332.3 260.517 332.144 260.627 331.97 260.699C308.842 271.887 285.512 272.671 273.666 272.132Z" fill="#00446D"/>
<path d="M244.718 300.278C233.029 298.104 226.432 293.143 226.15 292.93C225.869 292.702 225.688 292.374 225.644 292.015C225.601 291.656 225.7 291.294 225.919 291.006C226.138 290.718 226.461 290.527 226.819 290.473C227.177 290.42 227.542 290.508 227.836 290.719C228.13 290.938 254.967 310.627 295.662 286.145C295.978 285.955 296.357 285.899 296.716 285.988C297.074 286.077 297.382 286.305 297.572 286.622C297.762 286.938 297.819 287.317 297.73 287.676C297.641 288.034 297.413 288.342 297.096 288.532C274.989 301.832 256.928 302.352 245.671 300.435L244.718 300.278Z" fill="white"/>
<path d="M281.804 230.441C281.454 230.378 281.142 230.184 280.931 229.898C280.72 229.612 280.627 229.256 280.671 228.903C280.714 228.55 280.891 228.227 281.164 228.001C281.438 227.774 281.788 227.661 282.143 227.685C282.612 227.716 329.346 230.234 345.414 212.274C345.664 211.999 346.012 211.834 346.383 211.816C346.566 211.807 346.749 211.834 346.922 211.896C347.095 211.958 347.255 212.053 347.391 212.177C347.527 212.3 347.637 212.449 347.716 212.615C347.794 212.781 347.84 212.961 347.849 213.145C347.858 213.328 347.83 213.512 347.769 213.685C347.707 213.858 347.612 214.017 347.488 214.153C330.536 233.116 283.965 230.604 281.992 230.491L281.804 230.441Z" fill="white"/>
<path d="M293.901 135.32C270.002 142.211 234.294 167.896 231.788 192.954C229.282 218.012 265.479 207.294 302.195 178.514" fill="#FFFAF7"/>
<path d="M244.129 208.252C241.353 208.351 238.597 207.747 236.117 206.498C233.116 204.851 229.708 201.135 230.541 192.829C231.7 181.22 240.038 168.272 254.008 156.369C265.911 146.252 281.046 137.726 293.556 134.118L294.252 136.529C270.922 143.251 235.478 168.623 233.035 193.08C232.477 198.655 233.918 202.432 237.319 204.306C247.518 209.912 274.475 198.667 301.425 177.525L302.966 179.498C279.774 197.678 257.717 208.252 244.129 208.252Z" fill="#00446D"/>
<path d="M61.0791 493.339C60.826 493.34 60.5785 493.264 60.3695 493.121C60.1604 492.978 59.9997 492.775 59.9082 492.539C59.8166 492.303 59.7987 492.045 59.8568 491.799C59.9149 491.552 60.0463 491.329 60.2336 491.159C99.1365 455.796 116.545 416.398 124.295 389.573C132.695 360.487 131.881 339.494 131.868 339.288C131.861 339.123 131.886 338.959 131.942 338.804C131.999 338.649 132.085 338.507 132.196 338.385C132.42 338.14 132.733 337.993 133.065 337.978C133.397 337.963 133.722 338.081 133.967 338.305C134.213 338.53 134.359 338.843 134.374 339.175C134.374 339.388 135.226 360.706 126.731 390.162C118.894 417.325 101.297 457.193 61.9246 493.013C61.6932 493.224 61.3918 493.34 61.0791 493.339Z" fill="#00446D"/>
<path d="M149.41 439.464C149.209 439.465 149.012 439.417 148.833 439.326C148.687 439.25 148.556 439.147 148.45 439.021C148.343 438.895 148.262 438.749 148.212 438.592C148.162 438.435 148.144 438.269 148.158 438.105C148.172 437.941 148.218 437.781 148.294 437.635C160.178 414.719 165.271 388.886 162.973 363.174C161.219 343.754 155.831 331.081 155.775 330.956C155.643 330.65 155.639 330.305 155.762 329.996C155.886 329.687 156.126 329.44 156.432 329.308C156.738 329.177 157.083 329.172 157.392 329.296C157.701 329.419 157.948 329.66 158.08 329.966C158.305 330.492 163.662 343.059 165.459 362.842C167.822 389.063 162.64 415.413 150.525 438.787C150.419 438.992 150.259 439.163 150.062 439.282C149.866 439.402 149.64 439.464 149.41 439.464Z" fill="#00446D"/>
<path d="M339.538 321.377C339.245 321.376 338.963 321.272 338.738 321.084C338.514 320.896 338.363 320.635 338.311 320.347C338.259 320.059 338.309 319.762 338.453 319.508C338.597 319.253 338.826 319.057 339.099 318.953C385.144 301.782 409.726 274.193 422.23 254.071C435.793 232.252 438.518 214.254 438.518 214.078C438.564 213.746 438.741 213.446 439.009 213.244C439.277 213.041 439.614 212.954 439.946 213.001C440.279 213.047 440.579 213.224 440.781 213.492C440.983 213.759 441.07 214.097 441.024 214.429C440.917 215.181 438.242 233.035 424.442 255.28C411.731 275.772 386.76 303.862 339.989 321.296C339.845 321.352 339.692 321.379 339.538 321.377Z" fill="#00446D"/>
<path d="M493.822 284.078L496.797 281.297C497.318 280.81 497.673 280.172 497.812 279.474L498.601 275.477C498.705 274.952 498.931 274.46 499.261 274.039C499.592 273.619 500.016 273.283 500.501 273.057C500.986 272.832 501.517 272.724 502.051 272.743C502.585 272.762 503.107 272.907 503.575 273.165L507.14 275.139C507.764 275.482 508.48 275.623 509.188 275.54L513.229 275.057C513.761 274.99 514.302 275.05 514.807 275.232C515.312 275.414 515.767 275.714 516.133 276.105C516.5 276.497 516.769 276.97 516.917 277.486C517.066 278.002 517.09 278.546 516.987 279.073L516.211 283.07C516.076 283.77 516.164 284.495 516.461 285.143L518.172 288.839C518.396 289.324 518.502 289.855 518.482 290.389C518.462 290.923 518.316 291.444 518.057 291.911C517.797 292.378 517.431 292.777 516.989 293.076C516.546 293.375 516.04 293.565 515.509 293.631L511.463 294.132C510.76 294.223 510.104 294.53 509.583 295.01L506.595 297.779C506.203 298.143 505.731 298.409 505.217 298.556C504.703 298.703 504.161 298.726 503.636 298.623C503.111 298.521 502.618 298.295 502.197 297.965C501.776 297.636 501.439 297.211 501.214 296.726L499.491 293.036C499.187 292.391 498.69 291.857 498.068 291.508L494.51 289.522C494.042 289.264 493.641 288.898 493.341 288.456C493.04 288.013 492.849 287.506 492.782 286.975C492.714 286.444 492.774 285.906 492.955 285.402C493.135 284.899 493.432 284.445 493.822 284.078Z" fill="#76C0E5"/>
<path d="M501.934 272.739C502.509 272.738 503.074 272.885 503.575 273.165L507.14 275.139C507.643 275.415 508.207 275.562 508.781 275.565C508.919 275.565 509.05 275.565 509.188 275.565L513.229 275.082C513.367 275.073 513.505 275.073 513.642 275.082C514.142 275.084 514.635 275.197 515.086 275.411C515.538 275.625 515.937 275.936 516.254 276.322C516.572 276.707 516.8 277.158 516.924 277.643C517.048 278.127 517.063 278.632 516.969 279.123L516.192 283.12C516.058 283.82 516.145 284.545 516.442 285.193L518.153 288.889C518.377 289.374 518.483 289.905 518.463 290.439C518.443 290.973 518.297 291.494 518.038 291.961C517.779 292.428 517.413 292.828 516.97 293.126C516.528 293.425 516.021 293.616 515.491 293.682L511.444 294.183C510.742 294.274 510.085 294.58 509.564 295.06L506.576 297.829C506.184 298.193 505.712 298.459 505.198 298.606C504.684 298.753 504.142 298.776 503.617 298.673C503.092 298.571 502.599 298.345 502.178 298.015C501.757 297.686 501.42 297.261 501.195 296.776L499.472 293.086C499.168 292.441 498.672 291.907 498.05 291.558L494.492 289.572C494.028 289.308 493.633 288.939 493.338 288.493C493.044 288.048 492.859 287.539 492.798 287.009C492.736 286.479 492.802 285.942 492.987 285.441C493.173 284.941 493.473 284.491 493.865 284.128L496.841 281.347C497.362 280.86 497.717 280.223 497.856 279.524L498.645 275.527C498.798 274.755 499.213 274.06 499.821 273.561C500.429 273.062 501.191 272.789 501.978 272.789L501.934 272.739ZM501.978 270.91C500.756 270.911 499.574 271.336 498.63 272.112C497.687 272.887 497.041 273.966 496.803 275.164L496.007 279.16C495.948 279.473 495.79 279.759 495.557 279.975L492.581 282.756C491.974 283.323 491.51 284.025 491.226 284.805C490.943 285.586 490.847 286.422 490.947 287.246C491.047 288.07 491.34 288.859 491.803 289.548C492.265 290.238 492.884 290.808 493.609 291.213L497.167 293.199C497.44 293.358 497.659 293.596 497.793 293.882L499.516 297.572C499.867 298.325 500.39 298.985 501.045 299.497C501.699 300.009 502.466 300.359 503.281 300.519C504.097 300.678 504.939 300.643 505.738 300.415C506.537 300.187 507.27 299.773 507.879 299.207L510.867 296.438C511.102 296.224 511.397 296.088 511.713 296.05L515.754 295.549C516.579 295.448 517.368 295.154 518.058 294.69C518.747 294.226 519.317 293.605 519.721 292.879C520.125 292.152 520.351 291.341 520.381 290.51C520.411 289.68 520.245 288.854 519.895 288.1L518.19 284.404C518.054 284.115 518.015 283.79 518.078 283.477L518.849 279.48C519.012 278.663 518.979 277.819 518.753 277.016C518.527 276.214 518.114 275.477 517.548 274.866C516.982 274.254 516.278 273.786 515.496 273.499C514.714 273.212 513.874 273.115 513.047 273.215L509 273.698H508.819C508.562 273.697 508.31 273.63 508.086 273.504L504.522 271.536C503.743 271.1 502.864 270.872 501.972 270.872L501.978 270.91Z" fill="#00446D"/>
<path d="M237.921 444.012L240.903 441.23C241.422 440.744 241.776 440.106 241.912 439.408L242.707 435.411C242.811 434.886 243.037 434.394 243.367 433.973C243.698 433.553 244.123 433.217 244.607 432.991C245.092 432.766 245.623 432.658 246.157 432.677C246.691 432.696 247.214 432.84 247.682 433.099L251.246 435.072C251.868 435.416 252.583 435.556 253.289 435.473L257.335 434.991C257.868 434.922 258.409 434.981 258.915 435.163C259.421 435.345 259.876 435.644 260.243 436.036C260.61 436.428 260.879 436.902 261.027 437.419C261.175 437.935 261.198 438.479 261.094 439.006L260.323 443.003C260.185 443.703 260.273 444.43 260.574 445.077L262.284 448.773C262.508 449.258 262.614 449.79 262.594 450.324C262.574 450.858 262.428 451.38 262.168 451.847C261.908 452.314 261.541 452.713 261.097 453.012C260.654 453.31 260.146 453.5 259.615 453.565L255.575 454.066C254.873 454.157 254.216 454.464 253.695 454.943L250.707 457.712C250.316 458.077 249.843 458.343 249.329 458.49C248.815 458.637 248.274 458.66 247.749 458.557C247.224 458.454 246.73 458.229 246.309 457.899C245.888 457.57 245.552 457.145 245.326 456.66L243.597 452.97C243.296 452.326 242.801 451.791 242.181 451.442L238.623 449.456C238.154 449.199 237.752 448.834 237.45 448.392C237.149 447.95 236.956 447.443 236.888 446.912C236.819 446.382 236.877 445.842 237.057 445.338C237.237 444.834 237.533 444.379 237.921 444.012Z" fill="#76C0E5"/>
<path d="M246.04 432.673C246.614 432.676 247.178 432.822 247.681 433.099L251.245 435.073C251.747 435.353 252.312 435.499 252.887 435.498C253.018 435.498 253.157 435.498 253.288 435.498L257.335 435.016C257.473 435.007 257.611 435.007 257.749 435.016C258.248 435.017 258.742 435.128 259.194 435.342C259.645 435.556 260.044 435.867 260.361 436.254C260.678 436.64 260.907 437.091 261.029 437.576C261.151 438.061 261.165 438.566 261.069 439.057L260.298 443.053C260.16 443.754 260.248 444.48 260.549 445.127L262.259 448.823C262.483 449.308 262.589 449.84 262.569 450.374C262.549 450.908 262.402 451.43 262.142 451.898C261.882 452.365 261.515 452.763 261.072 453.062C260.628 453.361 260.121 453.55 259.59 453.615L255.549 454.117C254.847 454.208 254.191 454.514 253.67 454.994L250.682 457.763C250.29 458.127 249.818 458.393 249.304 458.54C248.79 458.687 248.248 458.71 247.724 458.607C247.199 458.504 246.705 458.279 246.284 457.949C245.863 457.62 245.526 457.195 245.301 456.71L243.571 453.02C243.27 452.376 242.775 451.841 242.156 451.492L238.598 449.506C238.131 449.245 237.733 448.878 237.435 448.435C237.137 447.991 236.948 447.483 236.883 446.953C236.818 446.422 236.88 445.884 237.062 445.382C237.245 444.879 237.543 444.427 237.933 444.062L240.916 441.281C241.435 440.794 241.787 440.156 241.924 439.458L242.72 435.461C242.871 434.688 243.286 433.993 243.894 433.494C244.503 432.994 245.265 432.722 246.052 432.723L246.04 432.673ZM246.052 430.844C244.831 430.847 243.648 431.273 242.704 432.048C241.76 432.823 241.113 433.9 240.872 435.097L240.082 439.094C240.02 439.406 239.862 439.691 239.631 439.909L236.655 442.69C236.049 443.257 235.585 443.959 235.301 444.739C235.017 445.519 234.921 446.355 235.021 447.18C235.121 448.004 235.415 448.792 235.877 449.482C236.34 450.171 236.959 450.742 237.683 451.147L241.235 453.133C241.51 453.29 241.728 453.529 241.862 453.816L243.584 457.506C243.935 458.259 244.459 458.919 245.113 459.431C245.767 459.943 246.534 460.293 247.35 460.453C248.165 460.612 249.007 460.576 249.806 460.348C250.605 460.12 251.339 459.707 251.947 459.141L254.936 456.372C255.17 456.157 255.465 456.021 255.781 455.984L259.822 455.482C260.647 455.382 261.436 455.087 262.126 454.623C262.815 454.159 263.385 453.539 263.789 452.812C264.193 452.086 264.419 451.274 264.449 450.444C264.48 449.613 264.313 448.788 263.963 448.034L262.252 444.338C262.121 444.047 262.082 443.724 262.14 443.41L262.917 439.414C263.062 438.652 263.038 437.867 262.846 437.116C262.654 436.365 262.298 435.665 261.804 435.067C261.311 434.469 260.691 433.987 259.99 433.655C259.289 433.324 258.524 433.151 257.749 433.149C257.539 433.15 257.33 433.162 257.122 433.187L253.081 433.669H252.9C252.643 433.668 252.391 433.601 252.167 433.475L248.602 431.508C247.822 431.075 246.944 430.847 246.052 430.844Z" fill="#00446D"/>
<path d="M445.992 465.111L446.38 458.101C446.444 456.875 446.124 455.66 445.466 454.624L441.707 448.71C441.211 447.934 440.905 447.052 440.814 446.135C440.724 445.218 440.851 444.292 441.185 443.434C441.52 442.576 442.052 441.808 442.74 441.195C443.427 440.581 444.249 440.138 445.14 439.903L451.925 438.098C453.11 437.783 454.166 437.104 454.944 436.156L459.404 430.725C459.988 430.012 460.732 429.448 461.576 429.077C462.42 428.707 463.339 428.541 464.259 428.594C465.179 428.646 466.073 428.915 466.869 429.379C467.664 429.843 468.34 430.489 468.839 431.264L472.654 437.165C473.32 438.195 474.293 438.991 475.435 439.439L481.976 441.995C482.833 442.331 483.599 442.866 484.212 443.554C484.824 444.243 485.266 445.066 485.5 445.957C485.734 446.848 485.755 447.782 485.561 448.683C485.366 449.584 484.962 450.426 484.381 451.141L479.946 456.585C479.171 457.538 478.715 458.71 478.643 459.937L478.229 466.947C478.175 467.866 477.904 468.759 477.439 469.555C476.974 470.35 476.328 471.024 475.553 471.522C474.778 472.02 473.897 472.328 472.981 472.422C472.064 472.515 471.139 472.39 470.28 472.058L463.727 469.552C462.584 469.109 461.33 469.037 460.143 469.346L453.347 471.118C452.451 471.357 451.511 471.38 450.605 471.185C449.698 470.989 448.852 470.581 448.134 469.995C447.416 469.408 446.847 468.66 446.474 467.811C446.102 466.962 445.937 466.036 445.992 465.111Z" fill="#76C0E5"/>
<path d="M463.889 428.589C464.868 428.584 465.832 428.827 466.692 429.294C467.552 429.762 468.279 430.44 468.807 431.264L472.622 437.165C473.289 438.195 474.261 438.991 475.403 439.439L481.944 441.995C482.802 442.331 483.568 442.866 484.18 443.554C484.792 444.243 485.234 445.066 485.468 445.957C485.703 446.848 485.723 447.782 485.529 448.683C485.334 449.584 484.93 450.426 484.349 451.141L479.914 456.585C479.139 457.538 478.683 458.71 478.611 459.937L478.197 466.947C478.147 467.868 477.879 468.764 477.415 469.561C476.951 470.358 476.304 471.034 475.528 471.533C474.752 472.032 473.869 472.34 472.951 472.431C472.033 472.522 471.107 472.394 470.248 472.058L463.695 469.552C462.552 469.11 461.298 469.038 460.112 469.346L453.315 471.119C452.423 471.355 451.488 471.376 450.586 471.181C449.684 470.986 448.841 470.58 448.126 469.996C447.412 469.412 446.846 468.667 446.475 467.823C446.103 466.978 445.938 466.057 445.991 465.136L446.38 458.126C446.443 456.9 446.123 455.685 445.465 454.649L441.706 448.735C441.21 447.959 440.905 447.077 440.814 446.16C440.723 445.243 440.85 444.318 441.185 443.459C441.519 442.601 442.052 441.833 442.739 441.22C443.426 440.606 444.249 440.163 445.14 439.928L451.924 438.123C453.11 437.807 454.168 437.128 454.95 436.181L459.404 430.75C459.95 430.08 460.639 429.541 461.421 429.171C462.202 428.802 463.056 428.611 463.92 428.614L463.889 428.589ZM463.92 426.734C462.778 426.732 461.649 426.984 460.616 427.473C459.583 427.961 458.672 428.674 457.95 429.56L453.496 434.985C452.969 435.632 452.249 436.095 451.442 436.307L444.657 438.111C443.48 438.422 442.393 439.006 441.484 439.818C440.576 440.629 439.872 441.643 439.431 442.778C438.989 443.913 438.822 445.136 438.943 446.348C439.064 447.56 439.47 448.725 440.128 449.75L443.887 455.664C444.34 456.363 444.559 457.188 444.513 458.02L444.131 465.036C444.068 466.084 444.221 467.134 444.582 468.121C444.943 469.107 445.504 470.008 446.229 470.768C447.179 471.779 448.384 472.514 449.718 472.896C451.051 473.277 452.463 473.291 453.804 472.935L460.594 471.163C460.922 471.08 461.258 471.038 461.596 471.037C462.087 471.035 462.574 471.127 463.031 471.307L469.584 473.812C470.719 474.255 471.943 474.421 473.156 474.299C474.368 474.177 475.535 473.77 476.56 473.111C477.584 472.451 478.439 471.559 479.052 470.506C479.666 469.453 480.021 468.27 480.09 467.053L480.503 460.043C480.549 459.211 480.859 458.415 481.386 457.769L485.815 452.325C486.585 451.381 487.121 450.269 487.379 449.079C487.637 447.889 487.61 446.656 487.3 445.478C486.99 444.3 486.407 443.213 485.597 442.303C484.787 441.394 483.773 440.69 482.639 440.247L476.099 437.685C475.325 437.383 474.667 436.843 474.22 436.144L470.405 430.242C469.705 429.156 468.743 428.263 467.608 427.646C466.472 427.028 465.2 426.706 463.908 426.709L463.92 426.734Z" fill="#00446D"/>
<path d="M493.771 455.927C493.533 455.927 493.3 455.86 493.098 455.732C492.897 455.605 492.737 455.422 492.635 455.207C492.534 454.991 492.496 454.751 492.526 454.515C492.557 454.278 492.654 454.055 492.807 453.872C496.528 449.368 497.912 445.234 496.916 441.575C495.199 435.242 486.893 432.147 486.805 432.116C486.651 432.059 486.509 431.973 486.387 431.862C486.266 431.75 486.167 431.616 486.098 431.467C486.028 431.318 485.989 431.156 485.982 430.992C485.975 430.828 486 430.663 486.056 430.509C486.113 430.354 486.199 430.212 486.31 430.091C486.422 429.969 486.556 429.871 486.705 429.802C486.854 429.732 487.016 429.693 487.18 429.686C487.345 429.678 487.509 429.704 487.664 429.76C488.052 429.904 497.267 433.318 499.334 440.905C500.587 445.396 499.009 450.301 494.736 455.47C494.619 455.612 494.472 455.727 494.305 455.806C494.138 455.885 493.956 455.926 493.771 455.927Z" fill="#00446D"/>
<path d="M445.052 484.143C443.577 484.161 442.115 483.859 440.767 483.259C437.428 481.725 435.311 478.298 434.502 473.073C434.449 472.741 434.53 472.401 434.728 472.129C434.925 471.856 435.222 471.673 435.555 471.62C435.887 471.567 436.227 471.648 436.5 471.845C436.772 472.042 436.955 472.34 437.008 472.672C437.697 477.026 439.339 479.82 441.869 480.985C446.662 483.184 453.296 479.156 453.365 479.106C453.505 479.006 453.664 478.937 453.831 478.901C453.999 478.866 454.173 478.865 454.341 478.899C454.509 478.933 454.668 479.002 454.809 479.1C454.95 479.198 455.069 479.325 455.159 479.471C455.249 479.617 455.307 479.78 455.331 479.95C455.356 480.12 455.345 480.293 455.3 480.458C455.254 480.624 455.175 480.778 455.068 480.912C454.96 481.046 454.826 481.156 454.674 481.236C454.374 481.399 449.85 484.143 445.052 484.143Z" fill="#00446D"/>
</svg>
