<svg width="468" height="490" viewBox="0 0 468 490" fill="none" xmlns="http://www.w3.org/2000/svg">
<path d="M395.724 331.625C362.113 371.794 324.66 403.81 282.547 425.881C215.708 460.916 133.105 442.927 86.5543 383.533C38.2196 321.858 10.6244 247.907 0.943726 163.463C88.7502 151.649 147.898 144.593 214.227 72.2943C236.802 198.595 273.146 338.201 395.724 331.625Z" fill="#76C0E5"/>
<path d="M210.087 444.539C186.156 444.531 162.54 439.084 141.023 428.61C119.506 418.137 100.65 402.911 85.8797 384.082C61.7915 353.215 42.437 318.93 28.4535 282.358C14.5243 246.174 5.0091 206.211 0.0915782 163.577L0 162.742L4.38626 162.17C91.0891 150.517 148.373 142.815 213.621 71.7508L214.765 70.4698L215.074 72.1852C225.818 132.368 240.542 200.727 268.206 251.406C298.986 307.775 340.67 333.746 395.655 330.807L397.628 330.698L396.37 332.197C361.747 373.578 323.579 405.359 282.93 426.665C260.449 438.418 235.455 444.552 210.087 444.539ZM1.89299 164.217C11.8424 249.84 40.547 323.454 87.2349 383.025C133.671 442.281 215.645 459.995 282.146 425.138C322.104 404.198 359.666 373.064 393.808 332.591C365.395 333.735 340.018 326.948 318.33 312.361C298.625 299.089 281.254 278.853 266.708 252.201C239.181 201.791 224.44 134.066 213.695 74.1639C183.693 106.522 153.027 127.742 117.301 140.871C83.6898 153.222 47.0367 158.15 4.59734 163.851L1.89299 164.217Z" fill="#00446D"/>
<path d="M208.521 444.219C172.783 444.219 139.904 432.091 110.742 408.196C121.482 410.899 132.512 412.28 143.586 412.307C161.598 412.307 186.472 408.201 202.774 388.668C206.6 396.788 211.355 404.437 216.943 411.461C225.337 421.913 238.963 434.367 256.215 434.367C260.944 434.337 265.63 433.463 270.053 431.788C262.316 435.173 238.832 444.219 208.521 444.219Z" fill="#151E28"/>
<path d="M202.78 388.806C206.602 396.89 211.343 404.507 216.909 411.506C225.315 421.97 238.958 434.441 256.238 434.441C260.301 434.42 264.336 433.768 268.2 432.509C249.234 440.17 228.976 444.126 208.521 444.162C192.588 444.189 176.756 441.646 161.633 436.631C143.758 430.69 126.752 421.193 111.068 408.35C121.713 410.986 132.637 412.33 143.604 412.353C161.61 412.353 186.489 408.258 202.78 388.783V388.806ZM202.814 388.514C186.981 407.572 163.114 412.21 143.604 412.21C132.417 412.21 121.274 410.802 110.439 408.018C144.747 436.277 179.782 444.282 208.498 444.282C246.088 444.282 272.832 430.559 272.832 430.559C267.617 432.957 261.954 434.223 256.215 434.276C222.873 434.276 202.791 388.531 202.791 388.531L202.814 388.514Z" fill="black"/>
<path d="M208.526 445.145C195.183 445.165 181.896 443.4 169.021 439.896C147.961 434.144 128.073 423.646 109.919 408.681L106.728 406.057L110.73 407.2C121.489 409.953 132.55 411.352 143.655 411.363H145.125C162.468 411.146 186.449 406.92 202.185 387.982L203.071 386.913L203.643 388.188C203.792 388.52 218.464 421.398 242.915 430.873C252.55 434.607 262.522 434.241 272.551 429.793L273.289 431.336C273.077 431.445 251.983 442.121 221.472 444.625C217.119 444.972 212.804 445.145 208.526 445.145ZM114.007 409.774C153.708 441.063 194.059 445.128 221.214 442.91C234.259 441.835 247.124 439.175 259.525 434.99C253.647 435.495 247.732 434.628 242.246 432.457C219.877 423.789 205.57 396.256 202.602 390.092C186.443 408.67 162.479 412.856 145.067 413.067C134.623 413.14 124.204 412.035 114.007 409.774Z" fill="#00446D"/>
<path d="M53.6297 216.12L53.5157 214.405C53.7388 214.405 76.2221 212.741 104.263 204.684C130.103 197.279 166.075 182.784 190.743 155.766L192.013 156.91C167.065 184.231 130.761 198.869 104.698 206.331C76.4908 214.445 53.8584 216.12 53.6297 216.12Z" fill="#00446D"/>
<path d="M80.9335 254.431C76.7328 254.477 72.5329 254.286 68.3538 253.859L68.5715 252.144C68.7602 252.173 87.5208 254.5 113.687 249.639C148.158 243.265 180.081 227.148 205.679 203.197L206.857 204.444C181 228.634 148.752 244.906 113.932 251.332C103.05 253.366 92.0044 254.403 80.9335 254.431Z" fill="#00446D"/>
<path d="M101.112 306.609C97.4529 306.609 95.3144 306.466 95.2515 306.466L95.3715 304.75C107.701 305.236 120.044 304.277 132.15 301.891C150.848 298.266 176.883 289.517 194.729 268.452L196.032 269.561C177.854 291.021 151.432 299.907 132.431 303.584C122.109 305.569 111.623 306.582 101.112 306.609Z" fill="#00446D"/>
<path d="M78.1604 343.347C77.6949 343.347 77.2344 343.252 76.8068 343.068C76.3792 342.884 75.9936 342.615 75.6732 342.278C43.3376 308.21 21.9235 200.47 21.0429 195.896C20.8685 195.002 21.0556 194.076 21.5639 193.322C22.0722 192.567 22.8596 192.044 23.7529 191.87C24.6461 191.696 25.5722 191.883 26.3271 192.392C27.082 192.9 27.604 193.687 27.7784 194.58C27.99 195.678 49.6785 304.939 80.6475 337.532C81.1092 338.018 81.4185 338.63 81.5365 339.29C81.6544 339.95 81.5761 340.631 81.3114 341.247C81.0468 341.864 80.6073 342.389 80.0472 342.758C79.4872 343.127 78.8311 343.324 78.1604 343.324V343.347Z" fill="white"/>
<path d="M39.8495 179.525C39.6708 179.526 39.4962 179.471 39.3497 179.369C39.2033 179.266 39.0924 179.121 39.032 178.953C31.5067 155.964 27.7921 131.899 28.0359 107.712C28.286 88.5767 31.068 69.559 36.3098 51.1543C45.2528 19.705 58.4558 0.555356 58.6102 0.36666C58.7406 0.180128 58.94 0.0528673 59.1641 0.0131907C59.3883 -0.0264858 59.6192 0.0246044 59.8057 0.155025C59.9923 0.285446 60.119 0.484563 60.1587 0.708683C60.1983 0.932802 60.1472 1.16348 60.0168 1.35001C59.8853 1.5387 46.8199 20.5114 37.9627 51.6976C29.7916 80.4537 23.633 125.786 40.6899 178.427C40.7235 178.535 40.7357 178.649 40.7251 178.762C40.7145 178.875 40.6816 178.985 40.6285 179.086C40.5754 179.186 40.5027 179.275 40.4152 179.347C40.3276 179.42 40.2267 179.474 40.1181 179.508C40.03 179.528 39.9394 179.533 39.8495 179.525Z" fill="#00446D"/>
<path d="M68.4394 170.376C68.3099 170.375 68.182 170.345 68.0653 170.289C67.9486 170.232 67.8462 170.151 67.7649 170.05C50.4335 147.933 51.3426 119.765 55.1852 100.021C57.7461 86.9371 61.9516 74.2298 67.7018 62.2016C67.8049 61.9999 67.9838 61.8475 68.1993 61.7778C68.4149 61.7081 68.6493 61.7268 68.851 61.83C69.0527 61.9331 69.2051 62.1122 69.2748 62.3278C69.3445 62.5433 69.326 62.7777 69.2229 62.9794C63.5483 74.8823 59.3947 87.452 56.8604 100.392C53.1208 119.765 52.2115 147.395 69.1369 169.009C69.2768 169.189 69.3407 169.416 69.3139 169.642C69.2871 169.868 69.1719 170.074 68.9939 170.216C68.8335 170.333 68.6374 170.389 68.4394 170.376Z" fill="#00446D"/>
<path d="M161.118 463.529C149.231 463.574 137.455 461.241 126.483 456.667C114.475 451.641 103.251 443.876 93.1297 433.584C75.9184 416.086 67.7304 397.057 67.6503 396.868C67.5608 396.659 67.5583 396.422 67.643 396.211C67.7278 396 67.8928 395.831 68.102 395.741C68.3113 395.652 68.5475 395.649 68.7587 395.734C68.97 395.819 69.1389 395.984 69.2283 396.193C69.3084 396.382 77.3937 415.16 94.3878 432.423C110.027 448.302 136.65 466.131 174.669 460.864C174.782 460.849 174.897 460.855 175.007 460.884C175.117 460.912 175.22 460.962 175.311 461.031C175.402 461.099 175.478 461.185 175.536 461.283C175.594 461.381 175.631 461.489 175.647 461.602C175.663 461.715 175.656 461.829 175.628 461.939C175.599 462.049 175.549 462.153 175.481 462.244C175.412 462.334 175.326 462.411 175.228 462.469C175.13 462.526 175.022 462.564 174.91 462.58C170.339 463.209 165.731 463.527 161.118 463.529Z" fill="#00446D"/>
<path d="M360.295 140.768C347.715 141.763 335.902 140.728 325.009 137.211C316.622 134.485 309.453 128.911 304.745 121.454C300.037 113.997 298.087 105.128 299.232 96.3844C301.685 77.6749 309.735 60.4635 322.618 44.5558C339.458 57.6559 350.637 66.6275 374.258 65.8441C356.343 91.015 338.492 120.806 360.295 140.768Z" fill="#D6EFFC"/>
<path d="M351.506 141.98C342.433 142.067 333.402 140.734 324.74 138.029C316.161 135.249 308.826 129.551 304.011 121.925C299.195 114.3 297.203 105.229 298.38 96.2872C300.781 77.9608 308.712 60.3777 321.95 44.0298L322.482 43.3779L323.825 44.4243C340.339 57.2728 351.272 65.7641 374.23 65.0093L375.945 64.9521L374.939 66.3646C355.549 93.634 340.425 121.447 360.855 140.127L362.308 141.46L360.346 141.614C357.346 141.858 354.4 141.98 351.506 141.98ZM322.756 45.7508C310.039 61.6641 302.411 78.7327 300.084 96.4929C298.953 105.036 300.85 113.705 305.446 120.994C310.043 128.283 317.048 133.732 325.244 136.393C335.107 139.578 346.211 140.808 358.282 140.047C339.304 120.823 353.628 93.5709 372.543 66.7418C350.065 67.0391 338.549 58.0675 322.745 45.7623L322.756 45.7508Z" fill="#00446D"/>
<path d="M299.061 104.618C299.061 104.618 306.391 118.165 317.987 117.198C317.987 117.198 311.995 132.14 322.562 136.325C322.573 136.331 301.199 129.235 299.061 104.618Z" fill="#008BC4"/>
<path d="M322.298 137.142C322.081 137.074 300.37 129.583 298.203 104.693L297.848 100.587L299.815 104.212C299.883 104.344 307.031 117.266 317.913 116.346L319.296 116.232L318.782 117.524C318.747 117.598 315.677 125.432 318.061 130.973C318.512 132.023 319.172 132.971 320.002 133.758C320.832 134.545 321.814 135.153 322.888 135.547L322.298 137.142ZM300.404 108.238C302.777 121.429 311.085 128.823 316.9 132.505C316.752 132.231 316.609 131.933 316.483 131.648C314.39 126.781 315.911 120.686 316.757 118.113C308.981 118.096 303.28 112.115 300.404 108.238Z" fill="#00446D"/>
<path d="M354.863 76.9658C338.012 76.9658 322.682 63.5627 322.024 62.9795L323.168 61.6929C323.328 61.8359 339.35 75.8165 355.932 75.2275L355.995 76.9429C355.612 76.9601 355.234 76.9658 354.863 76.9658Z" fill="#00446D"/>
<path d="M350.271 87.504C329.377 86.6177 318.044 71.9224 317.93 71.7738L319.296 70.7388C319.405 70.8817 330.287 84.9366 350.34 85.7886L350.271 87.504Z" fill="#00446D"/>
<path d="M335.759 96.6817C323.282 96.6817 313.842 85.7831 313.43 85.3028L314.734 84.1877C314.837 84.3078 324.826 95.8124 337.188 94.9146L337.308 96.63C336.811 96.6643 336.296 96.6817 335.759 96.6817Z" fill="#00446D"/>
<path d="M305.315 89.0136H305.264C305.076 89.007 304.892 88.9635 304.721 88.8854C304.55 88.8074 304.396 88.6963 304.268 88.5588C304.14 88.4212 304.04 88.2599 303.975 88.0839C303.909 87.9078 303.879 87.7205 303.886 87.5327C304.298 76.0566 319.296 54.0707 319.937 53.1387C320.041 52.9786 320.176 52.8409 320.334 52.7338C320.492 52.6268 320.669 52.5525 320.856 52.5152C321.044 52.478 321.236 52.4785 321.423 52.5169C321.61 52.5553 321.787 52.6308 321.945 52.7389C322.102 52.8469 322.236 52.9855 322.339 53.1462C322.442 53.3069 322.512 53.4864 322.544 53.6745C322.577 53.8625 322.571 54.0551 322.528 54.241C322.484 54.4268 322.405 54.6022 322.293 54.7566C322.144 54.9797 307.122 76.9827 306.745 87.6355C306.732 88.0056 306.576 88.3562 306.309 88.6132C306.042 88.8703 305.686 89.0138 305.315 89.0136Z" fill="white"/>
<path d="M292.016 90.8948C291.903 90.8933 291.792 90.8698 291.688 90.8253C291.585 90.7808 291.491 90.7161 291.412 90.6354C291.334 90.5547 291.272 90.4595 291.23 90.3548C291.189 90.2502 291.168 90.1383 291.169 90.0257C291.466 65.2779 300.719 47.7578 308.421 37.4196C316.781 26.2007 324.957 20.9174 325.3 20.7001C325.395 20.632 325.502 20.5838 325.616 20.5586C325.73 20.5333 325.847 20.5315 325.961 20.5533C326.076 20.575 326.185 20.6196 326.281 20.6848C326.378 20.7499 326.46 20.8342 326.523 20.9321C326.586 21.0301 326.629 21.1397 326.648 21.2546C326.667 21.3695 326.663 21.4872 326.635 21.6003C326.607 21.7134 326.557 21.8197 326.486 21.9127C326.416 22.0057 326.328 22.0831 326.227 22.1408C326.141 22.198 317.924 27.5158 309.753 38.5059C302.216 48.6326 293.17 65.7983 292.884 90.0486C292.883 90.1612 292.86 90.2723 292.815 90.3758C292.771 90.4793 292.706 90.573 292.625 90.6516C292.545 90.7302 292.449 90.7922 292.344 90.8339C292.24 90.8757 292.128 90.8963 292.016 90.8948Z" fill="#00446D"/>
<path d="M354.285 283.987C349.756 272.214 347.423 260.589 347.669 249.142C347.9 240.326 351.208 231.87 357.02 225.238C362.832 218.606 370.782 214.217 379.49 212.832C398.12 209.864 416.915 212.695 435.824 220.523C428.048 240.393 422.627 253.688 430.106 276.085C400.87 266.073 367.208 257.41 354.285 283.987Z" fill="#D6EFFC"/>
<path d="M354.194 286.132L353.485 284.296C348.79 272.088 346.549 260.281 346.812 249.119C347.037 240.101 350.416 231.447 356.362 224.663C362.307 217.878 370.443 213.393 379.353 211.986C397.605 209.075 416.715 211.683 436.151 219.734L436.928 220.054L436.31 221.638C428.683 241.125 423.645 253.996 430.907 275.816L431.479 277.458L429.844 276.886C398.188 266.021 367.219 259.44 355.086 284.348L354.194 286.132ZM393.98 212.546C389.171 212.548 384.37 212.93 379.622 213.69C371.108 215.036 363.335 219.324 357.654 225.807C351.973 232.29 348.744 240.559 348.527 249.176C348.281 259.537 350.242 270.533 354.417 281.889C367.454 258.234 397.657 264.22 428.751 274.736C422.084 253.282 427.413 239.678 434.71 221.026C420.889 215.371 407.235 212.546 393.98 212.546Z" fill="#00446D"/>
<path d="M371.542 215.005C371.542 215.005 360.638 225.869 364.858 236.733C364.858 236.733 348.847 235.23 347.823 246.563C347.823 246.557 348.556 224.051 371.542 215.005Z" fill="#008BC4"/>
<path d="M348.676 246.631L346.96 246.529C346.96 246.3 347.978 223.353 371.222 214.204L375.059 212.695L372.143 215.611C372.04 215.714 361.69 226.23 365.653 236.413L366.156 237.706L364.772 237.58C364.686 237.58 356.309 236.848 351.672 240.713C350.796 241.444 350.078 242.345 349.563 243.363C349.048 244.381 348.746 245.493 348.676 246.631ZM368.454 217.321C356.481 223.342 351.747 233.417 349.877 240.033C350.1 239.81 350.334 239.598 350.58 239.393C354.651 236.002 360.929 235.744 363.64 235.807C361.444 228.345 365.561 221.18 368.454 217.321Z" fill="#00446D"/>
<path d="M414.256 261.721C408.75 245.322 417.613 226.006 417.996 225.189L419.551 225.915C419.459 226.109 410.596 245.436 415.88 261.173L414.256 261.721Z" fill="#00446D"/>
<path d="M402.506 259.24C397.417 238.958 408.292 223.914 408.401 223.788L409.779 224.806C409.676 224.949 399.286 239.375 404.169 258.845L402.506 259.24Z" fill="#00446D"/>
<path d="M390.08 249.428C385.391 237.008 393.797 223.868 394.157 223.313L395.592 224.251C395.512 224.377 387.306 237.225 391.686 248.839L390.08 249.428Z" fill="#00446D"/>
<path d="M426.396 223.182C426.246 223.182 426.098 223.159 425.956 223.113C425.698 223.027 400.333 214.879 390.012 217.544C389.648 217.629 389.265 217.569 388.945 217.376C388.625 217.182 388.394 216.872 388.301 216.51C388.207 216.148 388.259 215.764 388.445 215.44C388.632 215.116 388.937 214.878 389.297 214.776C400.419 211.917 425.761 220.043 426.836 220.392C427.161 220.496 427.437 220.713 427.616 221.003C427.794 221.294 427.864 221.638 427.811 221.975C427.757 222.312 427.585 222.619 427.326 222.84C427.066 223.061 426.737 223.183 426.396 223.182Z" fill="white"/>
<path d="M333.185 229.843C333.102 229.843 333.02 229.832 332.94 229.809C332.723 229.742 332.541 229.592 332.434 229.392C332.327 229.192 332.303 228.957 332.368 228.74C332.499 228.3 335.707 217.813 346.428 208.675C356.292 200.27 374.63 191.567 405.976 197.839C406.19 197.892 406.376 198.026 406.494 198.212C406.613 198.398 406.655 198.622 406.612 198.838C406.569 199.055 406.445 199.246 406.265 199.373C406.084 199.5 405.862 199.553 405.644 199.521C381.405 194.678 361.335 198.268 347.612 209.922C337.245 218.728 334.043 229.129 334.014 229.232C333.96 229.409 333.851 229.565 333.701 229.675C333.552 229.785 333.371 229.844 333.185 229.843Z" fill="#00446D"/>
<path d="M277.527 350.922L257.186 364.344C254.883 365.864 252.072 366.406 249.369 365.853C246.667 365.299 244.295 363.694 242.776 361.392L187.722 277.962L225.426 253.082L280.476 336.507C281.23 337.647 281.751 338.924 282.01 340.266C282.27 341.607 282.262 342.987 281.988 344.325C281.714 345.664 281.179 346.936 280.414 348.067C279.648 349.199 278.667 350.169 277.527 350.922Z" fill="#008BC4"/>
<path d="M251.474 366.876C249.609 366.88 247.772 366.419 246.128 365.537C244.485 364.655 243.085 363.378 242.057 361.822L186.518 277.675L225.652 251.852L281.174 335.993C282.818 338.486 283.404 341.529 282.804 344.454C282.205 347.379 280.469 349.947 277.978 351.592L257.639 365.018C255.811 366.229 253.667 366.875 251.474 366.876ZM188.908 278.161L243.492 360.878C244.888 362.989 247.064 364.459 249.543 364.966C252.022 365.473 254.6 364.975 256.712 363.583L277.052 350.163C279.161 348.767 280.632 346.591 281.14 344.113C281.648 341.635 281.152 339.056 279.762 336.942L225.183 254.225L188.908 278.161Z" fill="#00446D"/>
<path d="M184.836 233.577L225.423 253.036L187.718 277.915L184.836 233.577Z" fill="white"/>
<path d="M186.964 279.447L183.887 232.171L227.162 252.921L186.964 279.447ZM185.792 234.984L188.479 276.388L223.69 253.156L185.792 234.984Z" fill="#00446D"/>
<path d="M205.13 243.309L186.277 255.746L184.917 233.183L205.13 243.309Z" fill="#00446D"/>
<path d="M184.917 233.183L205.13 243.309L186.26 255.746L184.899 233.183H184.917ZM184.899 231.467C184.564 231.469 184.237 231.566 183.955 231.748C183.704 231.914 183.501 232.144 183.366 232.414C183.232 232.684 183.171 232.985 183.189 233.286L184.55 255.849C184.567 256.15 184.664 256.442 184.829 256.693C184.995 256.945 185.224 257.149 185.494 257.285C185.732 257.401 185.994 257.462 186.26 257.462C186.597 257.463 186.927 257.366 187.209 257.182L206.079 244.739C206.329 244.573 206.532 244.344 206.666 244.075C206.8 243.806 206.861 243.507 206.843 243.207C206.825 242.907 206.729 242.617 206.564 242.366C206.398 242.115 206.17 241.912 205.902 241.777L185.688 231.65C185.449 231.529 185.185 231.466 184.917 231.467H184.899Z" fill="#00446D"/>
<path d="M274.884 353.479C274.74 353.478 274.597 353.441 274.471 353.371C274.344 353.301 274.236 353.201 274.158 353.079L215.039 259.875C214.975 259.78 214.931 259.673 214.908 259.56C214.886 259.448 214.887 259.332 214.91 259.22C214.933 259.108 214.979 259.001 215.044 258.907C215.109 258.812 215.193 258.732 215.289 258.67C215.386 258.609 215.494 258.567 215.607 258.548C215.72 258.529 215.836 258.533 215.948 258.559C216.059 258.586 216.164 258.634 216.256 258.702C216.349 258.77 216.427 258.856 216.486 258.954L275.61 352.158C275.692 352.288 275.738 352.437 275.742 352.591C275.747 352.744 275.71 352.896 275.636 353.03C275.562 353.165 275.453 353.276 275.32 353.354C275.188 353.432 275.038 353.473 274.884 353.473V353.479Z" fill="#00446D"/>
<path d="M259.783 363.446C259.639 363.446 259.498 363.409 259.372 363.341C259.247 363.272 259.14 363.172 259.062 363.051L199.595 270.07C199.534 269.975 199.492 269.869 199.472 269.758C199.453 269.647 199.455 269.533 199.479 269.423C199.528 269.2 199.663 269.006 199.855 268.883C200.047 268.761 200.28 268.719 200.502 268.768C200.725 268.817 200.919 268.952 201.042 269.144L260.509 362.125C260.592 362.254 260.639 362.404 260.644 362.558C260.65 362.711 260.614 362.864 260.54 362.999C260.466 363.134 260.358 363.247 260.226 363.325C260.093 363.404 259.942 363.446 259.788 363.446H259.783Z" fill="#00446D"/>
<path d="M466.416 485.726C432.582 496.373 315.911 472.706 301.473 450.703C287.035 428.7 299.649 414.742 299.649 414.742L285.606 400.555L323.408 342.203L334.752 349.465C334.752 349.465 356.669 333.454 375.482 348.967C394.294 364.48 461.052 362.313 466.399 375.367" fill="#76C0E5"/>
<path d="M442.635 489.208C424.852 489.208 401.419 486.492 376.494 481.294C345.154 474.764 308.792 463.42 300.759 451.178C287.847 431.507 296.258 417.847 298.505 414.805L284.513 400.67L323.179 341.019L334.764 348.453C338.16 346.2 358.523 333.866 376.06 348.321C385.357 355.983 407.274 359.351 426.613 362.325C446.883 365.435 464.392 368.129 467.211 375.053L465.622 375.705C463.146 369.678 445.259 366.928 426.321 364.017C405.811 360.866 384.579 357.607 374.939 349.642C356.869 334.746 335.484 350.014 335.256 350.174L334.781 350.517L323.665 343.398L286.703 400.458L300.833 414.753L300.261 415.325C299.769 415.897 288.287 429.1 302.165 450.246C308.552 459.966 337.857 471.511 376.826 479.63C415.606 487.71 450.663 489.786 466.136 484.92L466.651 486.555C460.984 488.334 452.716 489.208 442.635 489.208Z" fill="#00446D"/>
<path d="M334.581 351.557C334.581 351.557 349.168 382.595 300.844 415.234L287.332 400.91L323.356 344.965L334.581 351.557Z" fill="#76C0E5"/>
<path d="M408.601 390.172C411.951 390.172 414.668 387.455 414.668 384.104C414.668 380.754 411.951 378.038 408.601 378.038C405.25 378.038 402.534 380.754 402.534 384.104C402.534 387.455 405.25 390.172 408.601 390.172Z" fill="white"/>
<path d="M347.601 396.444C350.951 396.444 353.668 393.728 353.668 390.377C353.668 387.027 350.951 384.311 347.601 384.311C344.25 384.311 341.534 387.027 341.534 390.377C341.534 393.728 344.25 396.444 347.601 396.444Z" fill="white"/>
<path d="M411.574 454.923C414.925 454.923 417.641 452.206 417.641 448.856C417.641 445.505 414.925 442.789 411.574 442.789C408.224 442.789 405.508 445.505 405.508 448.856C405.508 452.206 408.224 454.923 411.574 454.923Z" fill="white"/>
<path d="M366.098 434.458C369.449 434.458 372.165 431.742 372.165 428.391C372.165 425.04 369.449 422.324 366.098 422.324C362.748 422.324 360.032 425.04 360.032 428.391C360.032 431.742 362.748 434.458 366.098 434.458Z" fill="white"/>
<path d="M282.009 297.316C275.107 291.089 262.173 285.834 255.706 285.097C252.859 284.789 249.979 285.182 247.318 286.24C247.318 286.24 268.52 314.333 268.268 315.036L204.095 299.975C204.095 299.975 183.51 318.273 217.481 337.811C217.481 337.811 212.575 355.074 222.524 368.329C222.524 368.329 213.038 380.451 237.277 399.418C261.515 418.384 301.553 411.488 301.553 411.488L317.227 348.23C317.227 348.23 298.02 309.324 282.009 297.316Z" fill="#FFFAF7"/>
<path d="M284.296 413.913C270.373 413.913 250.937 411.529 236.619 400.327C214.833 383.276 219.431 371.405 221.18 368.375C212.741 356.487 215.348 342.071 216.211 338.372C204.249 331.327 197.76 323.614 196.919 315.437C195.935 305.87 203.077 299.426 203.386 299.129L203.826 298.734L265.878 313.327C262.362 308.243 252.773 295.366 246.437 286.955L245.534 285.76L246.929 285.188C249.765 284.062 252.832 283.642 255.866 283.965C262.911 284.771 275.879 290.254 282.741 296.436C298.752 308.506 317.484 346.137 318.273 347.732L318.456 348.11L302.508 412.501L301.77 412.627C295.989 413.516 290.146 413.946 284.296 413.913ZM204.495 301.239C203.066 302.708 198.451 308.1 199.194 315.225C199.984 322.796 206.348 330.092 218.099 336.822L218.87 337.268L218.63 338.126C218.585 338.298 214.004 355.017 223.485 367.648L224.011 368.352L223.439 369.038C223.09 369.495 215.068 380.583 237.997 398.526C259.777 415.566 295.126 411.277 300.644 410.482L316.031 348.373C314.013 344.37 296.104 309.319 281.323 298.231L281.243 298.168C274.81 292.365 262.173 286.984 255.592 286.229C253.444 285.999 251.272 286.193 249.199 286.801C250.96 289.145 254.917 294.417 258.828 299.689C269.727 314.407 269.641 314.642 269.361 315.42L269.018 316.375L204.495 301.239Z" fill="#00446D"/>
<path d="M253.224 352.101C254.922 352.221 256.625 352.238 258.325 352.152C258.579 352.082 258.801 351.926 258.953 351.711C259.105 351.496 259.179 351.235 259.161 350.972C259.143 350.709 259.034 350.46 258.854 350.268C258.673 350.075 258.431 349.951 258.17 349.917C257.964 349.917 237.082 351.163 218.527 336.731C218.291 336.611 218.019 336.577 217.76 336.635C217.501 336.693 217.27 336.839 217.107 337.049C216.944 337.258 216.86 337.518 216.867 337.784C216.875 338.049 216.975 338.303 217.149 338.503C227.559 346.515 240.116 351.248 253.224 352.101Z" fill="#00446D"/>
<path d="M254.733 381.154C257.141 381.303 258.696 381.274 258.937 381.268C259.194 381.21 259.423 381.065 259.586 380.857C259.748 380.649 259.834 380.391 259.828 380.127C259.822 379.863 259.724 379.609 259.552 379.409C259.381 379.208 259.145 379.073 258.885 379.027C258.65 379.027 235.441 379.439 222.724 366.693C222.504 366.549 222.241 366.484 221.979 366.511C221.717 366.538 221.473 366.654 221.287 366.84C221.101 367.026 220.985 367.271 220.958 367.533C220.931 367.794 220.995 368.057 221.14 368.277C231.295 378.461 247.191 380.685 254.733 381.154Z" fill="#00446D"/>
<path d="M268.388 406.96C277.96 407.532 284.096 404.976 284.359 404.861C284.526 404.828 284.683 404.757 284.819 404.655C284.955 404.554 285.067 404.423 285.146 404.272C285.225 404.122 285.269 403.956 285.276 403.786C285.283 403.616 285.252 403.446 285.185 403.29C285.118 403.134 285.017 402.994 284.89 402.882C284.762 402.77 284.612 402.687 284.448 402.64C284.285 402.594 284.113 402.584 283.945 402.612C283.777 402.64 283.618 402.705 283.479 402.803C283.204 402.917 258.319 413.038 231.324 385.883C231.105 385.735 230.84 385.668 230.577 385.693C230.313 385.718 230.066 385.835 229.878 386.022C229.69 386.209 229.574 386.455 229.547 386.718C229.521 386.982 229.587 387.247 229.735 387.467C244.413 402.22 258.433 406.182 267.617 406.908L268.388 406.96Z" fill="white"/>
<path d="M256.278 375.31C257.313 375.379 257.993 375.396 258.142 375.402C258.435 375.402 258.718 375.29 258.931 375.087C259.144 374.885 259.271 374.609 259.285 374.316C259.291 374.169 259.267 374.022 259.215 373.885C259.163 373.747 259.084 373.622 258.983 373.515C258.882 373.409 258.76 373.324 258.625 373.265C258.491 373.206 258.346 373.174 258.199 373.172C257.891 373.172 227.79 372.16 222.838 359.368C222.809 359.202 222.743 359.045 222.645 358.907C222.547 358.77 222.42 358.656 222.273 358.573C222.126 358.49 221.962 358.441 221.794 358.429C221.625 358.417 221.457 358.443 221.299 358.504C221.142 358.565 221 358.66 220.884 358.782C220.768 358.905 220.68 359.051 220.627 359.212C220.574 359.372 220.557 359.542 220.578 359.709C220.599 359.877 220.656 360.038 220.746 360.18C225.532 372.503 249.33 374.882 256.278 375.31Z" fill="white"/>
<path d="M253.122 345.039C253.382 345.016 253.626 344.904 253.814 344.722C254.002 344.541 254.122 344.3 254.154 344.041C254.186 343.781 254.128 343.519 253.99 343.297C253.852 343.075 253.643 342.907 253.396 342.821C253.024 342.746 215.977 335.53 206.954 318.325C206.906 318.163 206.822 318.014 206.709 317.889C206.597 317.763 206.458 317.664 206.303 317.599C206.148 317.533 205.979 317.503 205.811 317.51C205.642 317.516 205.478 317.561 205.328 317.639C205.179 317.717 205.048 317.827 204.947 317.962C204.845 318.096 204.774 318.251 204.739 318.416C204.705 318.581 204.707 318.752 204.746 318.916C204.784 319.08 204.859 319.233 204.964 319.365C214.496 337.531 251.412 344.725 252.995 345.022C253.037 345.032 253.079 345.038 253.122 345.039Z" fill="white"/>
<path d="M436.11 482.867H435.922C330.492 476.005 310.433 446.78 309.627 445.545C309.226 444.911 309.09 444.144 309.249 443.41C309.409 442.676 309.85 442.035 310.479 441.624C311.108 441.213 311.873 441.066 312.609 441.215C313.345 441.363 313.993 441.795 314.413 442.417C314.533 442.589 319.468 449.542 336.713 457.227C352.793 464.409 383.127 473.69 436.322 477.161C437.08 477.186 437.798 477.511 438.316 478.065C438.835 478.618 439.112 479.356 439.087 480.114C439.062 480.872 438.736 481.59 438.183 482.108C437.629 482.626 436.892 482.904 436.133 482.879L436.11 482.867Z" fill="white"/>
</svg>
